<?xml version="1.0" encoding="UTF-8" standalone="no"?>
<svg viewBox="0 0 48 48" shape-rendering="crispEdges" width="96" height="96" id="placa" sodipodi:docname="5_1_placa_jade.svg" inkscape:version="1.4.3 (0d15f75, 2025-12-25)" xmlns:inkscape="http://www.inkscape.org/namespaces/inkscape" xmlns:sodipodi="http://sodipodi.sourceforge.net/DTD/sodipodi-0.0.dtd" xmlns="http://www.w3.org/2000/svg"><defs/><rect x="6" y="38" width="36" height="5" fill="#0A200E"/><rect x="8" y="40" width="32" height="4" fill="#0E2812"/><rect x="6" y="14" width="36" height="26" fill="#1A6840"/><rect x="8" y="12" width="32" height="28" fill="#207048"/><rect x="10" y="10" width="28" height="28" fill="#247A50"/><rect x="12" y="8" width="24" height="28" fill="#1E7048"/><rect x="14" y="6" width="20" height="28" fill="#247A50"/><rect x="14" y="10" width="20" height="20" fill="#30A060"/><rect x="16" y="12" width="16" height="18" fill="#38B068"/><rect x="18" y="14" width="12" height="16" fill="#44C070"/><rect x="20" y="16" width="8" height="12" fill="#50CC78"/><rect x="22" y="18" width="4" height="8" fill="#5CD480"/><rect x="23" y="20" width="2" height="4" fill="#68DC88"/><rect x="10" y="8" width="8" height="4" fill="#70D890"/><rect x="12" y="6" width="6" height="3" fill="#88E8A0"/><rect x="13" y="5" width="4" height="2" fill="#A8F0B8"/><rect x="14" y="4" width="3" height="2" fill="#C0F8C8"/><rect x="14" y="6" width="20" height="2" fill="#60CC80"/><rect x="16" y="4" width="16" height="2" fill="#70D890"/><rect x="18" y="3" width="12" height="2" fill="#80E0A0"/><rect x="6" y="14" width="4" height="26" fill="#1A5838"/><rect x="6" y="16" width="3" height="22" fill="#143C28"/><rect x="38" y="14" width="4" height="26" fill="#143C28"/><rect x="39" y="16" width="3" height="22" fill="#1A5838"/><rect x="6" y="38" width="36" height="3" fill="#143C28"/><rect x="8" y="12" width="4" height="2" fill="#3A8858"/><rect x="34" y="12" width="4" height="2" fill="#3A8858"/><rect x="2" y="18" width="4" height="12" fill="#3A9060"/><rect x="2" y="19" width="2" height="10" fill="#40A068"/><rect x="2" y="20" width="2" height="8" fill="#48A870"/><rect x="1" y="21" width="1" height="6" fill="#50B078"/><rect x="40" y="18" width="4" height="12" fill="#3A9060"/><rect x="41" y="19" width="3" height="10" fill="#40A068"/><rect x="42" y="20" width="2" height="8" fill="#48A870"/><rect x="44" y="21" width="2" height="6" fill="#50B078"/><rect x="0" y="16" width="2" height="16" fill="#2A7850"/><rect x="0" y="17" width="1" height="14" fill="#30804C"/><rect x="46" y="16" width="2" height="16" fill="#2A7850"/><rect x="47" y="17" width="1" height="14" fill="#30804C"/><rect x="14" y="2" width="20" height="2" fill="#3A9060"/><rect x="16" y="1" width="16" height="1" fill="#40A068"/><rect x="18" y="0" width="12" height="1" fill="#48A870"/><rect x="14" y="40" width="20" height="2" fill="#3A9060"/><rect x="16" y="41" width="16" height="1" fill="#40A068"/><rect x="18" y="42" width="12" height="1" fill="#48A870"/><rect x="4" y="12" width="2" height="4" fill="#2A7040"/><rect x="4" y="32" width="2" height="4" fill="#2A7040"/><rect x="40" y="12" width="4" height="4" fill="#2A7040"/><rect x="40" y="32" width="4" height="4" fill="#2A7040"/><rect x="18" y="14" width="12" height="1" fill="#1A5838"/><rect x="22" y="14" width="2" height="8" fill="#1A5838"/><rect x="18" y="18" width="12" height="1" fill="#1A5838"/><rect x="18" y="22" width="12" height="1" fill="#1A5838"/><rect x="18" y="14" width="2" height="9" fill="#1A5838"/><rect x="28" y="14" width="2" height="9" fill="#1A5838"/><rect x="23" y="36" width="2" height="2" fill="#101008"/><rect x="22" y="36" width="4" height="2" fill="#0E1A10"/><rect x="22" y="36" width="1" height="2" fill="#1A5838"/><rect x="25" y="36" width="1" height="2" fill="#1A5838"/><rect x="22" y="38" width="4" height="2" fill="#9A7028"/><rect x="23" y="38" width="3" height="1" fill="#AA8030"/></svg>