<?xml version="1.0" encoding="UTF-8" standalone="no"?>
<svg viewBox="0 0 320 180" shape-rendering="crispEdges" width="640" height="360" id="c51_2" sodipodi:docname="5_1_cena2_secao_geologica.svg" inkscape:version="1.4.3 (0d15f75, 2025-12-25)" xmlns:inkscape="http://www.inkscape.org/namespaces/inkscape" xmlns:sodipodi="http://sodipodi.sourceforge.net/DTD/sodipodi-0.0.dtd" xmlns="http://www.w3.org/2000/svg"><defs/>
<rect x="0" y="0" width="320" height="68" fill="#3A9090"/>
<rect x="0" y="0" width="320" height="10" fill="#2A7878"/>
<rect x="0" y="10" width="320" height="10" fill="#307C7C"/>
<rect x="0" y="20" width="320" height="10" fill="#388888"/>
<rect x="0" y="30" width="320" height="12" fill="#3E9090"/>
<rect x="0" y="42" width="320" height="12" fill="#429494"/>
<rect x="0" y="54" width="320" height="14" fill="#469898"/>
<rect x="10" y="4" width="18" height="2" fill="#88C8C8"/>
<rect x="24" y="8" width="12" height="2" fill="#70BCBC"/>
<rect x="38" y="4" width="18" height="2" fill="#88C8C8"/>
<rect x="52" y="8" width="12" height="2" fill="#70BCBC"/>
<rect x="66" y="4" width="18" height="2" fill="#88C8C8"/>
<rect x="80" y="8" width="12" height="2" fill="#70BCBC"/>
<rect x="94" y="4" width="18" height="2" fill="#88C8C8"/>
<rect x="108" y="8" width="12" height="2" fill="#70BCBC"/>
<rect x="122" y="4" width="18" height="2" fill="#88C8C8"/>
<rect x="136" y="8" width="12" height="2" fill="#70BCBC"/>
<rect x="150" y="4" width="18" height="2" fill="#88C8C8"/>
<rect x="164" y="8" width="12" height="2" fill="#70BCBC"/>
<rect x="178" y="4" width="18" height="2" fill="#88C8C8"/>
<rect x="192" y="8" width="12" height="2" fill="#70BCBC"/>
<rect x="206" y="4" width="18" height="2" fill="#88C8C8"/>
<rect x="220" y="8" width="12" height="2" fill="#70BCBC"/>
<rect x="234" y="4" width="18" height="2" fill="#88C8C8"/>
<rect x="248" y="8" width="12" height="2" fill="#70BCBC"/>
<rect x="262" y="4" width="18" height="2" fill="#88C8C8"/>
<rect x="276" y="8" width="12" height="2" fill="#70BCBC"/>
<rect x="290" y="4" width="18" height="2" fill="#88C8C8"/>
<rect x="304" y="8" width="12" height="2" fill="#70BCBC"/>
<rect x="4" y="14" width="14" height="2" fill="#88C8C8"/>
<rect x="16" y="18" width="10" height="2" fill="#70BCBC"/>
<rect x="26" y="14" width="14" height="2" fill="#88C8C8"/>
<rect x="38" y="18" width="10" height="2" fill="#70BCBC"/>
<rect x="48" y="14" width="14" height="2" fill="#88C8C8"/>
<rect x="60" y="18" width="10" height="2" fill="#70BCBC"/>
<rect x="70" y="14" width="14" height="2" fill="#88C8C8"/>
<rect x="82" y="18" width="10" height="2" fill="#70BCBC"/>
<rect x="92" y="14" width="14" height="2" fill="#88C8C8"/>
<rect x="104" y="18" width="10" height="2" fill="#70BCBC"/>
<rect x="114" y="14" width="14" height="2" fill="#88C8C8"/>
<rect x="126" y="18" width="10" height="2" fill="#70BCBC"/>
<rect x="136" y="14" width="14" height="2" fill="#88C8C8"/>
<rect x="148" y="18" width="10" height="2" fill="#70BCBC"/>
<rect x="158" y="14" width="14" height="2" fill="#88C8C8"/>
<rect x="170" y="18" width="10" height="2" fill="#70BCBC"/>
<rect x="180" y="14" width="14" height="2" fill="#88C8C8"/>
<rect x="192" y="18" width="10" height="2" fill="#70BCBC"/>
<rect x="202" y="14" width="14" height="2" fill="#88C8C8"/>
<rect x="214" y="18" width="10" height="2" fill="#70BCBC"/>
<rect x="224" y="14" width="14" height="2" fill="#88C8C8"/>
<rect x="236" y="18" width="10" height="2" fill="#70BCBC"/>
<rect x="246" y="14" width="14" height="2" fill="#88C8C8"/>
<rect x="258" y="18" width="10" height="2" fill="#70BCBC"/>
<rect x="268" y="14" width="14" height="2" fill="#88C8C8"/>
<rect x="280" y="18" width="10" height="2" fill="#70BCBC"/>
<rect x="290" y="14" width="14" height="2" fill="#88C8C8"/>
<rect x="302" y="18" width="10" height="2" fill="#70BCBC"/>
<rect x="312" y="14" width="14" height="2" fill="#88C8C8"/>
<rect x="324" y="18" width="10" height="2" fill="#70BCBC"/>
<rect x="6" y="26" width="16" height="2" fill="#88C8C8"/>
<rect x="20" y="32" width="12" height="2" fill="#70BCBC"/>
<rect x="36" y="26" width="16" height="2" fill="#88C8C8"/>
<rect x="50" y="32" width="12" height="2" fill="#70BCBC"/>
<rect x="66" y="26" width="16" height="2" fill="#88C8C8"/>
<rect x="80" y="32" width="12" height="2" fill="#70BCBC"/>
<rect x="96" y="26" width="16" height="2" fill="#88C8C8"/>
<rect x="110" y="32" width="12" height="2" fill="#70BCBC"/>
<rect x="126" y="26" width="16" height="2" fill="#88C8C8"/>
<rect x="140" y="32" width="12" height="2" fill="#70BCBC"/>
<rect x="156" y="26" width="16" height="2" fill="#88C8C8"/>
<rect x="170" y="32" width="12" height="2" fill="#70BCBC"/>
<rect x="186" y="26" width="16" height="2" fill="#88C8C8"/>
<rect x="200" y="32" width="12" height="2" fill="#70BCBC"/>
<rect x="216" y="26" width="16" height="2" fill="#88C8C8"/>
<rect x="230" y="32" width="12" height="2" fill="#70BCBC"/>
<rect x="246" y="26" width="16" height="2" fill="#88C8C8"/>
<rect x="260" y="32" width="12" height="2" fill="#70BCBC"/>
<rect x="276" y="26" width="16" height="2" fill="#88C8C8"/>
<rect x="290" y="32" width="12" height="2" fill="#70BCBC"/>
<rect x="306" y="26" width="16" height="2" fill="#88C8C8"/>
<rect x="320" y="32" width="12" height="2" fill="#70BCBC"/>
<rect x="8" y="42" width="14" height="2" fill="#88C8C8"/>
<rect x="18" y="48" width="10" height="2" fill="#70BCBC"/>
<rect x="34" y="42" width="14" height="2" fill="#88C8C8"/>
<rect x="44" y="48" width="10" height="2" fill="#70BCBC"/>
<rect x="60" y="42" width="14" height="2" fill="#88C8C8"/>
<rect x="70" y="48" width="10" height="2" fill="#70BCBC"/>
<rect x="86" y="42" width="14" height="2" fill="#88C8C8"/>
<rect x="96" y="48" width="10" height="2" fill="#70BCBC"/>
<rect x="112" y="42" width="14" height="2" fill="#88C8C8"/>
<rect x="122" y="48" width="10" height="2" fill="#70BCBC"/>
<rect x="138" y="42" width="14" height="2" fill="#88C8C8"/>
<rect x="148" y="48" width="10" height="2" fill="#70BCBC"/>
<rect x="164" y="42" width="14" height="2" fill="#88C8C8"/>
<rect x="174" y="48" width="10" height="2" fill="#70BCBC"/>
<rect x="190" y="42" width="14" height="2" fill="#88C8C8"/>
<rect x="200" y="48" width="10" height="2" fill="#70BCBC"/>
<rect x="216" y="42" width="14" height="2" fill="#88C8C8"/>
<rect x="226" y="48" width="10" height="2" fill="#70BCBC"/>
<rect x="242" y="42" width="14" height="2" fill="#88C8C8"/>
<rect x="252" y="48" width="10" height="2" fill="#70BCBC"/>
<rect x="268" y="42" width="14" height="2" fill="#88C8C8"/>
<rect x="278" y="48" width="10" height="2" fill="#70BCBC"/>
<rect x="294" y="42" width="14" height="2" fill="#88C8C8"/>
<rect x="304" y="48" width="10" height="2" fill="#70BCBC"/>
<rect x="0" y="6" width="320" height="1" fill="#56AAAA"/>
<rect x="0" y="20" width="320" height="1" fill="#56AAAA"/>
<rect x="0" y="36" width="320" height="1" fill="#56AAAA"/>
<rect x="0" y="52" width="320" height="1" fill="#56AAAA"/>
<rect x="0" y="62" width="320" height="8" fill="#8A7040"/>
<rect x="0" y="66" width="320" height="6" fill="#6A5428"/>
<rect x="0" y="70" width="320" height="110" fill="#5A4820"/>
<rect x="2" y="64" width="10" height="2" fill="#9A8048"/>
<rect x="10" y="68" width="8" height="2" fill="#7A6030"/>
<rect x="18" y="64" width="10" height="2" fill="#9A8048"/>
<rect x="26" y="68" width="8" height="2" fill="#7A6030"/>
<rect x="34" y="64" width="10" height="2" fill="#9A8048"/>
<rect x="42" y="68" width="8" height="2" fill="#7A6030"/>
<rect x="50" y="64" width="10" height="2" fill="#9A8048"/>
<rect x="58" y="68" width="8" height="2" fill="#7A6030"/>
<rect x="66" y="64" width="10" height="2" fill="#9A8048"/>
<rect x="74" y="68" width="8" height="2" fill="#7A6030"/>
<rect x="82" y="64" width="10" height="2" fill="#9A8048"/>
<rect x="90" y="68" width="8" height="2" fill="#7A6030"/>
<rect x="98" y="64" width="10" height="2" fill="#9A8048"/>
<rect x="106" y="68" width="8" height="2" fill="#7A6030"/>
<rect x="114" y="64" width="10" height="2" fill="#9A8048"/>
<rect x="122" y="68" width="8" height="2" fill="#7A6030"/>
<rect x="130" y="64" width="10" height="2" fill="#9A8048"/>
<rect x="138" y="68" width="8" height="2" fill="#7A6030"/>
<rect x="146" y="64" width="10" height="2" fill="#9A8048"/>
<rect x="154" y="68" width="8" height="2" fill="#7A6030"/>
<rect x="162" y="64" width="10" height="2" fill="#9A8048"/>
<rect x="170" y="68" width="8" height="2" fill="#7A6030"/>
<rect x="178" y="64" width="10" height="2" fill="#9A8048"/>
<rect x="186" y="68" width="8" height="2" fill="#7A6030"/>
<rect x="194" y="64" width="10" height="2" fill="#9A8048"/>
<rect x="202" y="68" width="8" height="2" fill="#7A6030"/>
<rect x="210" y="64" width="10" height="2" fill="#9A8048"/>
<rect x="218" y="68" width="8" height="2" fill="#7A6030"/>
<rect x="226" y="64" width="10" height="2" fill="#9A8048"/>
<rect x="234" y="68" width="8" height="2" fill="#7A6030"/>
<rect x="242" y="64" width="10" height="2" fill="#9A8048"/>
<rect x="250" y="68" width="8" height="2" fill="#7A6030"/>
<rect x="258" y="64" width="10" height="2" fill="#9A8048"/>
<rect x="266" y="68" width="8" height="2" fill="#7A6030"/>
<rect x="274" y="64" width="10" height="2" fill="#9A8048"/>
<rect x="282" y="68" width="8" height="2" fill="#7A6030"/>
<rect x="290" y="64" width="10" height="2" fill="#9A8048"/>
<rect x="298" y="68" width="8" height="2" fill="#7A6030"/>
<rect x="306" y="64" width="10" height="2" fill="#9A8048"/>
<rect x="314" y="68" width="8" height="2" fill="#7A6030"/>
<rect x="2" y="62" width="14" height="4" fill="#6A6050"/>
<rect x="12" y="60" width="10" height="4" fill="#787060"/>
<rect x="22" y="62" width="14" height="4" fill="#6A6050"/>
<rect x="32" y="60" width="10" height="4" fill="#787060"/>
<rect x="42" y="62" width="14" height="4" fill="#6A6050"/>
<rect x="52" y="60" width="10" height="4" fill="#787060"/>
<rect x="62" y="62" width="14" height="4" fill="#6A6050"/>
<rect x="72" y="60" width="10" height="4" fill="#787060"/>
<rect x="82" y="62" width="14" height="4" fill="#6A6050"/>
<rect x="92" y="60" width="10" height="4" fill="#787060"/>
<rect x="102" y="62" width="14" height="4" fill="#6A6050"/>
<rect x="112" y="60" width="10" height="4" fill="#787060"/>
<rect x="122" y="62" width="14" height="4" fill="#6A6050"/>
<rect x="132" y="60" width="10" height="4" fill="#787060"/>
<rect x="142" y="62" width="14" height="4" fill="#6A6050"/>
<rect x="152" y="60" width="10" height="4" fill="#787060"/>
<rect x="162" y="62" width="14" height="4" fill="#6A6050"/>
<rect x="172" y="60" width="10" height="4" fill="#787060"/>
<rect x="182" y="62" width="14" height="4" fill="#6A6050"/>
<rect x="192" y="60" width="10" height="4" fill="#787060"/>
<rect x="202" y="62" width="14" height="4" fill="#6A6050"/>
<rect x="212" y="60" width="10" height="4" fill="#787060"/>
<rect x="222" y="62" width="14" height="4" fill="#6A6050"/>
<rect x="232" y="60" width="10" height="4" fill="#787060"/>
<rect x="242" y="62" width="14" height="4" fill="#6A6050"/>
<rect x="252" y="60" width="10" height="4" fill="#787060"/>
<rect x="262" y="62" width="14" height="4" fill="#6A6050"/>
<rect x="272" y="60" width="10" height="4" fill="#787060"/>
<rect x="282" y="62" width="14" height="4" fill="#6A6050"/>
<rect x="292" y="60" width="10" height="4" fill="#787060"/>
<rect x="302" y="62" width="14" height="4" fill="#6A6050"/>
<rect x="312" y="60" width="10" height="4" fill="#787060"/>
<rect x="4" y="68" width="6" height="12" fill="#2A5020"/>
<rect x="6" y="65" width="4" height="10" fill="#356428"/>
<rect x="12" y="70" width="5" height="10" fill="#2A5020"/>
<rect x="14" y="67" width="3" height="8" fill="#306020"/>
<rect x="22" y="68" width="6" height="12" fill="#2A5020"/>
<rect x="24" y="65" width="4" height="10" fill="#356428"/>
<rect x="30" y="70" width="5" height="10" fill="#2A5020"/>
<rect x="32" y="67" width="3" height="8" fill="#306020"/>
<rect x="40" y="68" width="6" height="12" fill="#2A5020"/>
<rect x="42" y="65" width="4" height="10" fill="#356428"/>
<rect x="48" y="70" width="5" height="10" fill="#2A5020"/>
<rect x="50" y="67" width="3" height="8" fill="#306020"/>
<rect x="58" y="68" width="6" height="12" fill="#2A5020"/>
<rect x="60" y="65" width="4" height="10" fill="#356428"/>
<rect x="66" y="70" width="5" height="10" fill="#2A5020"/>
<rect x="68" y="67" width="3" height="8" fill="#306020"/>
<rect x="76" y="68" width="6" height="12" fill="#2A5020"/>
<rect x="78" y="65" width="4" height="10" fill="#356428"/>
<rect x="84" y="70" width="5" height="10" fill="#2A5020"/>
<rect x="86" y="67" width="3" height="8" fill="#306020"/>
<rect x="94" y="68" width="6" height="12" fill="#2A5020"/>
<rect x="96" y="65" width="4" height="10" fill="#356428"/>
<rect x="102" y="70" width="5" height="10" fill="#2A5020"/>
<rect x="104" y="67" width="3" height="8" fill="#306020"/>
<rect x="112" y="68" width="6" height="12" fill="#2A5020"/>
<rect x="114" y="65" width="4" height="10" fill="#356428"/>
<rect x="120" y="70" width="5" height="10" fill="#2A5020"/>
<rect x="122" y="67" width="3" height="8" fill="#306020"/>
<rect x="130" y="68" width="6" height="12" fill="#2A5020"/>
<rect x="132" y="65" width="4" height="10" fill="#356428"/>
<rect x="138" y="70" width="5" height="10" fill="#2A5020"/>
<rect x="140" y="67" width="3" height="8" fill="#306020"/>
<rect x="148" y="68" width="6" height="12" fill="#2A5020"/>
<rect x="150" y="65" width="4" height="10" fill="#356428"/>
<rect x="156" y="70" width="5" height="10" fill="#2A5020"/>
<rect x="158" y="67" width="3" height="8" fill="#306020"/>
<rect x="166" y="68" width="6" height="12" fill="#2A5020"/>
<rect x="168" y="65" width="4" height="10" fill="#356428"/>
<rect x="174" y="70" width="5" height="10" fill="#2A5020"/>
<rect x="176" y="67" width="3" height="8" fill="#306020"/>
<rect x="184" y="68" width="6" height="12" fill="#2A5020"/>
<rect x="186" y="65" width="4" height="10" fill="#356428"/>
<rect x="192" y="70" width="5" height="10" fill="#2A5020"/>
<rect x="194" y="67" width="3" height="8" fill="#306020"/>
<rect x="202" y="68" width="6" height="12" fill="#2A5020"/>
<rect x="204" y="65" width="4" height="10" fill="#356428"/>
<rect x="210" y="70" width="5" height="10" fill="#2A5020"/>
<rect x="212" y="67" width="3" height="8" fill="#306020"/>
<rect x="220" y="68" width="6" height="12" fill="#2A5020"/>
<rect x="222" y="65" width="4" height="10" fill="#356428"/>
<rect x="228" y="70" width="5" height="10" fill="#2A5020"/>
<rect x="230" y="67" width="3" height="8" fill="#306020"/>
<rect x="238" y="68" width="6" height="12" fill="#2A5020"/>
<rect x="240" y="65" width="4" height="10" fill="#356428"/>
<rect x="246" y="70" width="5" height="10" fill="#2A5020"/>
<rect x="248" y="67" width="3" height="8" fill="#306020"/>
<rect x="256" y="68" width="6" height="12" fill="#2A5020"/>
<rect x="258" y="65" width="4" height="10" fill="#356428"/>
<rect x="264" y="70" width="5" height="10" fill="#2A5020"/>
<rect x="266" y="67" width="3" height="8" fill="#306020"/>
<rect x="274" y="68" width="6" height="12" fill="#2A5020"/>
<rect x="276" y="65" width="4" height="10" fill="#356428"/>
<rect x="282" y="70" width="5" height="10" fill="#2A5020"/>
<rect x="284" y="67" width="3" height="8" fill="#306020"/>
<rect x="292" y="68" width="6" height="12" fill="#2A5020"/>
<rect x="294" y="65" width="4" height="10" fill="#356428"/>
<rect x="300" y="70" width="5" height="10" fill="#2A5020"/>
<rect x="302" y="67" width="3" height="8" fill="#306020"/>
<rect x="0" y="72" width="30" height="20" fill="#2A5030"/>
<rect x="0" y="76" width="25" height="16" fill="#306830"/>
<rect x="290" y="72" width="30" height="20" fill="#2A5030"/>
<rect x="295" y="76" width="25" height="16" fill="#306830"/>
<rect x="0" y="62" width="108" height="20" fill="#3A7060"/>
<rect x="8" y="32" width="42" height="32" fill="#1A6840"/>
<rect x="10" y="28" width="38" height="32" fill="#206C44"/>
<rect x="12" y="24" width="34" height="36" fill="#1E7048"/>
<rect x="14" y="22" width="30" height="36" fill="#247A50"/>
<rect x="16" y="20" width="26" height="36" fill="#1E7048"/>
<rect x="18" y="26" width="18" height="24" fill="#30A060"/>
<rect x="20" y="28" width="14" height="20" fill="#38B068"/>
<rect x="22" y="30" width="10" height="16" fill="#44C070"/>
<rect x="24" y="32" width="6" height="10" fill="#50CC78"/>
<rect x="25" y="34" width="4" height="6" fill="#60D888"/>
<rect x="14" y="22" width="8" height="6" fill="#70D890"/>
<rect x="16" y="20" width="6" height="4" fill="#88E8A0"/>
<rect x="17" y="19" width="4" height="3" fill="#A8F0B8"/>
<rect x="14" y="24" width="2" height="28" fill="#386A44"/>
<rect x="16" y="22" width="1" height="32" fill="#509860"/>
<rect x="52" y="36" width="32" height="28" fill="#5A4880"/>
<rect x="54" y="34" width="28" height="28" fill="#644E8A"/>
<rect x="56" y="32" width="24" height="28" fill="#5A4A84"/>
<rect x="58" y="30" width="20" height="28" fill="#6C5490"/>
<rect x="60" y="34" width="12" height="20" fill="#8868A8"/>
<rect x="62" y="36" width="8" height="16" fill="#9878B8"/>
<rect x="64" y="38" width="4" height="10" fill="#A888C4"/>
<rect x="64" y="36" width="6" height="4" fill="#C0A8D8"/>
<rect x="82" y="40" width="24" height="24" fill="#C8E0D4"/>
<rect x="84" y="38" width="20" height="26" fill="#D0E8DC"/>
<rect x="86" y="36" width="16" height="26" fill="#D8F0E4"/>
<rect x="88" y="34" width="12" height="26" fill="#D0E8DC"/>
<rect x="88" y="38" width="8" height="18" fill="#E0F4EC"/>
<rect x="89" y="40" width="6" height="14" fill="#ECF8F4"/>
<rect x="90" y="42" width="4" height="8" fill="#F4FCF8"/>
<rect x="90" y="38" width="4" height="4" fill="#FFFFFF"/>
<rect x="8" y="62" width="90" height="6" fill="#2A5C48"/>
<rect x="10" y="64" width="86" height="4" fill="#30644E"/>
<rect x="8" y="56" width="16" height="6" fill="#3A9090"/>
<rect x="52" y="58" width="32" height="4" fill="#3A9090"/>
<rect x="82" y="60" width="24" height="2" fill="#3A9090"/>
<rect x="108" y="62" width="104" height="20" fill="#3A6850"/>
<rect x="116" y="26" width="50" height="38" fill="#1A4028"/>
<rect x="118" y="24" width="46" height="40" fill="#203828"/>
<rect x="120" y="22" width="42" height="38" fill="#1A4028"/>
<rect x="122" y="20" width="38" height="38" fill="#223C2A"/>
<rect x="124" y="18" width="34" height="38" fill="#1A4028"/>
<rect x="122" y="20" width="16" height="10" fill="#2E5838"/>
<rect x="124" y="18" width="12" height="8" fill="#386040"/>
<rect x="126" y="16" width="8" height="6" fill="#3A5C3C"/>
<rect x="118" y="28" width="44" height="2" fill="#142E1E"/>
<rect x="118" y="32" width="44" height="2" fill="#142E1E"/>
<rect x="118" y="36" width="44" height="2" fill="#142E1E"/>
<rect x="118" y="40" width="44" height="2" fill="#142E1E"/>
<rect x="118" y="44" width="44" height="2" fill="#142E1E"/>
<rect x="118" y="48" width="44" height="2" fill="#142E1E"/>
<rect x="118" y="52" width="44" height="2" fill="#142E1E"/>
<rect x="166" y="34" width="34" height="28" fill="#1E4830"/>
<rect x="168" y="32" width="30" height="30" fill="#244C34"/>
<rect x="170" y="30" width="26" height="30" fill="#1E4830"/>
<rect x="172" y="28" width="22" height="30" fill="#264E36"/>
<rect x="170" y="30" width="10" height="8" fill="#305A3C"/>
<rect x="172" y="28" width="6" height="6" fill="#3A6048"/>
<rect x="118" y="20" width="12" height="4" fill="#1A3824"/>
<rect x="166" y="30" width="12" height="4" fill="#1A3824"/>
<rect x="116" y="58" width="50" height="4" fill="#3A9090"/>
<rect x="166" y="60" width="34" height="2" fill="#3A9090"/>
<rect x="116" y="62" width="86" height="6" fill="#2A5038"/>
<rect x="118" y="64" width="82" height="4" fill="#30584E"/>
<rect x="212" y="62" width="108" height="20" fill="#4A6030"/>
<rect x="218" y="28" width="50" height="36" fill="#5A7828"/>
<rect x="220" y="24" width="46" height="36" fill="#607C2C"/>
<rect x="222" y="22" width="42" height="38" fill="#5A7828"/>
<rect x="224" y="20" width="38" height="36" fill="#648030"/>
<rect x="226" y="18" width="34" height="36" fill="#5A7828"/>
<rect x="226" y="20" width="14" height="8" fill="#707A38"/>
<rect x="228" y="18" width="10" height="6" fill="#787E3E"/>
<rect x="222" y="30" width="8" height="8" fill="#4A6820"/>
<rect x="232" y="34" width="10" height="8" fill="#4A6820"/>
<rect x="218" y="44" width="8" height="8" fill="#4A6820"/>
<rect x="240" y="40" width="10" height="10" fill="#4A6820"/>
<rect x="225" y="50" width="12" height="6" fill="#4A6820"/>
<rect x="226" y="32" width="6" height="6" fill="#6A8430"/>
<rect x="236" y="36" width="8" height="6" fill="#6A8430"/>
<rect x="220" y="46" width="6" height="6" fill="#6A8430"/>
<rect x="268" y="32" width="38" height="30" fill="#5A7828"/>
<rect x="270" y="30" width="34" height="30" fill="#607C2C"/>
<rect x="272" y="28" width="30" height="30" fill="#5A7828"/>
<rect x="274" y="26" width="26" height="30" fill="#648030"/>
<rect x="272" y="32" width="8" height="6" fill="#4A6820"/>
<rect x="280" y="36" width="8" height="6" fill="#4A6820"/>
<rect x="270" y="42" width="8" height="6" fill="#4A6820"/>
<rect x="278" y="44" width="8" height="6" fill="#6A8430"/>
<rect x="272" y="46" width="6" height="4" fill="#6A8430"/>
<rect x="218" y="58" width="50" height="4" fill="#3A9090"/>
<rect x="268" y="60" width="38" height="2" fill="#3A9090"/>
<rect x="218" y="62" width="90" height="6" fill="#3A5028"/>
<rect x="220" y="64" width="86" height="4" fill="#405828"/>
<rect x="108" y="62" width="4" height="18" fill="#2A4020"/>
<rect x="212" y="62" width="4" height="18" fill="#2A4020"/>
<rect x="12" y="56" width="4" height="3" fill="#8A8060"/>
<rect x="20" y="56" width="4" height="3" fill="#8A8060"/>
<rect x="28" y="56" width="4" height="3" fill="#8A8060"/>
<rect x="36" y="56" width="4" height="3" fill="#8A8060"/>
<rect x="44" y="56" width="4" height="3" fill="#8A8060"/>
<rect x="52" y="56" width="4" height="3" fill="#8A8060"/>
<rect x="60" y="56" width="4" height="3" fill="#8A8060"/>
<rect x="68" y="56" width="4" height="3" fill="#8A8060"/>
<rect x="76" y="56" width="4" height="3" fill="#8A8060"/>
<rect x="84" y="56" width="4" height="3" fill="#8A8060"/>
<rect x="92" y="56" width="4" height="3" fill="#8A8060"/>
<rect x="100" y="56" width="4" height="3" fill="#8A8060"/>
<rect x="120" y="56" width="4" height="3" fill="#8A8060"/>
<rect x="128" y="56" width="4" height="3" fill="#8A8060"/>
<rect x="136" y="56" width="4" height="3" fill="#8A8060"/>
<rect x="144" y="56" width="4" height="3" fill="#8A8060"/>
<rect x="152" y="56" width="4" height="3" fill="#8A8060"/>
<rect x="160" y="56" width="4" height="3" fill="#8A8060"/>
<rect x="168" y="56" width="4" height="3" fill="#8A8060"/>
<rect x="176" y="56" width="4" height="3" fill="#8A8060"/>
<rect x="184" y="56" width="4" height="3" fill="#8A8060"/>
<rect x="192" y="56" width="4" height="3" fill="#8A8060"/>
<rect x="200" y="56" width="4" height="3" fill="#8A8060"/>
<rect x="208" y="56" width="4" height="3" fill="#8A8060"/>
<rect x="222" y="56" width="4" height="3" fill="#8A8060"/>
<rect x="230" y="56" width="4" height="3" fill="#8A8060"/>
<rect x="238" y="56" width="4" height="3" fill="#8A8060"/>
<rect x="246" y="56" width="4" height="3" fill="#8A8060"/>
<rect x="254" y="56" width="4" height="3" fill="#8A8060"/>
<rect x="262" y="56" width="4" height="3" fill="#8A8060"/>
<rect x="270" y="56" width="4" height="3" fill="#8A8060"/>
<rect x="278" y="56" width="4" height="3" fill="#8A8060"/>
<rect x="286" y="56" width="4" height="3" fill="#8A8060"/>
<rect x="294" y="56" width="4" height="3" fill="#8A8060"/>
<rect x="302" y="56" width="4" height="3" fill="#8A8060"/>
<rect x="0" y="62" width="15" height="118" fill="#1A3820"/>
<rect x="0" y="65" width="12" height="115" fill="#1E3C22"/>
<rect x="305" y="62" width="15" height="118" fill="#1A3820"/>
<rect x="308" y="65" width="12" height="115" fill="#1E3C22"/></svg>