<?xml version="1.0" encoding="UTF-8" standalone="no"?>
<svg viewBox="0 0 48 48" shape-rendering="crispEdges" width="96" height="96" id="churinga" sodipodi:docname="6_1_churinga.svg" inkscape:version="1.4.3 (0d15f75, 2025-12-25)" xmlns:inkscape="http://www.inkscape.org/namespaces/inkscape" xmlns:sodipodi="http://sodipodi.sourceforge.net/DTD/sodipodi-0.0.dtd" xmlns="http://www.w3.org/2000/svg"><defs/><rect x="4" y="44" width="40" height="4" fill="#B84820"/><rect x="6" y="45" width="36" height="3" fill="#A84018"/><rect x="5" y="44" width="3" height="2" fill="#CC5830"/><rect x="12" y="45" width="4" height="2" fill="#BC4C22"/><rect x="22" y="44" width="3" height="2" fill="#CC5830"/><rect x="32" y="45" width="4" height="2" fill="#BC4C22"/><rect x="40" y="44" width="3" height="2" fill="#CC5830"/><rect x="6" y="44" width="36" height="2" fill="#9A3C10"/><rect x="8" y="43" width="32" height="2" fill="#8A3408"/><rect x="8" y="6" width="32" height="38" fill="#B86030"/><rect x="9" y="4" width="30" height="38" fill="#C06838"/><rect x="10" y="2" width="28" height="40" fill="#CA7040"/><rect x="11" y="2" width="26" height="38" fill="#C06838"/><rect x="12" y="0" width="24" height="42" fill="#CA7040"/><rect x="13" y="0" width="22" height="40" fill="#C86C3C"/><rect x="12" y="2" width="24" height="36" fill="#D07848"/><rect x="14" y="4" width="20" height="34" fill="#C87040"/><rect x="16" y="6" width="16" height="30" fill="#D07848"/><rect x="12" y="4" width="4" height="34" fill="#B86030"/><rect x="16" y="2" width="4" height="36" fill="#C86838"/><rect x="20" y="4" width="4" height="34" fill="#B86030"/><rect x="24" y="2" width="4" height="36" fill="#C86838"/><rect x="28" y="4" width="4" height="34" fill="#B86030"/><rect x="32" y="6" width="4" height="32" fill="#C86838"/><rect x="8" y="10" width="3" height="28" fill="#9A4820"/><rect x="9" y="8" width="2" height="32" fill="#A85028"/><rect x="9" y="10" width="2" height="28" fill="#C07040"/><rect x="37" y="10" width="3" height="28" fill="#9A4820"/><rect x="37" y="8" width="2" height="32" fill="#A85028"/><rect x="37" y="10" width="2" height="28" fill="#C07040"/><rect x="12" y="2" width="24" height="4" fill="#BE6434"/><rect x="13" y="0" width="22" height="3" fill="#CA6C3C"/><rect x="14" y="0" width="20" height="2" fill="#D47448"/><rect x="12" y="38" width="24" height="4" fill="#BE6434"/><rect x="13" y="40" width="22" height="3" fill="#CA6C3C"/><rect x="14" y="42" width="20" height="2" fill="#D47448"/><rect x="20" y="14" width="8" height="1" fill="#8A4020"/><rect x="20" y="15" width="1" height="8" fill="#8A4020"/><rect x="27" y="15" width="1" height="8" fill="#8A4020"/><rect x="20" y="22" width="8" height="1" fill="#8A4020"/><rect x="22" y="16" width="1" height="6" fill="#A85028"/><rect x="22" y="17" width="5" height="1" fill="#A85028"/><rect x="26" y="17" width="1" height="5" fill="#A85028"/><rect x="22" y="21" width="5" height="1" fill="#A85028"/><rect x="24" y="18" width="1" height="3" fill="#C06030"/><rect x="24" y="19" width="2" height="1" fill="#C06030"/><rect x="25" y="19" width="1" height="3" fill="#C06030"/><rect x="30" y="10" width="6" height="1" fill="#8A4020"/><rect x="30" y="11" width="1" height="5" fill="#8A4020"/><rect x="35" y="11" width="1" height="5" fill="#8A4020"/><rect x="30" y="15" width="6" height="1" fill="#8A4020"/><rect x="31" y="12" width="1" height="3" fill="#A85028"/><rect x="31" y="13" width="4" height="1" fill="#A85028"/><rect x="34" y="12" width="1" height="3" fill="#A85028"/><rect x="31" y="14" width="4" height="1" fill="#A85028"/><rect x="32" y="13" width="1" height="1" fill="#C06030"/><rect x="12" y="10" width="6" height="1" fill="#8A4020"/><rect x="12" y="11" width="1" height="5" fill="#8A4020"/><rect x="17" y="11" width="1" height="5" fill="#8A4020"/><rect x="12" y="15" width="6" height="1" fill="#8A4020"/><rect x="13" y="12" width="1" height="3" fill="#A85028"/><rect x="13" y="13" width="4" height="1" fill="#A85028"/><rect x="16" y="12" width="1" height="3" fill="#A85028"/><rect x="13" y="14" width="4" height="1" fill="#A85028"/><rect x="14" y="13" width="1" height="1" fill="#C06030"/><rect x="10" y="26" width="28" height="1" fill="#8A4020"/><rect x="10" y="28" width="28" height="1" fill="#8A4020"/><rect x="10" y="30" width="28" height="1" fill="#8A4020"/><rect x="11" y="25" width="26" height="1" fill="#A85028"/><rect x="11" y="27" width="26" height="1" fill="#A85028"/><rect x="11" y="29" width="26" height="1" fill="#A85028"/><rect x="11" y="31" width="26" height="1" fill="#A85028"/><rect x="12" y="34" width="4" height="1" fill="#8A4020"/><rect x="16" y="33" width="4" height="1" fill="#8A4020"/><rect x="20" y="34" width="4" height="1" fill="#8A4020"/><rect x="24" y="33" width="4" height="1" fill="#8A4020"/><rect x="28" y="34" width="4" height="1" fill="#8A4020"/><rect x="32" y="33" width="4" height="1" fill="#8A4020"/><rect x="13" y="34" width="2" height="1" fill="#A85028"/><rect x="17" y="33" width="2" height="1" fill="#A85028"/><rect x="21" y="34" width="2" height="1" fill="#A85028"/><rect x="25" y="33" width="2" height="1" fill="#A85028"/><rect x="29" y="34" width="2" height="1" fill="#A85028"/><rect x="20" y="8" width="2" height="2" fill="#7A3818"/><rect x="22" y="6" width="2" height="2" fill="#7A3818"/><rect x="24" y="8" width="2" height="2" fill="#7A3818"/><rect x="26" y="6" width="2" height="2" fill="#7A3818"/><rect x="28" y="8" width="2" height="2" fill="#7A3818"/><rect x="18" y="10" width="2" height="2" fill="#7A3818"/><rect x="30" y="10" width="2" height="2" fill="#7A3818"/><rect x="16" y="12" width="2" height="2" fill="#7A3818"/><rect x="20" y="10" width="2" height="2" fill="#AA5028"/><rect x="24" y="10" width="2" height="2" fill="#AA5028"/><rect x="28" y="12" width="2" height="2" fill="#AA5028"/><rect x="6" y="4" width="2" height="38" fill="#7A3010"/><rect x="40" y="4" width="2" height="38" fill="#7A3010"/><rect x="12" y="0" width="24" height="2" fill="#7A3010"/><rect x="12" y="42" width="24" height="2" fill="#7A3010"/><rect x="20" y="18" width="8" height="4" fill="#E0A060"/><rect x="22" y="16" width="4" height="2" fill="#E8A868"/><rect x="22" y="16" width="4" height="8" fill="#D89858"/><rect x="23" y="16" width="2" height="6" fill="#E0A060"/><rect x="24" y="17" width="1" height="4" fill="#EAA868"/></svg>