<?xml version="1.0" encoding="UTF-8" standalone="no"?>
<svg viewBox="0 0 48 48" shape-rendering="crispEdges" width="96" height="96" id="wombat" sodipodi:docname="6_1_wombat.svg" inkscape:version="1.4.3 (0d15f75, 2025-12-25)" xmlns:inkscape="http://www.inkscape.org/namespaces/inkscape" xmlns:sodipodi="http://sodipodi.sourceforge.net/DTD/sodipodi-0.0.dtd" xmlns="http://www.w3.org/2000/svg"><defs/><rect x="0" y="38" width="48" height="10" fill="#B84820"/><rect x="0" y="38" width="48" height="4" fill="#C85228"/><rect x="0" y="44" width="48" height="4" fill="#A84018"/><rect x="0" y="42" width="48" height="2" fill="#E8E0D0"/><rect x="2" y="40" width="18" height="8" fill="#1A1008"/><rect x="4" y="39" width="14" height="8" fill="#140C04"/><rect x="5" y="40" width="11" height="6" fill="#100A04"/><rect x="0" y="40" width="4" height="8" fill="#C8B8A0"/><rect x="0" y="38" width="6" height="4" fill="#D4C4AC"/><rect x="18" y="40" width="6" height="8" fill="#C8B8A0"/><rect x="20" y="38" width="5" height="4" fill="#D4C4AC"/><rect x="1" y="42" width="3" height="2" fill="#E0D8C8"/><rect x="16" y="41" width="3" height="2" fill="#E0D8C8"/><rect x="22" y="40" width="2" height="2" fill="#E4DCD0"/><rect x="34" y="38" width="4" height="4" fill="#3A2C18"/><rect x="35" y="37" width="3" height="3" fill="#4A3820"/><rect x="36" y="38" width="2" height="2" fill="#382814"/><rect x="40" y="36" width="4" height="4" fill="#3A2C18"/><rect x="41" y="35" width="3" height="3" fill="#4A3820"/><rect x="42" y="36" width="2" height="2" fill="#382814"/><rect x="37" y="42" width="4" height="4" fill="#3A2C18"/><rect x="38" y="41" width="3" height="3" fill="#4A3820"/><rect x="32" y="40" width="16" height="6" fill="#706858"/><rect x="33" y="39" width="14" height="4" fill="#808070"/><rect x="34" y="38" width="12" height="3" fill="#8A8878"/><rect x="10" y="14" width="30" height="28" fill="#7A6040"/><rect x="12" y="12" width="26" height="28" fill="#8A6C48"/><rect x="14" y="10" width="22" height="28" fill="#907050"/><rect x="16" y="8" width="18" height="28" fill="#8A6C48"/><rect x="18" y="6" width="14" height="28" fill="#907050"/><rect x="12" y="14" width="4" height="22" fill="#6A5030"/><rect x="16" y="12" width="4" height="24" fill="#7A5C38"/><rect x="20" y="10" width="4" height="24" fill="#6A5030"/><rect x="24" y="12" width="4" height="22" fill="#7A5C38"/><rect x="28" y="14" width="4" height="20" fill="#6A5030"/><rect x="32" y="16" width="4" height="18" fill="#7A5C38"/><rect x="36" y="18" width="4" height="16" fill="#6A5030"/><rect x="12" y="14" width="2" height="2" fill="#A09080"/><rect x="16" y="12" width="2" height="2" fill="#A09080"/><rect x="20" y="10" width="2" height="2" fill="#A09080"/><rect x="24" y="12" width="2" height="2" fill="#A09080"/><rect x="28" y="14" width="2" height="2" fill="#A09080"/><rect x="32" y="16" width="2" height="2" fill="#A09080"/><rect x="36" y="18" width="2" height="2" fill="#A09080"/><rect x="14" y="18" width="2" height="2" fill="#B0A090"/><rect x="18" y="16" width="2" height="2" fill="#B0A090"/><rect x="22" y="14" width="2" height="2" fill="#B0A090"/><rect x="26" y="16" width="2" height="2" fill="#B0A090"/><rect x="30" y="18" width="2" height="2" fill="#B0A090"/><rect x="34" y="20" width="2" height="2" fill="#B0A090"/><rect x="16" y="28" width="16" height="12" fill="#908070"/><rect x="18" y="30" width="12" height="10" fill="#A09080"/><rect x="8" y="8" width="20" height="14" fill="#7A6040"/><rect x="9" y="6" width="18" height="12" fill="#8A6C48"/><rect x="10" y="4" width="16" height="12" fill="#907050"/><rect x="11" y="2" width="14" height="12" fill="#8A6C48"/><rect x="12" y="0" width="12" height="12" fill="#907050"/><rect x="10" y="4" width="16" height="4" fill="#9A7858"/><rect x="11" y="2" width="14" height="3" fill="#AA8460"/><rect x="12" y="1" width="12" height="2" fill="#A07858"/><rect x="10" y="4" width="2" height="8" fill="#6A5030"/><rect x="14" y="2" width="2" height="8" fill="#7A5C38"/><rect x="18" y="4" width="2" height="8" fill="#6A5030"/><rect x="22" y="2" width="2" height="8" fill="#7A5C38"/><rect x="10" y="2" width="6" height="6" fill="#7A6040"/><rect x="11" y="0" width="5" height="4" fill="#8A6C48"/><rect x="12" y="0" width="4" height="3" fill="#907050"/><rect x="12" y="1" width="3" height="2" fill="#C0B0A0"/><rect x="22" y="2" width="6" height="6" fill="#7A6040"/><rect x="22" y="0" width="5" height="4" fill="#8A6C48"/><rect x="22" y="0" width="4" height="3" fill="#907050"/><rect x="23" y="1" width="3" height="2" fill="#C0B0A0"/><rect x="12" y="6" width="4" height="3" fill="#100C08"/><rect x="13" y="7" width="2" height="2" fill="#1C1810"/><rect x="13" y="7" width="1" height="1" fill="#D0A030"/><rect x="20" y="6" width="4" height="3" fill="#100C08"/><rect x="21" y="7" width="2" height="2" fill="#1C1810"/><rect x="21" y="7" width="1" height="1" fill="#D0A030"/><rect x="14" y="12" width="10" height="6" fill="#5A4430"/><rect x="15" y="11" width="8" height="5" fill="#6A5038"/><rect x="16" y="12" width="6" height="4" fill="#7A5C40"/><rect x="15" y="13" width="3" height="3" fill="#281C10"/><rect x="20" y="13" width="3" height="3" fill="#281C10"/><rect x="16" y="14" width="2" height="2" fill="#1A1208"/><rect x="21" y="14" width="2" height="2" fill="#1A1208"/><rect x="15" y="16" width="10" height="1" fill="#4A3828"/><rect x="16" y="17" width="8" height="1" fill="#3A2C20"/><rect x="10" y="14" width="1" height="1" fill="#5A4838"/><rect x="13" y="14" width="1" height="1" fill="#5A4838"/><rect x="16" y="13" width="1" height="1" fill="#5A4838"/><rect x="10" y="15" width="1" height="1" fill="#5A4838"/><rect x="13" y="15" width="1" height="1" fill="#5A4838"/><rect x="12" y="34" width="8" height="12" fill="#7A6040"/><rect x="13" y="33" width="6" height="11" fill="#8A6C48"/><rect x="12" y="36" width="8" height="3" fill="#6A5030"/><rect x="11" y="44" width="3" height="4" fill="#3A3028"/><rect x="13" y="44" width="3" height="4" fill="#3A3028"/><rect x="15" y="44" width="3" height="4" fill="#3A3028"/><rect x="12" y="43" width="2" height="2" fill="#4A4038"/><rect x="14" y="43" width="2" height="2" fill="#4A4038"/><rect x="16" y="43" width="2" height="2" fill="#4A4038"/><rect x="26" y="34" width="10" height="12" fill="#7A6040"/><rect x="27" y="33" width="8" height="11" fill="#8A6C48"/><rect x="26" y="36" width="10" height="3" fill="#6A5030"/><rect x="25" y="44" width="3" height="4" fill="#3A3028"/><rect x="28" y="44" width="3" height="4" fill="#3A3028"/><rect x="31" y="44" width="3" height="4" fill="#3A3028"/><rect x="26" y="43" width="2" height="2" fill="#4A4038"/><rect x="29" y="43" width="2" height="2" fill="#4A4038"/><rect x="32" y="43" width="2" height="2" fill="#4A4038"/><rect x="36" y="20" width="12" height="20" fill="#7A6040"/><rect x="37" y="18" width="11" height="20" fill="#8A6C48"/><rect x="38" y="16" width="10" height="20" fill="#907050"/><rect x="38" y="16" width="10" height="4" fill="#9A7858"/><rect x="36" y="20" width="3" height="18" fill="#6A5030"/><rect x="39" y="24" width="9" height="14" fill="#988070"/><rect x="40" y="22" width="8" height="12" fill="#A08878"/><rect x="40" y="24" width="8" height="10" fill="#A89080"/><rect x="41" y="24" width="6" height="10" fill="#B09888"/></svg>