<?xml version="1.0" encoding="UTF-8" standalone="no"?>
<svg
   width="1456"
   height="838.79999"
   viewBox="0 0 1456 838.79999"
   version="1.1"
   id="svg288"
   sodipodi:docname="cena4_conclusao.svg"
   inkscape:version="1.4.3 (0d15f75, 2025-12-25)"
   xmlns:inkscape="http://www.inkscape.org/namespaces/inkscape"
   xmlns:sodipodi="http://sodipodi.sourceforge.net/DTD/sodipodi-0.dtd"
   xmlns:xlink="http://www.w3.org/1999/xlink"
   xmlns="http://www.w3.org/2000/svg"
   xmlns:svg="http://www.w3.org/2000/svg">
  <sodipodi:namedview
     id="namedview288"
     pagecolor="#ffffff"
     bordercolor="#000000"
     borderopacity="0.25"
     inkscape:showpageshadow="2"
     inkscape:pageopacity="0.0"
     inkscape:pagecheckerboard="0"
     inkscape:deskcolor="#d1d1d1"
     inkscape:zoom="0.64"
     inkscape:cx="925.78125"
     inkscape:cy="266.40625"
     inkscape:window-width="1920"
     inkscape:window-height="1001"
     inkscape:window-x="-9"
     inkscape:window-y="-9"
     inkscape:window-maximized="1"
     inkscape:current-layer="svg288" />
  <defs
     id="defs30">
    <pattern
       inkscape:collect="always"
       xlink:href="#brkSub"
       id="pattern289"
       patternTransform="scale(1)" />
    <pattern
       inkscape:collect="always"
       xlink:href="#brkCoal"
       id="pattern288"
       patternTransform="scale(1)" />
    <pattern
       id="brkCoal"
       x="0"
       y="0"
       width="64"
       height="20"
       patternUnits="userSpaceOnUse">
      <rect
         width="64"
         height="20"
         fill="#1A1A14"
         id="rect1" />
      <rect
         width="64"
         height="1"
         fill="#0E0E0A"
         id="rect2" />
      <rect
         y="10"
         width="64"
         height="1"
         fill="#0E0E0A"
         id="rect3" />
      <rect
         width="1"
         height="10"
         fill="#0E0E0A"
         id="rect4" />
      <rect
         x="63"
         width="1"
         height="10"
         fill="#0E0E0A"
         id="rect5" />
      <rect
         x="32"
         y="10"
         width="1"
         height="10"
         fill="#0E0E0A"
         id="rect6" />
    </pattern>
    <pattern
       id="brkShale"
       x="0"
       y="0"
       width="64"
       height="20"
       patternUnits="userSpaceOnUse">
      <rect
         width="64"
         height="20"
         fill="#363634"
         id="rect7" />
      <rect
         width="64"
         height="1"
         fill="#262624"
         id="rect8" />
      <rect
         y="10"
         width="64"
         height="1"
         fill="#262624"
         id="rect9" />
      <rect
         width="1"
         height="10"
         fill="#262624"
         id="rect10" />
      <rect
         x="63"
         width="1"
         height="10"
         fill="#262624"
         id="rect11" />
      <rect
         x="32"
         y="10"
         width="1"
         height="10"
         fill="#262624"
         id="rect12" />
    </pattern>
    <pattern
       id="brkPlt"
       x="0"
       y="0"
       width="48"
       height="24"
       patternUnits="userSpaceOnUse">
      <rect
         width="48"
         height="24"
         fill="#7A6A50"
         id="rect13" />
      <rect
         width="48"
         height="1"
         fill="#5A4A38"
         id="rect14" />
      <rect
         y="12"
         width="48"
         height="1"
         fill="#5A4A38"
         id="rect15" />
      <rect
         width="1"
         height="12"
         fill="#5A4A38"
         id="rect16" />
      <rect
         x="47"
         width="1"
         height="12"
         fill="#5A4A38"
         id="rect17" />
      <rect
         x="24"
         y="12"
         width="1"
         height="12"
         fill="#5A4A38"
         id="rect18" />
    </pattern>
    <pattern
       id="brkMine"
       x="0"
       y="0"
       width="48"
       height="24"
       patternUnits="userSpaceOnUse">
      <rect
         width="48"
         height="24"
         fill="#3C3A32"
         id="rect19" />
      <rect
         width="48"
         height="1"
         fill="#2A2824"
         id="rect20" />
      <rect
         y="12"
         width="48"
         height="1"
         fill="#2A2824"
         id="rect21" />
      <rect
         width="1"
         height="12"
         fill="#2A2824"
         id="rect22" />
      <rect
         x="47"
         width="1"
         height="12"
         fill="#2A2824"
         id="rect23" />
      <rect
         x="24"
         y="12"
         width="1"
         height="12"
         fill="#2A2824"
         id="rect24" />
    </pattern>
    <pattern
       id="brkSub"
       x="0"
       y="0"
       width="64"
       height="20"
       patternUnits="userSpaceOnUse">
      <rect
         width="64"
         height="20"
         fill="#141412"
         id="rect25" />
      <rect
         width="64"
         height="1"
         fill="#0C0C0A"
         id="rect26" />
      <rect
         y="10"
         width="64"
         height="1"
         fill="#0C0C0A"
         id="rect27" />
      <rect
         width="1"
         height="10"
         fill="#0C0C0A"
         id="rect28" />
      <rect
         x="63"
         width="1"
         height="10"
         fill="#0C0C0A"
         id="rect29" />
      <rect
         x="32"
         y="10"
         width="1"
         height="10"
         fill="#0C0C0A"
         id="rect30" />
    </pattern>
  </defs>
  <rect
     x="0"
     y="0"
     width="1456"
     height="816"
     fill="#0e0808"
     id="rect31" />
  <rect
     x="0"
     y="0"
     width="1456"
     height="81.599998"
     fill="#160806"
     id="rect32" />
  <rect
     x="0"
     y="65.300003"
     width="1456"
     height="114.2"
     fill="#280e08"
     id="rect33" />
  <rect
     x="0"
     y="146.89999"
     width="1456"
     height="114.2"
     fill="#3c1208"
     id="rect34" />
  <rect
     x="0"
     y="228.5"
     width="1456"
     height="97.900002"
     fill="#521810"
     id="rect35" />
  <rect
     x="0"
     y="293.79999"
     width="1456"
     height="81.599998"
     fill="#642010"
     id="rect36" />
  <rect
     x="0"
     y="359"
     width="1456"
     height="65.300003"
     fill="#562018"
     id="rect37" />
  <rect
     x="0"
     y="408"
     width="1456"
     height="65.300003"
     fill="#4a1c14"
     id="rect38" />
  <rect
     x="0"
     y="457"
     width="1456"
     height="65.300003"
     fill="#3a1810"
     id="rect39" />
  <rect
     x="0"
     y="505.89999"
     width="1456"
     height="49"
     fill="#2a1208"
     id="rect40" />
  <ellipse
     cx="800.79999"
     cy="277.39999"
     rx="280"
     ry="50"
     fill="#6a1408"
     fill-opacity="0.5"
     id="ellipse40" />
  <ellipse
     cx="800.79999"
     cy="277.39999"
     rx="200"
     ry="35"
     fill="#7a1c0c"
     fill-opacity="0.55"
     id="ellipse41" />
  <ellipse
     cx="800.79999"
     cy="277.39999"
     rx="130"
     ry="22"
     fill="#921e0c"
     fill-opacity="0.6"
     id="ellipse42" />
  <ellipse
     cx="800.79999"
     cy="277.39999"
     rx="72"
     ry="14"
     fill="#b02810"
     fill-opacity="0.7"
     id="ellipse43" />
  <ellipse
     cx="800.79999"
     cy="277.39999"
     rx="34"
     ry="8"
     fill="#d03818"
     fill-opacity="0.8"
     id="ellipse44" />
  <ellipse
     cx="200"
     cy="97.900002"
     rx="180"
     ry="38"
     fill="#2a2220"
     fill-opacity="0.65"
     id="ellipse45" />
  <ellipse
     cx="500"
     cy="81.599998"
     rx="210"
     ry="42"
     fill="#2a2220"
     fill-opacity="0.6"
     id="ellipse46" />
  <ellipse
     cx="780"
     cy="114.2"
     rx="160"
     ry="32"
     fill="#2a2220"
     fill-opacity="0.7"
     id="ellipse47" />
  <ellipse
     cx="1060"
     cy="73.400002"
     rx="195"
     ry="40"
     fill="#2a2220"
     fill-opacity="0.65"
     id="ellipse48" />
  <ellipse
     cx="1276.5225"
     cy="106.1"
     rx="170"
     ry="35"
     fill="#2a2220"
     fill-opacity="0.6"
     id="ellipse49" />
  <ellipse
     cx="350"
     cy="179.5"
     rx="220"
     ry="45"
     fill="#2a2220"
     fill-opacity="0.55"
     id="ellipse50" />
  <ellipse
     cx="700"
     cy="163.2"
     rx="200"
     ry="40"
     fill="#2a2220"
     fill-opacity="0.5"
     id="ellipse51" />
  <ellipse
     cx="1100"
     cy="146.89999"
     rx="185"
     ry="38"
     fill="#2a2220"
     fill-opacity="0.55"
     id="ellipse52" />
  <polygon
     points="724.3,240 124.3,240 388.3,277.4 460.3,277.4 "
     fill="#161410"
     id="polygon52" />
  <polygon
     points="684.3,370 164.3,370 393.1,220.3 455.5,220.3 "
     fill="#161410"
     id="polygon53" />
  <polygon
     points="674.3,680 174.3,680 394.3,171.4 454.3,171.4 "
     fill="#161410"
     id="polygon54" />
  <polygon
     points="797.5,160 377.5,160 562.3,301.9 612.7,301.9 "
     fill="#1a1410"
     id="polygon58" />
  <polygon
     points="797.5,420 377.5,420 562.3,236.6 612.7,236.6 "
     fill="#221810"
     id="polygon59" />
  <polygon
     points="787.5,700 387.5,700 563.5,285.6 611.5,285.6 "
     fill="#1a1410"
     id="polygon60" />
  <ellipse
     cx="32.896553"
     cy="567.79999"
     rx="31.200001"
     ry="24.299999"
     fill="#162010"
     id="ellipse63" />
  <ellipse
     cx="33.026821"
     cy="566.59082"
     rx="28.1"
     ry="22"
     fill="#10160c"
     id="ellipse64" />
  <ellipse
     cx="23.799999"
     cy="564"
     rx="21.299999"
     ry="17.5"
     fill="#181e12"
     id="ellipse65" />
  <ellipse
     cx="25.166283"
     cy="565.5"
     rx="14.4"
     ry="12.2"
     fill="#10160c"
     id="ellipse66" />
  <rect
     x="16.6"
     y="584.5"
     width="6.8000002"
     height="16.700001"
     fill="#2a1808"
     id="rect66" />
  <ellipse
     cx="70"
     cy="565.20001"
     rx="35.299999"
     ry="27.5"
     fill="#162010"
     id="ellipse67" />
  <ellipse
     cx="70"
     cy="563.40002"
     rx="31.799999"
     ry="24.9"
     fill="#10160c"
     id="ellipse68" />
  <ellipse
     cx="74.300003"
     cy="560.90002"
     rx="24.1"
     ry="19.799999"
     fill="#181e12"
     id="ellipse69" />
  <ellipse
     cx="61.400002"
     cy="562.59998"
     rx="16.299999"
     ry="13.8"
     fill="#10160c"
     id="ellipse70" />
  <rect
     x="66.099998"
     y="584.09998"
     width="7.6999998"
     height="18.9"
     fill="#2a1808"
     id="rect70" />
  <ellipse
     cx="130"
     cy="562.59998"
     rx="39.400002"
     ry="30.700001"
     fill="#162010"
     id="ellipse71" />
  <ellipse
     cx="130"
     cy="560.59998"
     rx="35.5"
     ry="27.799999"
     fill="#10160c"
     id="ellipse72" />
  <ellipse
     cx="134.8"
     cy="557.79999"
     rx="26.9"
     ry="22.1"
     fill="#181e12"
     id="ellipse73" />
  <ellipse
     cx="120.4"
     cy="559.70001"
     rx="18.200001"
     ry="15.4"
     fill="#10160c"
     id="ellipse74" />
  <rect
     x="125.7"
     y="583.70001"
     width="8.6000004"
     height="21.1"
     fill="#2a1808"
     id="rect74" />
  <ellipse
     cx="195"
     cy="567.79999"
     rx="31.200001"
     ry="24.299999"
     fill="#162010"
     id="ellipse75" />
  <ellipse
     cx="195"
     cy="566.20001"
     rx="28.1"
     ry="22"
     fill="#10160c"
     id="ellipse76" />
  <ellipse
     cx="198.8"
     cy="564"
     rx="21.299999"
     ry="17.5"
     fill="#181e12"
     id="ellipse77" />
  <ellipse
     cx="187.39999"
     cy="565.5"
     rx="14.4"
     ry="12.2"
     fill="#10160c"
     id="ellipse78" />
  <rect
     x="191.60001"
     y="584.5"
     width="6.8000002"
     height="16.700001"
     fill="#2a1808"
     id="rect78" />
  <ellipse
     cx="260"
     cy="565.20001"
     rx="35.299999"
     ry="27.5"
     fill="#162010"
     id="ellipse79" />
  <ellipse
     cx="260"
     cy="563.40002"
     rx="31.799999"
     ry="24.9"
     fill="#10160c"
     id="ellipse80" />
  <ellipse
     cx="264.29999"
     cy="560.90002"
     rx="24.1"
     ry="19.799999"
     fill="#181e12"
     id="ellipse81" />
  <ellipse
     cx="251.39999"
     cy="562.59998"
     rx="16.299999"
     ry="13.8"
     fill="#10160c"
     id="ellipse82" />
  <rect
     x="256.10001"
     y="584.09998"
     width="7.6999998"
     height="18.9"
     fill="#2a1808"
     id="rect82" />
  <ellipse
     cx="1060"
     cy="562.59998"
     rx="39.400002"
     ry="30.700001"
     fill="#162010"
     id="ellipse83" />
  <ellipse
     cx="1060"
     cy="560.59998"
     rx="35.5"
     ry="27.799999"
     fill="#10160c"
     id="ellipse84" />
  <ellipse
     cx="1064.8"
     cy="557.79999"
     rx="26.9"
     ry="22.1"
     fill="#181e12"
     id="ellipse85" />
  <ellipse
     cx="1050.4"
     cy="559.70001"
     rx="18.200001"
     ry="15.4"
     fill="#10160c"
     id="ellipse86" />
  <rect
     x="1055.7"
     y="583.70001"
     width="8.6000004"
     height="21.1"
     fill="#2a1808"
     id="rect86" />
  <ellipse
     cx="1130"
     cy="567.79999"
     rx="31.200001"
     ry="24.299999"
     fill="#162010"
     id="ellipse87" />
  <ellipse
     cx="1130"
     cy="566.20001"
     rx="28.1"
     ry="22"
     fill="#10160c"
     id="ellipse88" />
  <ellipse
     cx="1133.8"
     cy="564"
     rx="21.299999"
     ry="17.5"
     fill="#181e12"
     id="ellipse89" />
  <ellipse
     cx="1122.4"
     cy="565.5"
     rx="14.4"
     ry="12.2"
     fill="#10160c"
     id="ellipse90" />
  <rect
     x="1126.6"
     y="584.5"
     width="6.8000002"
     height="16.700001"
     fill="#2a1808"
     id="rect90" />
  <ellipse
     cx="1200"
     cy="565.20001"
     rx="35.299999"
     ry="27.5"
     fill="#162010"
     id="ellipse91" />
  <ellipse
     cx="1200"
     cy="563.40002"
     rx="31.799999"
     ry="24.9"
     fill="#10160c"
     id="ellipse92" />
  <ellipse
     cx="1204.3"
     cy="560.90002"
     rx="24.1"
     ry="19.799999"
     fill="#181e12"
     id="ellipse93" />
  <ellipse
     cx="1191.4"
     cy="562.59998"
     rx="16.299999"
     ry="13.8"
     fill="#10160c"
     id="ellipse94" />
  <rect
     x="1196.1"
     y="584.09998"
     width="7.6999998"
     height="18.9"
     fill="#2a1808"
     id="rect94" />
  <ellipse
     cx="1280"
     cy="562.59998"
     rx="39.400002"
     ry="30.700001"
     fill="#162010"
     id="ellipse95" />
  <ellipse
     cx="1280"
     cy="560.59998"
     rx="35.5"
     ry="27.799999"
     fill="#10160c"
     id="ellipse96" />
  <ellipse
     cx="1284.8"
     cy="557.79999"
     rx="26.9"
     ry="22.1"
     fill="#181e12"
     id="ellipse97" />
  <ellipse
     cx="1270.4"
     cy="559.70001"
     rx="18.200001"
     ry="15.4"
     fill="#10160c"
     id="ellipse98" />
  <rect
     x="1275.7"
     y="583.70001"
     width="8.6000004"
     height="21.1"
     fill="#2a1808"
     id="rect98" />
  <ellipse
     cx="1360"
     cy="567.79999"
     rx="31.200001"
     ry="24.299999"
     fill="#162010"
     id="ellipse99" />
  <ellipse
     cx="1360"
     cy="566.20001"
     rx="28.1"
     ry="22"
     fill="#10160c"
     id="ellipse100" />
  <ellipse
     cx="1363.8"
     cy="564"
     rx="21.299999"
     ry="17.5"
     fill="#181e12"
     id="ellipse101" />
  <ellipse
     cx="1352.4"
     cy="565.5"
     rx="14.4"
     ry="12.2"
     fill="#10160c"
     id="ellipse102" />
  <rect
     x="1356.6"
     y="584.5"
     width="6.8000002"
     height="16.700001"
     fill="#2a1808"
     id="rect102" />
  <ellipse
     cx="1414.4845"
     cy="565.10791"
     rx="35.299999"
     ry="27.5"
     fill="#162010"
     id="ellipse103" />
  <ellipse
     cx="1422.3142"
     cy="563.40002"
     rx="31.799999"
     ry="24.9"
     fill="#10160c"
     id="ellipse104" />
  <ellipse
     cx="1430.3909"
     cy="561.3606"
     rx="24.1"
     ry="19.799999"
     fill="#181e12"
     id="ellipse105" />
  <ellipse
     cx="1431.4"
     cy="562.59998"
     rx="16.299999"
     ry="13.8"
     fill="#10160c"
     id="ellipse106" />
  <rect
     x="1436.1"
     y="584.09998"
     width="7.6999998"
     height="18.9"
     fill="#2a1808"
     id="rect106" />
  <rect
     x="720"
     y="541.79999"
     width="47"
     height="37.599998"
     fill="#6a5848"
     id="rect107" />
  <rect
     x="720"
     y="541.79999"
     width="47"
     height="2"
     fill="#8a7060"
     id="rect108" />
  <polygon
     points="770,541.8 717,541.8 743.5,521.1 "
     fill="#3a2c22"
     id="polygon108" />
  <rect
     x="728.5"
     y="550"
     width="11.3"
     height="11.3"
     fill="#1a1610"
     id="rect109" />
  <rect
     x="747.29999"
     y="550"
     width="11.3"
     height="11.3"
     fill="#1a1610"
     id="rect110" />
  <rect
     x="736"
     y="559.09998"
     width="15"
     height="20.299999"
     fill="#2a1c12"
     id="rect111" />
  <rect
     x="776"
     y="541.79999"
     width="47"
     height="37.599998"
     fill="#6a5848"
     id="rect112" />
  <rect
     x="776"
     y="541.79999"
     width="47"
     height="2"
     fill="#8a7060"
     id="rect113" />
  <polygon
     points="826,541.8 773,541.8 799.5,521.1 "
     fill="#3a2c22"
     id="polygon113" />
  <rect
     x="784.5"
     y="550"
     width="11.3"
     height="11.3"
     fill="#1a1610"
     id="rect114" />
  <rect
     x="803.29999"
     y="550"
     width="11.3"
     height="11.3"
     fill="#1a1610"
     id="rect115" />
  <rect
     x="792"
     y="559.09998"
     width="15"
     height="20.299999"
     fill="#2a1c12"
     id="rect116" />
  <rect
     x="832"
     y="541.79999"
     width="47"
     height="37.599998"
     fill="#6a5848"
     id="rect117" />
  <rect
     x="832"
     y="541.79999"
     width="47"
     height="2"
     fill="#8a7060"
     id="rect118" />
  <polygon
     points="882,541.8 829,541.8 855.5,521.1 "
     fill="#3a2c22"
     id="polygon118" />
  <rect
     x="840.5"
     y="550"
     width="11.3"
     height="11.3"
     fill="#1a1610"
     id="rect119" />
  <rect
     x="859.29999"
     y="550"
     width="11.3"
     height="11.3"
     fill="#1a1610"
     id="rect120" />
  <rect
     x="848"
     y="559.09998"
     width="15"
     height="20.299999"
     fill="#2a1c12"
     id="rect121" />
  <rect
     x="888"
     y="541.79999"
     width="47"
     height="37.599998"
     fill="#6a5848"
     id="rect122" />
  <rect
     x="888"
     y="541.79999"
     width="47"
     height="2"
     fill="#8a7060"
     id="rect123" />
  <polygon
     points="938,541.8 885,541.8 911.5,521.1 "
     fill="#3a2c22"
     id="polygon123" />
  <rect
     x="896.5"
     y="550"
     width="11.3"
     height="11.3"
     fill="#1a1610"
     id="rect124" />
  <rect
     x="915.29999"
     y="550"
     width="11.3"
     height="11.3"
     fill="#1a1610"
     id="rect125" />
  <rect
     x="904"
     y="559.09998"
     width="15"
     height="20.299999"
     fill="#2a1c12"
     id="rect126" />
  <rect
     x="944"
     y="541.79999"
     width="47"
     height="37.599998"
     fill="#6a5848"
     id="rect127" />
  <rect
     x="944"
     y="541.79999"
     width="47"
     height="2"
     fill="#8a7060"
     id="rect128" />
  <polygon
     points="994,541.8 941,541.8 967.5,521.1 "
     fill="#3a2c22"
     id="polygon128" />
  <rect
     x="952.5"
     y="550"
     width="11.3"
     height="11.3"
     fill="#1a1610"
     id="rect129" />
  <rect
     x="971.29999"
     y="550"
     width="11.3"
     height="11.3"
     fill="#1a1610"
     id="rect130" />
  <rect
     x="960"
     y="559.09998"
     width="15"
     height="20.299999"
     fill="#2a1c12"
     id="rect131" />
  <rect
     x="1000"
     y="541.79999"
     width="47"
     height="37.599998"
     fill="#6a5848"
     id="rect132" />
  <rect
     x="1000"
     y="541.79999"
     width="47"
     height="2"
     fill="#8a7060"
     id="rect133" />
  <polygon
     points="1050,541.8 997,541.8 1023.5,521.1 "
     fill="#3a2c22"
     id="polygon133" />
  <rect
     x="1008.5"
     y="550"
     width="11.3"
     height="11.3"
     fill="#1a1610"
     id="rect134" />
  <rect
     x="1027.3"
     y="550"
     width="11.3"
     height="11.3"
     fill="#1a1610"
     id="rect135" />
  <rect
     x="1016"
     y="559.09998"
     width="15"
     height="20.299999"
     fill="#2a1c12"
     id="rect136" />
  <rect
     x="1056"
     y="541.79999"
     width="47"
     height="37.599998"
     fill="#6a5848"
     id="rect137" />
  <rect
     x="1056"
     y="541.79999"
     width="47"
     height="2"
     fill="#8a7060"
     id="rect138" />
  <polygon
     points="1106,541.8 1053,541.8 1079.5,521.1 "
     fill="#3a2c22"
     id="polygon138" />
  <rect
     x="1064.5"
     y="550"
     width="11.3"
     height="11.3"
     fill="#1a1610"
     id="rect139" />
  <rect
     x="1083.3"
     y="550"
     width="11.3"
     height="11.3"
     fill="#1a1610"
     id="rect140" />
  <rect
     x="1072"
     y="559.09998"
     width="15"
     height="20.299999"
     fill="#2a1c12"
     id="rect141" />
  <rect
     x="1112"
     y="541.79999"
     width="47"
     height="37.599998"
     fill="#6a5848"
     id="rect142" />
  <rect
     x="1112"
     y="541.79999"
     width="47"
     height="2"
     fill="#8a7060"
     id="rect143" />
  <polygon
     points="1162,541.8 1109,541.8 1135.5,521.1 "
     fill="#3a2c22"
     id="polygon143" />
  <rect
     x="1120.5"
     y="550"
     width="11.3"
     height="11.3"
     fill="#1a1610"
     id="rect144" />
  <rect
     x="1139.3"
     y="550"
     width="11.3"
     height="11.3"
     fill="#1a1610"
     id="rect145" />
  <rect
     x="1128"
     y="559.09998"
     width="15"
     height="20.299999"
     fill="#2a1c12"
     id="rect146" />
  <rect
     x="1168"
     y="541.79999"
     width="47"
     height="37.599998"
     fill="#6a5848"
     id="rect147" />
  <rect
     x="1168"
     y="541.79999"
     width="47"
     height="2"
     fill="#8a7060"
     id="rect148" />
  <polygon
     points="1218,541.8 1165,541.8 1191.5,521.1 "
     fill="#3a2c22"
     id="polygon148" />
  <rect
     x="1176.5"
     y="550"
     width="11.3"
     height="11.3"
     fill="#1a1610"
     id="rect149" />
  <rect
     x="1195.3"
     y="550"
     width="11.3"
     height="11.3"
     fill="#1a1610"
     id="rect150" />
  <rect
     x="1184"
     y="559.09998"
     width="15"
     height="20.299999"
     fill="#2a1c12"
     id="rect151" />
  <rect
     x="1224"
     y="541.79999"
     width="47"
     height="37.599998"
     fill="#6a5848"
     id="rect152" />
  <rect
     x="1224"
     y="541.79999"
     width="47"
     height="2"
     fill="#8a7060"
     id="rect153" />
  <polygon
     points="1274,541.8 1221,541.8 1247.5,521.1 "
     fill="#3a2c22"
     id="polygon153" />
  <rect
     x="1232.5"
     y="550"
     width="11.3"
     height="11.3"
     fill="#1a1610"
     id="rect154" />
  <rect
     x="1251.3"
     y="550"
     width="11.3"
     height="11.3"
     fill="#1a1610"
     id="rect155" />
  <rect
     x="1240"
     y="559.09998"
     width="15"
     height="20.299999"
     fill="#2a1c12"
     id="rect156" />
  <rect
     x="846"
     y="434.39999"
     width="28"
     height="140"
     fill="#4a3c30"
     id="rect157" />
  <rect
     x="844"
     y="427.39999"
     width="32"
     height="9"
     fill="#3a2e24"
     id="rect158" />
  <rect
     x="847"
     y="434.39999"
     width="26"
     height="3"
     fill="#6a5848"
     id="rect159" />
  <ellipse
     cx="856"
     cy="419.39999"
     rx="14"
     ry="10.1"
     fill="#3a3228"
     fill-opacity="0.55"
     id="ellipse159" />
  <ellipse
     cx="865"
     cy="397.39999"
     rx="18"
     ry="13"
     fill="#3a3228"
     fill-opacity="0.45"
     id="ellipse160" />
  <ellipse
     cx="856"
     cy="375.39999"
     rx="22"
     ry="15.8"
     fill="#3a3228"
     fill-opacity="0.35"
     id="ellipse161" />
  <ellipse
     cx="865"
     cy="353.39999"
     rx="26"
     ry="18.700001"
     fill="#3a3228"
     fill-opacity="0.25"
     id="ellipse162" />
  <ellipse
     cx="856"
     cy="331.39999"
     rx="30"
     ry="21.6"
     fill="#3a3228"
     fill-opacity="0.15"
     id="ellipse163" />
  <ellipse
     cx="865"
     cy="309.39999"
     rx="34"
     ry="24.5"
     fill="#3a3228"
     fill-opacity="0.12"
     id="ellipse164" />
  <ellipse
     cx="856"
     cy="287.39999"
     rx="38"
     ry="27.4"
     fill="#3a3228"
     fill-opacity="0.12"
     id="ellipse165" />
  <rect
     x="948"
     y="459.39999"
     width="24"
     height="115"
     fill="#4a3c30"
     id="rect165" />
  <rect
     x="946"
     y="452.39999"
     width="28"
     height="9"
     fill="#3a2e24"
     id="rect166" />
  <rect
     x="949"
     y="459.39999"
     width="22"
     height="3"
     fill="#6a5848"
     id="rect167" />
  <ellipse
     cx="956"
     cy="444.39999"
     rx="14"
     ry="10.1"
     fill="#3a3228"
     fill-opacity="0.55"
     id="ellipse167" />
  <ellipse
     cx="965"
     cy="422.39999"
     rx="18"
     ry="13"
     fill="#3a3228"
     fill-opacity="0.45"
     id="ellipse168" />
  <ellipse
     cx="965"
     cy="378.39999"
     rx="26"
     ry="18.700001"
     fill="#3a3228"
     fill-opacity="0.25"
     id="ellipse170" />
  <ellipse
     cx="956"
     cy="356.39999"
     rx="30"
     ry="21.6"
     fill="#3a3228"
     fill-opacity="0.15"
     id="ellipse171" />
  <ellipse
     cx="965"
     cy="334.39999"
     rx="34"
     ry="24.5"
     fill="#3a3228"
     fill-opacity="0.12"
     id="ellipse172" />
  <rect
     x="1067"
     y="449.39999"
     width="26"
     height="125"
     fill="#4a3c30"
     id="rect172" />
  <rect
     x="1065"
     y="442.39999"
     width="30"
     height="9"
     fill="#3a2e24"
     id="rect173" />
  <rect
     x="1068"
     y="449.39999"
     width="24"
     height="3"
     fill="#6a5848"
     id="rect174" />
  <ellipse
     cx="1076"
     cy="434.39999"
     rx="14"
     ry="10.1"
     fill="#3a3228"
     fill-opacity="0.55"
     id="ellipse174" />
  <ellipse
     cx="1085"
     cy="412.39999"
     rx="18"
     ry="13"
     fill="#3a3228"
     fill-opacity="0.45"
     id="ellipse175" />
  <ellipse
     cx="1076"
     cy="390.39999"
     rx="22"
     ry="15.8"
     fill="#3a3228"
     fill-opacity="0.35"
     id="ellipse176" />
  <ellipse
     cx="1085"
     cy="368.39999"
     rx="26"
     ry="18.700001"
     fill="#3a3228"
     fill-opacity="0.25"
     id="ellipse177" />
  <ellipse
     cx="1076"
     cy="346.39999"
     rx="30"
     ry="21.6"
     fill="#3a3228"
     fill-opacity="0.15"
     id="ellipse178" />
  <ellipse
     cx="1085"
     cy="324.39999"
     rx="34"
     ry="24.5"
     fill="#3a3228"
     fill-opacity="0.12"
     id="ellipse179" />
  <rect
     x="1170"
     y="474.39999"
     width="20"
     height="100"
     fill="#4a3c30"
     id="rect179" />
  <rect
     x="1168"
     y="467.39999"
     width="24"
     height="9"
     fill="#3a2e24"
     id="rect180" />
  <rect
     x="1171"
     y="474.39999"
     width="18"
     height="3"
     fill="#6a5848"
     id="rect181" />
  <ellipse
     cx="1176"
     cy="459.39999"
     rx="14"
     ry="10.1"
     fill="#3a3228"
     fill-opacity="0.55"
     id="ellipse181" />
  <ellipse
     cx="1185"
     cy="437.39999"
     rx="18"
     ry="13"
     fill="#3a3228"
     fill-opacity="0.45"
     id="ellipse182" />
  <ellipse
     cx="1176"
     cy="415.39999"
     rx="22"
     ry="15.8"
     fill="#3a3228"
     fill-opacity="0.35"
     id="ellipse183" />
  <ellipse
     cx="1185"
     cy="393.39999"
     rx="26"
     ry="18.700001"
     fill="#3a3228"
     fill-opacity="0.25"
     id="ellipse184" />
  <ellipse
     cx="1176"
     cy="371.39999"
     rx="30"
     ry="21.6"
     fill="#3a3228"
     fill-opacity="0.15"
     id="ellipse185" />
  <rect
     x="1050"
     y="484.39999"
     width="220"
     height="95"
     fill="#504038"
     id="rect185" />
  <rect
     x="1050"
     y="484.39999"
     width="220"
     height="3"
     fill="#706050"
     id="rect186" />
  <rect
     x="1075"
     y="501.39999"
     width="38"
     height="36"
     fill="#1a1610"
     id="rect187" />
  <rect
     x="1130"
     y="501.39999"
     width="38"
     height="36"
     fill="#1a1610"
     id="rect188" />
  <rect
     x="1190"
     y="501.39999"
     width="38"
     height="36"
     fill="#1a1610"
     id="rect189" />
  <rect
     x="1120"
     y="537.40002"
     width="55"
     height="42"
     fill="#2a1c12"
     id="rect190" />
  <polygon
     points="629.8,395 699.5,587 420.5,587 490.2,395 "
     fill="#1c1a18"
     id="polygon190" />
  <polygon
     points="625.1,419 671.6,587 448.4,587 494.9,419 "
     fill="#222020"
     id="polygon191" />
  <rect
     x="510.39999"
     y="485"
     width="99.199997"
     height="102"
     fill="#06060a"
     rx="5"
     id="rect191" />
  <line
     x1="538.20001"
     y1="587"
     x2="548.09998"
     y2="485"
     stroke="#4a4a40"
     stroke-width="5"
     id="line191" />
  <line
     x1="581.79999"
     y1="587"
     x2="571.90002"
     y2="485"
     stroke="#4a4a40"
     stroke-width="5"
     id="line192" />
  <rect
     x="539.20001"
     y="584"
     width="41.700001"
     height="5"
     fill="#3a2808"
     id="rect192" />
  <rect
     x="540.59998"
     y="563.59998"
     width="38.900002"
     height="5"
     fill="#3a2808"
     id="rect193" />
  <rect
     x="541.90002"
     y="543.20001"
     width="36.099998"
     height="5"
     fill="#3a2808"
     id="rect194" />
  <rect
     x="543.29999"
     y="522.79999"
     width="33.299999"
     height="5"
     fill="#3a2808"
     id="rect195" />
  <rect
     x="544.70001"
     y="502.39999"
     width="30.6"
     height="5"
     fill="#3a2808"
     id="rect196" />
  <rect
     x="546.09998"
     y="482"
     width="27.799999"
     height="5"
     fill="#3a2808"
     id="rect197" />
  <rect
     x="482.5"
     y="467"
     width="17.1"
     height="120"
     fill="#4a2c10"
     id="rect198" />
  <rect
     x="482.5"
     y="467"
     width="17.1"
     height="4"
     fill="#5a3c18"
     id="rect199" />
  <rect
     x="620.5"
     y="467"
     width="17.1"
     height="120"
     fill="#4a2c10"
     id="rect200" />
  <rect
     x="620.5"
     y="467"
     width="17.1"
     height="4"
     fill="#5a3c18"
     id="rect201" />
  <rect
     x="477.5"
     y="451.70001"
     width="165"
     height="15.3"
     fill="#5a3c18"
     id="rect202" />
  <rect
     x="477.5"
     y="451.70001"
     width="165"
     height="3"
     fill="#7a5228"
     id="rect203" />
  <line
     x1="501.60001"
     y1="473"
     x2="618.5"
     y2="553.40002"
     stroke="#2a1808"
     stroke-width="8"
     id="line203" />
  <line
     x1="618.5"
     y1="473"
     x2="501.60001"
     y2="553.40002"
     stroke="#2a1808"
     stroke-width="8"
     id="line204" />
  <line
     x1="501.60001"
     y1="473"
     x2="618.5"
     y2="553.40002"
     stroke="#4a2c10"
     stroke-width="5"
     id="line205" />
  <line
     x1="618.5"
     y1="473"
     x2="501.60001"
     y2="553.40002"
     stroke="#4a2c10"
     stroke-width="5"
     id="line206" />
  <rect
     x="377"
     y="285.60001"
     width="6"
     height="301.89999"
     fill="#2a2422"
     id="rect206" />
  <rect
     x="372"
     y="285.60001"
     width="16"
     height="5"
     fill="#1e1a16"
     id="rect207" />
  <rect
     x="497"
     y="285.60001"
     width="6"
     height="301.89999"
     fill="#2a2422"
     id="rect208" />
  <rect
     x="492"
     y="285.60001"
     width="16"
     height="5"
     fill="#1e1a16"
     id="rect209" />
  <rect
     x="657"
     y="285.60001"
     width="6"
     height="301.89999"
     fill="#2a2422"
     id="rect210" />
  <rect
     x="652"
     y="285.60001"
     width="16"
     height="5"
     fill="#1e1a16"
     id="rect211" />
  <rect
     x="817"
     y="285.60001"
     width="6"
     height="301.89999"
     fill="#2a2422"
     id="rect212" />
  <rect
     x="812"
     y="285.60001"
     width="16"
     height="5"
     fill="#1e1a16"
     id="rect213" />
  <rect
     x="997"
     y="285.60001"
     width="6"
     height="301.89999"
     fill="#2a2422"
     id="rect214" />
  <rect
     x="992"
     y="285.60001"
     width="16"
     height="5"
     fill="#1e1a16"
     id="rect215" />
  <rect
     x="1147"
     y="285.60001"
     width="6"
     height="301.89999"
     fill="#2a2422"
     id="rect216" />
  <rect
     x="1142"
     y="285.60001"
     width="16"
     height="5"
     fill="#1e1a16"
     id="rect217" />
  <path
     d="m 380,286 q 60,14 120,0"
     fill="none"
     stroke="#2a2a28"
     stroke-width="1.5"
     id="path217" />
  <ellipse
     cx="419.60001"
     cy="286.79999"
     rx="7"
     ry="4"
     fill="#484840"
     id="ellipse217" />
  <ellipse
     cx="415.60001"
     cy="284.79999"
     rx="4"
     ry="3"
     fill="#484840"
     id="ellipse218" />
  <circle
     cx="413.60001"
     cy="283.79999"
     r="2"
     fill="#383830"
     id="circle218" />
  <ellipse
     cx="419.60001"
     cy="288.79999"
     rx="3"
     ry="2"
     fill="#585850"
     id="ellipse219" />
  <path
     d="m 500,286 q 80,18 160,0"
     fill="none"
     stroke="#2a2a28"
     stroke-width="1.5"
     id="path219" />
  <ellipse
     cx="552.79999"
     cy="288.60001"
     rx="7"
     ry="4"
     fill="#484840"
     id="ellipse220" />
  <ellipse
     cx="548.79999"
     cy="286.60001"
     rx="4"
     ry="3"
     fill="#484840"
     id="ellipse221" />
  <circle
     cx="546.79999"
     cy="285.60001"
     r="2"
     fill="#383830"
     id="circle221" />
  <ellipse
     cx="552.79999"
     cy="290.60001"
     rx="3"
     ry="2"
     fill="#585850"
     id="ellipse222" />
  <path
     d="m 660,286 q 80,16 160,0"
     fill="none"
     stroke="#2a2a28"
     stroke-width="1.5"
     id="path222" />
  <ellipse
     cx="712.79999"
     cy="287.70001"
     rx="7"
     ry="4"
     fill="#484840"
     id="ellipse223" />
  <ellipse
     cx="708.79999"
     cy="285.70001"
     rx="4"
     ry="3"
     fill="#484840"
     id="ellipse224" />
  <circle
     cx="706.79999"
     cy="284.70001"
     r="2"
     fill="#383830"
     id="circle224" />
  <ellipse
     cx="712.79999"
     cy="289.70001"
     rx="3"
     ry="2"
     fill="#585850"
     id="ellipse225" />
  <path
     d="m 820,286 q 90,20 180,0"
     fill="none"
     stroke="#2a2a28"
     stroke-width="1.5"
     id="path225" />
  <ellipse
     cx="879.40002"
     cy="289.39999"
     rx="7"
     ry="4"
     fill="#484840"
     id="ellipse226" />
  <ellipse
     cx="875.40002"
     cy="287.39999"
     rx="4"
     ry="3"
     fill="#484840"
     id="ellipse227" />
  <circle
     cx="873.40002"
     cy="286.39999"
     r="2"
     fill="#383830"
     id="circle227" />
  <ellipse
     cx="879.40002"
     cy="291.39999"
     rx="3"
     ry="2"
     fill="#585850"
     id="ellipse228" />
  <path
     d="m 1000,286 q 75,15 150,0"
     fill="none"
     stroke="#2a2a28"
     stroke-width="1.5"
     id="path228" />
  <ellipse
     cx="1049.5"
     cy="287.20001"
     rx="7"
     ry="4"
     fill="#484840"
     id="ellipse229" />
  <ellipse
     cx="1045.5"
     cy="285.20001"
     rx="4"
     ry="3"
     fill="#484840"
     id="ellipse230" />
  <circle
     cx="1043.5"
     cy="284.20001"
     r="2"
     fill="#383830"
     id="circle230" />
  <ellipse
     cx="1049.5"
     cy="289.20001"
     rx="3"
     ry="2"
     fill="#585850"
     id="ellipse231" />
  <rect
     x="680"
     y="527.5"
     width="120"
     height="50"
     fill="#3a2c1e"
     id="rect231" />
  <rect
     x="682"
     y="529.5"
     width="116"
     height="46"
     fill="#4a3828"
     id="rect232" />
  <rect
     x="684"
     y="531.5"
     width="112"
     height="42"
     fill="#5a4838"
     id="rect233" />
  <circle
     cx="688"
     cy="535.5"
     r="3"
     fill="#2a1c10"
     id="circle233" />
  <circle
     cx="688"
     cy="535.5"
     r="1.5"
     fill="#181008"
     id="circle234" />
  <circle
     cx="792"
     cy="535.5"
     r="3"
     fill="#2a1c10"
     id="circle235" />
  <circle
     cx="792"
     cy="535.5"
     r="1.5"
     fill="#181008"
     id="circle236" />
  <circle
     cx="688"
     cy="569.5"
     r="3"
     fill="#2a1c10"
     id="circle237" />
  <circle
     cx="688"
     cy="569.5"
     r="1.5"
     fill="#181008"
     id="circle238" />
  <circle
     cx="792"
     cy="569.5"
     r="3"
     fill="#2a1c10"
     id="circle239" />
  <circle
     cx="792"
     cy="569.5"
     r="1.5"
     fill="#181008"
     id="circle240" />
  <rect
     x="690"
     y="537.5"
     width="100"
     height="8"
     fill="#4a3828"
     id="rect240" />
  <text
     x="740"
     y="544.5"
     fill="#8a7060"
     font-size="7px"
     font-weight="bold"
     text-anchor="middle"
     font-family="Georgia, serif"
     id="text240">IN MEMORIAM</text>
  <line
     x1="690"
     y1="549.5"
     x2="790"
     y2="549.5"
     stroke="#3a2c1e"
     stroke-width="0.8"
     id="line240" />
  <text
     x="740"
     y="557.5"
     fill="#6a5848"
     font-size="7px"
     font-weight="normal"
     text-anchor="middle"
     font-family="Georgia, serif"
     id="text241">Mineiros dos</text>
  <text
     x="740"
     y="565.5"
     fill="#6a5848"
     font-size="7px"
     font-weight="normal"
     text-anchor="middle"
     font-family="Georgia, serif"
     id="text242">Apalaches</text>
  <text
     x="740"
     y="573.5"
     fill="#5a4838"
     font-size="7px"
     font-weight="normal"
     text-anchor="middle"
     font-family="Georgia, serif"
     id="text243">1870 – 1920</text>
  <line
     x1="520"
     y1="587.5"
     x2="380"
     y2="587.5"
     stroke="#4a4a3c"
     stroke-width="6"
     id="line243" />
  <line
     x1="610"
     y1="587.5"
     x2="850"
     y2="587.5"
     stroke="#4a4a3c"
     stroke-width="6"
     id="line244" />
  <rect
     x="380"
     y="582.5"
     width="22"
     height="6"
     fill="#3a2808"
     id="rect244" />
  <rect
     x="408"
     y="582.5"
     width="22"
     height="6"
     fill="#3a2808"
     id="rect245" />
  <rect
     x="436"
     y="582.5"
     width="22"
     height="6"
     fill="#3a2808"
     id="rect246" />
  <rect
     x="464"
     y="582.5"
     width="22"
     height="6"
     fill="#3a2808"
     id="rect247" />
  <rect
     x="492"
     y="582.5"
     width="22"
     height="6"
     fill="#3a2808"
     id="rect248" />
  <rect
     x="520"
     y="582.5"
     width="22"
     height="6"
     fill="#3a2808"
     id="rect249" />
  <rect
     x="548"
     y="582.5"
     width="22"
     height="6"
     fill="#3a2808"
     id="rect250" />
  <rect
     x="576"
     y="582.5"
     width="22"
     height="6"
     fill="#3a2808"
     id="rect251" />
  <rect
     x="604"
     y="582.5"
     width="22"
     height="6"
     fill="#3a2808"
     id="rect252" />
  <rect
     x="632"
     y="582.5"
     width="22"
     height="6"
     fill="#3a2808"
     id="rect253" />
  <rect
     x="660"
     y="582.5"
     width="22"
     height="6"
     fill="#3a2808"
     id="rect254" />
  <rect
     x="688"
     y="582.5"
     width="22"
     height="6"
     fill="#3a2808"
     id="rect255" />
  <rect
     x="716"
     y="582.5"
     width="22"
     height="6"
     fill="#3a2808"
     id="rect256" />
  <rect
     x="744"
     y="582.5"
     width="22"
     height="6"
     fill="#3a2808"
     id="rect257" />
  <rect
     x="772"
     y="582.5"
     width="22"
     height="6"
     fill="#3a2808"
     id="rect258" />
  <rect
     x="800"
     y="582.5"
     width="22"
     height="6"
     fill="#3a2808"
     id="rect259" />
  <rect
     x="828"
     y="582.5"
     width="22"
     height="6"
     fill="#3a2808"
     id="rect260" />
  <polygon
     points="487.8,583 432.2,583 426.4,549 493.6,549 "
     fill="#181610"
     id="polygon260" />
  <polygon
     points="486.1,581 433.9,581 428.1,551 491.9,551 "
     fill="#222018"
     id="polygon261" />
  <ellipse
     cx="460"
     cy="559"
     rx="26.700001"
     ry="8"
     fill="#101010"
     id="ellipse261" />
  <circle
     cx="443.79999"
     cy="584"
     r="11"
     fill="#383830"
     id="circle261" />
  <circle
     cx="443.79999"
     cy="584"
     r="7"
     fill="#242420"
     id="circle262" />
  <circle
     cx="443.79999"
     cy="584"
     r="2.5"
     fill="#585850"
     id="circle263" />
  <circle
     cx="476.20001"
     cy="584"
     r="11"
     fill="#383830"
     id="circle264" />
  <circle
     cx="476.20001"
     cy="584"
     r="7"
     fill="#242420"
     id="circle265" />
  <circle
     cx="476.20001"
     cy="584"
     r="2.5"
     fill="#585850"
     id="circle266" />
  <polygon
     points="310,587.5 100,587.5 190,440.6 "
     fill="#141412"
     id="polygon266" />
  <polygon
     points="296,587.5 140,587.5 218,473.3 "
     fill="#101010"
     id="polygon267" />
  <rect
     x="0"
     y="587.5"
     width="1456"
     height="22.799999"
     fill="url(#brkCoal)"
     id="rect267"
     style="fill:url(#pattern288)" />
  <rect
     x="0"
     y="587.5"
     width="1456"
     height="4"
     fill="#2a2018"
     id="rect268" />
  <rect
     x="0"
     y="610.40002"
     width="1456"
     height="65.300003"
     fill="url(#brkSub)"
     id="rect269"
     style="fill:url(#pattern289)" />
  <rect
     x="0"
     y="675.59998"
     width="1456"
     height="163.2"
     fill="#0c0a08"
     id="rect270" />
</svg>
