<?xml version="1.0" encoding="UTF-8" standalone="no"?>
<svg viewBox="0 0 48 48" shape-rendering="crispEdges" width="96" height="96" id="casuario" sodipodi:docname="6_2_casuario.svg" inkscape:version="1.4.3 (0d15f75, 2025-12-25)" xmlns:inkscape="http://www.inkscape.org/namespaces/inkscape" xmlns:sodipodi="http://sodipodi.sourceforge.net/DTD/sodipodi-0.0.dtd" xmlns="http://www.w3.org/2000/svg"><defs/><rect x="0" y="42" width="48" height="6" fill="#181410"/><rect x="0" y="42" width="48" height="2" fill="#201A18"/><rect x="0" y="46" width="48" height="2" fill="#141010"/><rect x="0" y="38" width="6" height="8" fill="#2A5020"/><rect x="1" y="36" width="4" height="6" fill="#306028"/><rect x="42" y="38" width="6" height="8" fill="#2A5020"/><rect x="43" y="36" width="4" height="6" fill="#306028"/><rect x="10" y="18" width="30" height="26" fill="#101010"/><rect x="12" y="16" width="26" height="28" fill="#181818"/><rect x="14" y="14" width="22" height="28" fill="#141414"/><rect x="16" y="12" width="18" height="28" fill="#181818"/><rect x="18" y="10" width="14" height="26" fill="#141414"/><rect x="10" y="20" width="4" height="22" fill="#0A0A0A"/><rect x="14" y="18" width="4" height="24" fill="#141414"/><rect x="18" y="16" width="4" height="24" fill="#0A0A0A"/><rect x="22" y="18" width="4" height="22" fill="#141414"/><rect x="26" y="20" width="4" height="22" fill="#0A0A0A"/><rect x="30" y="22" width="4" height="20" fill="#141414"/><rect x="34" y="24" width="4" height="18" fill="#0A0A0A"/><rect x="16" y="14" width="6" height="6" fill="#282828"/><rect x="20" y="12" width="6" height="5" fill="#242424"/><rect x="24" y="14" width="5" height="5" fill="#282828"/><rect x="28" y="16" width="5" height="5" fill="#242424"/><rect x="32" y="18" width="4" height="5" fill="#282828"/><rect x="8" y="26" width="8" height="16" fill="#0A0A0A"/><rect x="8" y="28" width="7" height="14" fill="#141414"/><rect x="6" y="30" width="6" height="12" fill="#0A0A0A"/><rect x="6" y="30" width="2" height="10" fill="#302820"/><rect x="4" y="32" width="2" height="8" fill="#3A3028"/><rect x="2" y="34" width="2" height="6" fill="#302820"/><rect x="6" y="31" width="1" height="8" fill="#483C30"/><rect x="4" y="33" width="1" height="6" fill="#503828"/><rect x="26" y="6" width="12" height="18" fill="#1828C8"/><rect x="28" y="4" width="10" height="18" fill="#2038D8"/><rect x="30" y="2" width="8" height="18" fill="#2840E0"/><rect x="32" y="0" width="6" height="18" fill="#2038D8"/><rect x="34" y="2" width="4" height="16" fill="#1828C8"/><rect x="26" y="6" width="12" height="4" fill="#1828C8"/><rect x="27" y="4" width="10" height="3" fill="#2038D8"/><rect x="28" y="2" width="8" height="3" fill="#2840E0"/><rect x="28" y="6" width="8" height="12" fill="#2030C0"/><rect x="29" y="8" width="6" height="10" fill="#1828B8"/><rect x="27" y="5" width="2" height="14" fill="#1020A8"/><rect x="31" y="3" width="2" height="14" fill="#1020A8"/><rect x="35" y="5" width="1" height="12" fill="#1020A8"/><rect x="26" y="20" width="12" height="4" fill="#1020A8"/><rect x="27" y="18" width="10" height="4" fill="#1828C8"/><rect x="28" y="18" width="4" height="10" fill="#CC1010"/><rect x="29" y="17" width="3" height="9" fill="#DD1818"/><rect x="30" y="18" width="2" height="8" fill="#CC1010"/><rect x="30" y="26" width="3" height="4" fill="#CC1010"/><rect x="31" y="26" width="2" height="3" fill="#DD1818"/><rect x="27" y="20" width="3" height="8" fill="#CC1010"/><rect x="27" y="28" width="2" height="3" fill="#CC1010"/><rect x="30" y="28" width="3" height="2" fill="#BB0808"/><rect x="28" y="26" width="2" height="2" fill="#BB0808"/><rect x="32" y="0" width="14" height="14" fill="#101010"/><rect x="33" y="0" width="12" height="12" fill="#181818"/><rect x="34" y="0" width="10" height="12" fill="#141414"/><rect x="35" y="0" width="8" height="10" fill="#181818"/><rect x="34" y="0" width="14" height="10" fill="#5A4830"/><rect x="35" y="0" width="13" height="8" fill="#6A5838"/><rect x="36" y="0" width="12" height="6" fill="#7A6840"/><rect x="37" y="0" width="11" height="4" fill="#8A7848"/><rect x="38" y="0" width="10" height="3" fill="#9A8850"/><rect x="39" y="0" width="8" height="2" fill="#AA9858"/><rect x="40" y="0" width="6" height="2" fill="#8A7848"/><rect x="41" y="0" width="4" height="1" fill="#788040"/><rect x="35" y="2" width="2" height="8" fill="#4A3820"/><rect x="38" y="1" width="2" height="7" fill="#4A3820"/><rect x="41" y="2" width="2" height="6" fill="#4A3820"/><rect x="34" y="6" width="4" height="8" fill="#5A4830"/><rect x="35" y="4" width="3" height="8" fill="#6A5838"/><rect x="36" y="4" width="5" height="5" fill="#1A1010"/><rect x="37" y="5" width="3" height="3" fill="#CC1010"/><rect x="38" y="5" width="2" height="2" fill="#DD2020"/><rect x="38" y="5" width="1" height="1" fill="#FF3030"/><rect x="38" y="5" width="1" height="1" fill="#000010"/><rect x="40" y="6" width="8" height="5" fill="#282820"/><rect x="41" y="6" width="7" height="4" fill="#303028"/><rect x="42" y="7" width="6" height="3" fill="#282820"/><rect x="40" y="9" width="8" height="2" fill="#202018"/><rect x="46" y="6" width="2" height="3" fill="#181810"/><rect x="14" y="38" width="6" height="10" fill="#485848"/><rect x="15" y="36" width="5" height="10" fill="#586858"/><rect x="14" y="40" width="6" height="3" fill="#384838"/><rect x="22" y="38" width="6" height="10" fill="#485848"/><rect x="23" y="36" width="5" height="10" fill="#586858"/><rect x="22" y="40" width="6" height="3" fill="#384838"/><rect x="14" y="38" width="6" height="2" fill="#384838"/><rect x="14" y="41" width="6" height="2" fill="#384838"/><rect x="14" y="44" width="6" height="2" fill="#384838"/><rect x="22" y="38" width="6" height="2" fill="#384838"/><rect x="22" y="41" width="6" height="2" fill="#384838"/><rect x="22" y="44" width="6" height="2" fill="#384838"/><rect x="10" y="44" width="6" height="4" fill="#3A3028"/><rect x="9" y="44" width="4" height="3" fill="#4A4038"/><rect x="8" y="45" width="4" height="2" fill="#5A5048"/><rect x="7" y="46" width="4" height="1" fill="#6A6058"/><rect x="6" y="46" width="3" height="1" fill="#7A7068"/><rect x="5" y="47" width="3" height="1" fill="#5A5048"/><rect x="4" y="47" width="2" height="1" fill="#4A4038"/><rect x="3" y="47" width="2" height="1" fill="#3A3028"/><rect x="4" y="44" width="5" height="3" fill="#2A2820"/><rect x="10" y="44" width="2" height="3" fill="#3A3028"/><rect x="11" y="43" width="2" height="2" fill="#4A4038"/><rect x="26" y="44" width="6" height="4" fill="#3A3028"/><rect x="27" y="44" width="4" height="3" fill="#4A4038"/><rect x="28" y="45" width="4" height="2" fill="#5A5048"/><rect x="30" y="46" width="4" height="1" fill="#6A6058"/><rect x="33" y="46" width="3" height="1" fill="#7A7068"/><rect x="35" y="47" width="3" height="1" fill="#5A5048"/><rect x="37" y="47" width="2" height="1" fill="#4A4038"/><rect x="39" y="47" width="2" height="1" fill="#3A3028"/><rect x="26" y="44" width="2" height="3" fill="#2A2820"/><rect x="14" y="46" width="4" height="2" fill="#3A3028"/><rect x="16" y="47" width="3" height="1" fill="#4A4038"/><rect x="22" y="46" width="4" height="2" fill="#3A3028"/><rect x="24" y="47" width="3" height="1" fill="#4A4038"/></svg>