<?xml version="1.0" encoding="UTF-8" standalone="no"?>
<svg
   viewBox="0 0 80 80"
   shape-rendering="crispEdges"
   width="160"
   height="160"
   version="1.1"
   id="svg43"
   sodipodi:docname="4_3_timbuktu.svg"
   inkscape:version="1.4.3 (0d15f75, 2025-12-25)"
   xmlns:inkscape="http://www.inkscape.org/namespaces/inkscape"
   xmlns:sodipodi="http://sodipodi.sourceforge.net/DTD/sodipodi-0.0.dtd"
   xmlns="http://www.w3.org/2000/svg">
  <defs />
  <!-- Card frame -->
  <rect x="0" y="0" width="80" height="80" fill="#2C1810" />
  <rect x="2" y="2" width="76" height="76" fill="#3D2214" />
  <rect x="3" y="3" width="74" height="74" fill="#1a0f08" />
  <!-- Inner frame highlight -->
  <rect x="3" y="3" width="74" height="1" fill="#6B3A1F" />
  <rect x="3" y="3" width="1" height="74" fill="#6B3A1F" />
  <rect x="3" y="76" width="74" height="1" fill="#0d0804" />
  <rect x="76" y="3" width="1" height="74" fill="#0d0804" />

  <!-- Sky: Deep Saharan intense blue -->
  <rect x="4" y="4" width="72" height="28" fill="#2878C0" />
  <rect x="4" y="4" width="72" height="8" fill="#3888D0" />
  <rect x="4" y="8" width="72" height="6" fill="#3080C8" />
  <rect x="4" y="14" width="72" height="5" fill="#2878BC" />
  <rect x="4" y="18" width="72" height="4" fill="#2470B4" />
  <!-- Harsh Saharan sun (high, white-hot) -->
  <rect x="54" y="5" width="10" height="10" fill="#FFF8B0" />
  <rect x="55" y="4" width="8" height="1" fill="#FFF8B0" />
  <rect x="55" y="15" width="8" height="1" fill="#FFF8B0" />
  <rect x="53" y="8" width="1" height="4" fill="#FFF8B0" />
  <rect x="64" y="8" width="1" height="4" fill="#FFF8B0" />
  <rect x="54" y="5" width="3" height="3" fill="#FFFFFF" />
  <rect x="62" y="5" width="2" height="2" fill="#FFFFFF" />
  <!-- Dust haze at horizon -->
  <rect x="4" y="28" width="72" height="5" fill="#D4A04860" />
  <rect x="4" y="29" width="72" height="3" fill="#C89038" />
  <rect x="4" y="31" width="72" height="2" fill="#B88028" />
  <!-- SAHARA DUNES (sweeping, layered) -->
  <!-- Far dune 1 -->
  <rect x="4" y="26" width="30" height="10" fill="#D4A050" />
  <rect x="4" y="26" width="32" height="3" fill="#DCA858" />
  <rect x="14" y="24" width="20" height="5" fill="#D8A450" />
  <rect x="20" y="22" width="12" height="5" fill="#DCA858" />
  <rect x="24" y="20" width="8" height="4" fill="#E0AC60" />
  <rect x="26" y="19" width="4" height="2" fill="#D8A450" />
  <!-- Far dune 2 -->
  <rect x="44" y="25" width="32" height="11" fill="#CC9848" />
  <rect x="48" y="23" width="28" height="5" fill="#D4A050" />
  <rect x="54" y="21" width="20" height="5" fill="#D8A450" />
  <rect x="60" y="19" width="12" height="4" fill="#DCA858" />
  <rect x="64" y="18" width="6" height="3" fill="#D8A450" />
  <!-- Dune shadow sides -->
  <rect x="4" y="30" width="20" height="6" fill="#A87830" />
  <rect x="36" y="28" width="8" height="8" fill="#A87830" />
  <rect x="64" y="27" width="12" height="9" fill="#A07028" />
  <!-- TIMBUKTU MUD BRICK ARCHITECTURE -->
  <!-- Djinguereber Mosque main building -->
  <rect x="14" y="28" width="36" height="8" fill="#C09060" />
  <rect x="14" y="28" width="36" height="2" fill="#D0A070" />
  <rect x="15" y="27" width="34" height="2" fill="#C89868" />
  <!-- Mosque prayer hall roof (flat) -->
  <rect x="14" y="34" width="36" height="2" fill="#B08050" />
  <rect x="15" y="35" width="34" height="1" fill="#A87848" />
  <!-- Mosque entrance arch -->
  <rect x="24" y="30" width="6" height="6" fill="#A07840" />
  <rect x="25" y="29" width="4" height="1" fill="#B08850" />
  <rect x="27" y="28" width="2" height="2" fill="#B08850" />
  <!-- Door dark -->
  <rect x="25" y="32" width="4" height="4" fill="#3A2010" />
  <rect x="26" y="31" width="2" height="1" fill="#483018" />
  <!-- Distinctive toron wooden beams sticking out of wall -->
  <rect x="16" y="29" width="2" height="1" fill="#8B6030" />
  <rect x="20" y="30" width="2" height="1" fill="#8B6030" />
  <rect x="34" y="29" width="2" height="1" fill="#8B6030" />
  <rect x="38" y="30" width="2" height="1" fill="#8B6030" />
  <rect x="44" y="28" width="2" height="1" fill="#8B6030" />
  <rect x="16" y="32" width="2" height="1" fill="#8B6030" />
  <rect x="20" y="31" width="2" height="1" fill="#8B6030" />
  <rect x="34" y="32" width="2" height="1" fill="#8B6030" />
  <rect x="38" y="31" width="2" height="1" fill="#8B6030" />
  <!-- MINARETS (3 - Timbuktu has 3 mosques) -->
  <!-- Minaret 1 main -->
  <rect x="16" y="18" width="6" height="12" fill="#C89868" />
  <rect x="17" y="17" width="4" height="2" fill="#D0A070" />
  <rect x="18" y="15" width="2" height="4" fill="#D8A878" />
  <rect x="18" y="14" width="2" height="1" fill="#B08850" />
  <!-- Minaret torons -->
  <rect x="15" y="20" width="1" height="1" fill="#8B6030" />
  <rect x="22" y="20" width="1" height="1" fill="#8B6030" />
  <rect x="15" y="23" width="1" height="1" fill="#8B6030" />
  <rect x="22" y="23" width="1" height="1" fill="#8B6030" />
  <rect x="17" y="19" width="1" height="1" fill="#8B6030" />
  <rect x="19" y="21" width="1" height="1" fill="#8B6030" />
  <!-- Minaret 2 smaller -->
  <rect x="46" y="21" width="4" height="15" fill="#C89868" />
  <rect x="47" y="20" width="2" height="2" fill="#D0A070" />
  <rect x="47" y="18" width="2" height="4" fill="#D8A878" />
  <rect x="47" y="17" width="2" height="1" fill="#B08850" />
  <rect x="45" y="23" width="1" height="1" fill="#8B6030" />
  <rect x="50" y="23" width="1" height="1" fill="#8B6030" />
  <rect x="45" y="26" width="1" height="1" fill="#8B6030" />
  <rect x="50" y="26" width="1" height="1" fill="#8B6030" />
  <!-- SAND ground / market area -->
  <rect x="4" y="36" width="72" height="40" fill="#C8904C" />
  <rect x="4" y="36" width="72" height="2" fill="#D8A05C" />
  <rect x="4" y="37" width="72" height="2" fill="#CC9850" />
  <!-- Sand ripples -->
  <rect x="10" y="40" width="20" height="1" fill="#B88038" />
  <rect x="35" y="42" width="25" height="1" fill="#B88038" />
  <rect x="55" y="44" width="16" height="1" fill="#B88038" />
  <rect x="8" y="46" width="15" height="1" fill="#C08840" />
  <rect x="30" y="48" width="20" height="1" fill="#C08840" />
  <!-- CAMEL CARAVAN NPC (two camels with salt slabs) -->
  <!-- Camel 1 body -->
  <rect x="54" y="40" width="12" height="6" fill="#C89048" />
  <rect x="54" y="40" width="12" height="2" fill="#D89A50" />
  <rect x="55" y="38" width="10" height="4" fill="#C89048" />
  <!-- Camel 1 hump -->
  <rect x="59" y="36" width="4" height="4" fill="#B88040" />
  <rect x="60" y="35" width="3" height="2" fill="#C89048" />
  <rect x="61" y="34" width="2" height="2" fill="#C08040" />
  <!-- Camel 1 neck/head -->
  <rect x="65" y="36" width="2" height="6" fill="#C89048" />
  <rect x="65" y="34" width="3" height="4" fill="#B88040" />
  <rect x="65" y="33" width="3" height="2" fill="#C89048" />
  <rect x="66" y="32" width="2" height="2" fill="#B88040" />
  <!-- Camel eye -->
  <rect x="67" y="33" width="1" height="1" fill="#201008" />
  <!-- Camel 1 legs -->
  <rect x="55" y="46" width="2" height="5" fill="#B87838" />
  <rect x="58" y="46" width="2" height="5" fill="#B07030" />
  <rect x="61" y="46" width="2" height="5" fill="#B87838" />
  <rect x="64" y="46" width="2" height="5" fill="#B07030" />
  <!-- SALT SLABS on camel (white rectangles) -->
  <rect x="55" y="39" width="10" height="3" fill="#E8E0D0" />
  <rect x="56" y="38" width="8" height="2" fill="#F0E8D8" />
  <rect x="56" y="39" width="1" height="2" fill="#D0C8B8" />
  <rect x="61" y="39" width="1" height="2" fill="#D0C8B8" />
  <!-- Camel 2 (background, partial) -->
  <rect x="40" y="42" width="10" height="5" fill="#B87838" />
  <rect x="40" y="42" width="10" height="2" fill="#C88848" />
  <rect x="41" y="40" width="8" height="4" fill="#B87838" />
  <rect x="44" y="38" width="4" height="4" fill="#A86830" />
  <rect x="45" y="37" width="3" height="2" fill="#B87838" />
  <rect x="49" y="38" width="2" height="6" fill="#B07030" />
  <rect x="49" y="36" width="3" height="3" fill="#A86830" />
  <rect x="50" y="35" width="2" height="2" fill="#A86830" />
  <rect x="40" y="47" width="2" height="4" fill="#A06828" />
  <rect x="43" y="47" width="2" height="4" fill="#A06828" />
  <rect x="46" y="47" width="2" height="4" fill="#A06828" />
  <!-- Salt on camel 2 -->
  <rect x="40" y="41" width="10" height="2" fill="#E0D8C8" />
  <rect x="41" y="40" width="8" height="2" fill="#E8E0D0" />
  <!-- DATE PALM (Niger river bank) -->
  <rect x="8" y="32" width="2" height="22" fill="#6A4818" />
  <rect x="7" y="30" width="4" height="4" fill="#284A18" />
  <rect x="5" y="31" width="8" height="3" fill="#304E20" />
  <rect x="4" y="32" width="10" height="3" fill="#384A18" />
  <rect x="5" y="33" width="8" height="2" fill="#304018" />
  <rect x="7" y="34" width="4" height="2" fill="#284018" />
  <!-- Palm fronds -->
  <rect x="4" y="30" width="3" height="1" fill="#284A18" />
  <rect x="12" y="31" width="3" height="1" fill="#304E20" />
  <rect x="5" y="29" width="4" height="1" fill="#384A18" />
  <rect x="8" y="28" width="4" height="1" fill="#304018" />
  <!-- Corvan in market (with astrolabe) -->
  <rect x="28" y="45" width="5" height="8" fill="#3A4050" />
  <rect x="28" y="43" width="4" height="2" fill="#D4956A" />
  <rect x="27" y="41" width="6" height="3" fill="#F0F0E8" />
  <rect x="26" y="41" width="2" height="5" fill="#F0F0E8" />
  <rect x="33" y="41" width="2" height="5" fill="#F0F0E8" />
  <rect x="28" y="53" width="2" height="3" fill="#2A2018" />
  <rect x="30" y="53" width="2" height="3" fill="#2A2018" />
  <!-- Turban -->
  <rect x="27" y="40" width="6" height="2" fill="#F8F0DC" />
  <rect x="28" y="39" width="4" height="2" fill="#F0E8D0" />
  <!-- ASTROLABE (brass instrument, circular) -->
  <rect x="33" y="43" width="6" height="6" fill="#C8901C" />
  <rect x="34" y="42" width="4" height="1" fill="#C8901C" />
  <rect x="34" y="49" width="4" height="1" fill="#C8901C" />
  <rect x="33" y="43" width="1" height="6" fill="#C8901C" />
  <rect x="39" y="43" width="1" height="6" fill="#C8901C" />
  <rect x="35" y="44" width="2" height="4" fill="#A87010" />
  <rect x="36" y="44" width="1" height="1" fill="#FFD060" />
  <rect x="36" y="47" width="1" height="1" fill="#FFD060" />
  <!-- Gold dust piles in market -->
  <rect x="16" y="50" width="4" height="2" fill="#FFD700" />
  <rect x="17" y="49" width="3" height="1" fill="#FFEC60" />
  <rect x="20" y="52" width="3" height="2" fill="#FFB800" />
  <!-- Salt slabs on ground -->
  <rect x="60" y="52" width="8" height="3" fill="#E8E0D0" />
  <rect x="61" y="51" width="6" height="2" fill="#F0E8D8" />
  <rect x="60" y="52" width="1" height="2" fill="#D0C8B8" />
  <rect x="66" y="52" width="1" height="2" fill="#D0C8B8" />
  <!-- Manuscript / scroll -->
  <rect x="22" y="53" width="6" height="3" fill="#E8D890" />
  <rect x="23" y="52" width="4" height="1" fill="#D8C880" />
  <rect x="22" y="53" width="1" height="3" fill="#B8A060" />
  <rect x="27" y="53" width="1" height="3" fill="#B8A060" />
  <!-- Corner bolts -->
  <rect x="4" y="4" width="3" height="3" fill="#C8A060" />
  <rect x="73" y="4" width="3" height="3" fill="#C8A060" />
  <rect x="4" y="73" width="3" height="3" fill="#C8A060" />
  <rect x="73" y="73" width="3" height="3" fill="#C8A060" />
  <rect x="5" y="5" width="1" height="1" fill="#FFD080" />
  <rect x="74" y="5" width="1" height="1" fill="#FFD080" />
  <rect x="5" y="74" width="1" height="1" fill="#FFD080" />
  <rect x="74" y="74" width="1" height="1" fill="#FFD080" />
</svg>