<?xml version="1.0" encoding="UTF-8" standalone="no"?>
<svg viewBox="0 0 320 180" shape-rendering="crispEdges" width="640" height="360" id="c52_4" sodipodi:docname="5_2_cena4_oficina_pigmento.svg" inkscape:version="1.4.3 (0d15f75, 2025-12-25)" xmlns:inkscape="http://www.inkscape.org/namespaces/inkscape" xmlns:sodipodi="http://sodipodi.sourceforge.net/DTD/sodipodi-0.0.dtd" xmlns="http://www.w3.org/2000/svg"><defs/>
<rect x="90" y="0" width="140" height="80" fill="#1A3888"/>
<rect x="94" y="0" width="132" height="40" fill="#1E3C94"/>
<rect x="98" y="0" width="124" height="20" fill="#2040A0"/>
<rect x="90" y="30" width="30" height="50" fill="#E8E0CC"/>
<rect x="92" y="22" width="28" height="20" fill="#F0E8D4"/>
<rect x="96" y="16" width="20" height="16" fill="#F4ECD8"/>
<rect x="100" y="10" width="14" height="12" fill="#F8F0E0"/>
<rect x="104" y="6" width="8" height="8" fill="#FAF4E8"/>
<rect x="106" y="2" width="6" height="6" fill="#FEFAF4"/>
<rect x="148" y="26" width="32" height="54" fill="#E8E0CC"/>
<rect x="152" y="20" width="28" height="18" fill="#F0E8D4"/>
<rect x="156" y="14" width="20" height="14" fill="#F4ECD8"/>
<rect x="160" y="8" width="14" height="10" fill="#F8F0E0"/>
<rect x="163" y="4" width="10" height="6" fill="#FAF4E8"/>
<rect x="96" y="20" width="4" height="20" fill="#2040A0"/>
<rect x="97" y="18" width="3" height="10" fill="#2848AC"/>
<rect x="98" y="20" width="2" height="8" fill="#3050B0"/>
<rect x="156" y="18" width="4" height="18" fill="#2040A0"/>
<rect x="157" y="16" width="3" height="10" fill="#2848AC"/>
<rect x="120" y="40" width="60" height="40" fill="#C4903A"/>
<rect x="124" y="44" width="52" height="36" fill="#CC9840"/>
<rect x="128" y="48" width="44" height="32" fill="#D4A048"/>
<rect x="90" y="48" width="2" height="32" fill="#2A1808"/>
<rect x="88" y="44" width="8" height="8" fill="#1E3010"/>
<rect x="90" y="40" width="4" height="6" fill="#1E3010"/>
<rect x="224" y="50" width="2" height="30" fill="#2A1808"/>
<rect x="222" y="46" width="8" height="8" fill="#1E3010"/>
<rect x="224" y="42" width="4" height="6" fill="#1E3010"/>
<rect x="0" y="0" width="92" height="180" fill="#E8E4D8"/>
<rect x="0" y="0" width="86" height="180" fill="#F0EBE0"/>
<rect x="0" y="0" width="80" height="180" fill="#EEEAD8"/>
<rect x="0" y="4" width="80" height="3" fill="#D8D0B8"/>
<rect x="4" y="11" width="72" height="2" fill="#DDD5BD"/>
<rect x="0" y="18" width="80" height="3" fill="#D8D0B8"/>
<rect x="4" y="25" width="72" height="2" fill="#DDD5BD"/>
<rect x="0" y="32" width="80" height="3" fill="#D8D0B8"/>
<rect x="4" y="39" width="72" height="2" fill="#DDD5BD"/>
<rect x="0" y="46" width="80" height="3" fill="#D8D0B8"/>
<rect x="4" y="53" width="72" height="2" fill="#DDD5BD"/>
<rect x="0" y="60" width="80" height="3" fill="#D8D0B8"/>
<rect x="4" y="67" width="72" height="2" fill="#DDD5BD"/>
<rect x="0" y="74" width="80" height="3" fill="#D8D0B8"/>
<rect x="4" y="81" width="72" height="2" fill="#DDD5BD"/>
<rect x="0" y="88" width="80" height="3" fill="#D8D0B8"/>
<rect x="4" y="95" width="72" height="2" fill="#DDD5BD"/>
<rect x="0" y="102" width="80" height="3" fill="#D8D0B8"/>
<rect x="4" y="109" width="72" height="2" fill="#DDD5BD"/>
<rect x="0" y="116" width="80" height="3" fill="#D8D0B8"/>
<rect x="4" y="123" width="72" height="2" fill="#DDD5BD"/>
<rect x="0" y="130" width="80" height="3" fill="#D8D0B8"/>
<rect x="4" y="137" width="72" height="2" fill="#DDD5BD"/>
<rect x="0" y="144" width="80" height="3" fill="#D8D0B8"/>
<rect x="4" y="151" width="72" height="2" fill="#DDD5BD"/>
<rect x="0" y="158" width="80" height="3" fill="#D8D0B8"/>
<rect x="4" y="165" width="72" height="2" fill="#DDD5BD"/>
<rect x="0" y="172" width="80" height="3" fill="#D8D0B8"/>
<rect x="4" y="179" width="72" height="2" fill="#DDD5BD"/>
<rect x="228" y="0" width="92" height="180" fill="#E8E4D8"/>
<rect x="234" y="0" width="86" height="180" fill="#F0EBE0"/>
<rect x="240" y="0" width="80" height="180" fill="#EEEAD8"/>
<rect x="240" y="4" width="80" height="3" fill="#D8D0B8"/>
<rect x="244" y="11" width="72" height="2" fill="#DDD5BD"/>
<rect x="240" y="18" width="80" height="3" fill="#D8D0B8"/>
<rect x="244" y="25" width="72" height="2" fill="#DDD5BD"/>
<rect x="240" y="32" width="80" height="3" fill="#D8D0B8"/>
<rect x="244" y="39" width="72" height="2" fill="#DDD5BD"/>
<rect x="240" y="46" width="80" height="3" fill="#D8D0B8"/>
<rect x="244" y="53" width="72" height="2" fill="#DDD5BD"/>
<rect x="240" y="60" width="80" height="3" fill="#D8D0B8"/>
<rect x="244" y="67" width="72" height="2" fill="#DDD5BD"/>
<rect x="240" y="74" width="80" height="3" fill="#D8D0B8"/>
<rect x="244" y="81" width="72" height="2" fill="#DDD5BD"/>
<rect x="240" y="88" width="80" height="3" fill="#D8D0B8"/>
<rect x="244" y="95" width="72" height="2" fill="#DDD5BD"/>
<rect x="240" y="102" width="80" height="3" fill="#D8D0B8"/>
<rect x="244" y="109" width="72" height="2" fill="#DDD5BD"/>
<rect x="240" y="116" width="80" height="3" fill="#D8D0B8"/>
<rect x="244" y="123" width="72" height="2" fill="#DDD5BD"/>
<rect x="240" y="130" width="80" height="3" fill="#D8D0B8"/>
<rect x="244" y="137" width="72" height="2" fill="#DDD5BD"/>
<rect x="240" y="144" width="80" height="3" fill="#D8D0B8"/>
<rect x="244" y="151" width="72" height="2" fill="#DDD5BD"/>
<rect x="240" y="158" width="80" height="3" fill="#D8D0B8"/>
<rect x="244" y="165" width="72" height="2" fill="#DDD5BD"/>
<rect x="240" y="172" width="80" height="3" fill="#D8D0B8"/>
<rect x="244" y="179" width="72" height="2" fill="#DDD5BD"/>
<rect x="0" y="0" width="320" height="8" fill="#D8D4C8"/>
<rect x="90" y="0" width="140" height="8" fill="#0A0A12"/>
<rect x="0" y="162" width="320" height="18" fill="#C4B898"/>
<rect x="0" y="162" width="320" height="4" fill="#CCC0A0"/>
<rect x="60" y="164" width="80" height="8" fill="#1A2850"/>
<rect x="65" y="165" width="70" height="5" fill="#2030608"/>
<rect x="70" y="165" width="60" height="4" fill="#203060"/>
<rect x="72" y="166" width="56" height="3" fill="#283878"/>
<rect x="75" y="167" width="50" height="2" fill="#304090"/>
<rect x="100" y="166" width="12" height="4" fill="#2040A0"/>
<rect x="115" y="165" width="8" height="4" fill="#2848AC"/>
<rect x="130" y="167" width="12" height="3" fill="#2040A0"/>
<rect x="148" y="165" width="10" height="4" fill="#2848AC"/>
<rect x="164" y="166" width="12" height="3" fill="#2040A0"/>
<rect x="8" y="30" width="50" height="80" fill="#0E1840"/>
<rect x="10" y="28" width="48" height="84" fill="#101C48"/>
<rect x="12" y="26" width="46" height="88" fill="#1A2858"/>
<rect x="14" y="24" width="42" height="92" fill="#2030688"/>
<rect x="16" y="22" width="38" height="96" fill="#2838708"/>
<rect x="18" y="22" width="26" height="96" fill="#20388880"/>
<rect x="8" y="30" width="50" height="80" fill="#101E50"/>
<rect x="10" y="28" width="48" height="82" fill="#141E5A"/>
<rect x="12" y="26" width="44" height="86" fill="#1A2868"/>
<rect x="14" y="24" width="40" height="88" fill="#203080"/>
<rect x="16" y="22" width="36" height="90" fill="#243490"/>
<rect x="18" y="20" width="30" height="92" fill="#283898"/>
<rect x="20" y="18" width="26" height="94" fill="#2C3CA0"/>
<rect x="22" y="16" width="22" height="96" fill="#3040A8"/>
<rect x="24" y="14" width="18" height="98" fill="#3448B0"/>
<rect x="26" y="12" width="14" height="100" fill="#3850B8"/>
<rect x="28" y="10" width="10" height="102" fill="#3C58C0"/>
<rect x="6" y="34" width="4" height="74" fill="#0A1230"/>
<rect x="60" y="28" width="4" height="80" fill="#0A1230"/>
<rect x="28" y="160" width="40" height="18" fill="#1A2868"/>
<rect x="30" y="161" width="36" height="17" fill="#1E3080"/>
<rect x="32" y="162" width="32" height="16" fill="#243498"/>
<rect x="34" y="163" width="28" height="15" fill="#2C3CA8"/>
<rect x="36" y="164" width="24" height="14" fill="#303EA8"/>
<rect x="38" y="165" width="20" height="13" fill="#3444B0"/>
<rect x="54" y="22" width="22" height="44" fill="#5A9898"/>
<rect x="56" y="20" width="18" height="46" fill="#68AAAA"/>
<rect x="58" y="18" width="14" height="48" fill="#70B0B0"/>
<rect x="56" y="28" width="18" height="34" fill="#1A2888"/>
<rect x="58" y="30" width="14" height="30" fill="#2030A0"/>
<rect x="60" y="32" width="10" height="26" fill="#2838A8"/>
<rect x="62" y="34" width="6" height="22" fill="#3040B0"/>
<rect x="63" y="36" width="4" height="18" fill="#3848B8"/>
<rect x="56" y="28" width="18" height="3" fill="#4050C0"/>
<rect x="57" y="27" width="16" height="2" fill="#5060C8"/>
<rect x="58" y="26" width="14" height="2" fill="#6070D0"/>
<rect x="56" y="22" width="4" height="12" fill="#90D0D0"/>
<rect x="57" y="20" width="2" height="8" fill="#A8E0E0"/>
<rect x="60" y="14" width="10" height="8" fill="#68AAAA"/>
<rect x="61" y="10" width="8" height="6" fill="#70B0B0"/>
<rect x="62" y="6" width="6" height="6" fill="#78B8B8"/>
<rect x="60" y="4" width="10" height="6" fill="#C83028"/>
<rect x="61" y="3" width="8" height="4" fill="#D83830"/>
<rect x="62" y="2" width="6" height="2" fill="#E04038"/>
<rect x="61" y="4" width="4" height="2" fill="#F04848"/>
<rect x="52" y="64" width="26" height="4" fill="#C89020"/>
<rect x="54" y="66" width="22" height="3" fill="#D4A028"/>
<rect x="54" y="68" width="22" height="2" fill="#B88018"/>
<rect x="88" y="0" width="6" height="68" fill="#E8D898"/>
<rect x="90" y="0" width="3" height="60" fill="#F0E4A8"/>
<rect x="91" y="0" width="2" height="55" fill="#F8EEC0"/>
<rect x="160" y="90" width="120" height="16" fill="#9A7040"/>
<rect x="162" y="88" width="116" height="4" fill="#AA8050"/>
<rect x="164" y="90" width="112" height="2" fill="#B88848"/>
<rect x="162" y="104" width="4" height="56" fill="#7A5228"/>
<rect x="272" y="104" width="4" height="56" fill="#7A5228"/>
<rect x="162" y="108" width="112" height="2" fill="#8B6030"/>
<rect x="186" y="72" width="60" height="20" fill="#A8A0A0"/>
<rect x="188" y="70" width="56" height="4" fill="#B8B0B0"/>
<rect x="190" y="68" width="52" height="4" fill="#C0B8B8"/>
<rect x="186" y="72" width="4" height="20" fill="#989090"/>
<rect x="242" y="72" width="4" height="20" fill="#989090"/>
<rect x="190" y="74" width="52" height="16" fill="#1A2888"/>
<rect x="192" y="76" width="48" height="12" fill="#2030A0"/>
<rect x="196" y="78" width="40" height="8" fill="#2838A8"/>
<rect x="200" y="80" width="32" height="4" fill="#3040B0"/>
<rect x="204" y="82" width="24" height="2" fill="#3848B8"/>
<rect x="208" y="82" width="16" height="2" fill="#4050C0"/>
<rect x="188" y="70" width="8" height="4" fill="#2040A0"/>
<rect x="200" y="68" width="10" height="4" fill="#2848AC"/>
<rect x="218" y="70" width="8" height="4" fill="#2040A0"/>
<rect x="232" y="68" width="10" height="4" fill="#2848AC"/>
<rect x="218" y="58" width="8" height="16" fill="#B0A8A8"/>
<rect x="219" y="54" width="6" height="6" fill="#C0B8B8"/>
<rect x="220" y="50" width="4" height="6" fill="#CCCCC0"/>
<rect x="221" y="46" width="2" height="6" fill="#D0CCCC"/>
<rect x="168" y="80" width="16" height="12" fill="#1A2888"/>
<rect x="169" y="79" width="14" height="4" fill="#2040A0"/>
<rect x="170" y="80" width="12" height="10" fill="#2848AC"/>
<rect x="171" y="81" width="4" height="4" fill="#C8A020"/>
<rect x="175" y="82" width="3" height="3" fill="#FFCC30"/>
<rect x="170" y="79" width="8" height="2" fill="#2848AC"/>
<rect x="250" y="78" width="18" height="14" fill="#2040A0"/>
<rect x="252" y="76" width="14" height="4" fill="#2848AC"/>
<rect x="252" y="78" width="14" height="12" fill="#2040A0"/>
<rect x="254" y="80" width="8" height="4" fill="#EAE8E0"/>
<rect x="254" y="83" width="4" height="4" fill="#C8A020"/>
<rect x="258" y="81" width="3" height="3" fill="#FFCC30"/>
<rect x="166" y="92" width="10" height="6" fill="#1A2888"/>
<rect x="167" y="91" width="8" height="2" fill="#3040B0"/>
<rect x="180" y="92" width="10" height="6" fill="#1A2888"/>
<rect x="181" y="91" width="8" height="2" fill="#3040B0"/>
<rect x="264" y="93" width="10" height="5" fill="#1A2888"/>
<rect x="265" y="92" width="8" height="2" fill="#3040B0"/>
<rect x="245" y="86" width="14" height="8" fill="#8A7828"/>
<rect x="246" y="84" width="12" height="4" fill="#9A8830"/>
<rect x="246" y="86" width="12" height="6" fill="#E8D490"/>
<rect x="166" y="106" width="20" height="6" fill="#E8D890"/>
<rect x="167" y="105" width="18" height="2" fill="#DEC878"/>
<rect x="166" y="106" width="2" height="6" fill="#B8A060"/>
<rect x="184" y="106" width="2" height="6" fill="#B8A060"/>
<rect x="0" y="70" width="30" height="4" fill="#C8B898"/>
<rect x="1" y="69" width="28" height="2" fill="#D4C4A4"/>
<rect x="4" y="58" width="22" height="14" fill="#1A2888"/>
<rect x="5" y="56" width="20" height="4" fill="#2040A0"/>
<rect x="6" y="58" width="18" height="12" fill="#2848AC"/>
<rect x="7" y="60" width="6" height="5" fill="#C8A020"/>
<rect x="14" y="62" width="4" height="4" fill="#FFCC30"/>
<rect x="10" y="65" width="5" height="3" fill="#C8A020"/>
<rect x="8" y="60" width="6" height="5" fill="#EAE8E0"/>
<rect x="16" y="64" width="4" height="4" fill="#F4F2EA"/>
<rect x="2" y="46" width="18" height="14" fill="#3A3A60"/>
<rect x="3" y="44" width="16" height="4" fill="#4A4A70"/>
<rect x="4" y="46" width="14" height="12" fill="#2030A0"/>
<rect x="5" y="48" width="12" height="8" fill="#2838A8"/>
<rect x="6" y="50" width="10" height="4" fill="#3040B0"/>
<rect x="7" y="52" width="8" height="2" fill="#4050C0"/>
<rect x="4" y="46" width="14" height="3" fill="#4060C8"/>
<rect x="5" y="45" width="12" height="2" fill="#5070D0"/>
<rect x="6" y="44" width="10" height="2" fill="#6080D8"/>
<rect x="7" y="43" width="8" height="1" fill="#7090E0"/>
<rect x="90" y="0" width="140" height="180" fill="#0A0A12"/>
<rect x="92" y="160" width="136" height="12" fill="#D8C880"/>
<rect x="95" y="162" width="130" height="10" fill="#DDD090"/>
<rect x="100" y="164" width="120" height="8" fill="#D4C880"/>
<rect x="230" y="0" width="10" height="180" fill="#E0D498"/>
<rect x="232" y="0" width="8" height="180" fill="#D8CC90"/>
<rect x="234" y="0" width="6" height="80" fill="#D0C488"/></svg>