<?xml version="1.0" encoding="UTF-8" standalone="no"?>
<svg
   viewBox="0 0 180 180"
   width="180"
   height="180"
   role="img"
   version="1.1"
   id="svg90"
   sodipodi:docname="card_5_3_magnetita.svg"
   inkscape:version="1.4.3 (0d15f75, 2025-12-25)"
   xmlns:inkscape="http://www.inkscape.org/namespaces/inkscape"
   xmlns:sodipodi="http://sodipodi.sourceforge.net/DTD/sodipodi-0.dtd"
   xmlns="http://www.w3.org/2000/svg"
   xmlns:svg="http://www.w3.org/2000/svg">
  <defs
     id="defs90" />
  <sodipodi:namedview
     id="namedview90"
     pagecolor="#ffffff"
     bordercolor="#000000"
     borderopacity="0.25"
     inkscape:showpageshadow="2"
     inkscape:pageopacity="0.0"
     inkscape:pagecheckerboard="0"
     inkscape:deskcolor="#d1d1d1"
     inkscape:zoom="4.04"
     inkscape:cx="90.09901"
     inkscape:cy="90.09901"
     inkscape:window-width="1920"
     inkscape:window-height="1001"
     inkscape:window-x="-9"
     inkscape:window-y="-9"
     inkscape:window-maximized="1"
     inkscape:current-layer="svg90" />
  <title
     id="title1">Card 5.3 - Magnetita da China Song</title>
  <g
     transform="scale(2.25)"
     id="g90">
    <!-- Borda ajustada: tons cinza ferroso/metálico em vez de marrom -->
    <rect
       x="0"
       y="0"
       width="80"
       height="80"
       fill="#1c1c22"
       id="rect1" />
    <rect
       x="2"
       y="2"
       width="76"
       height="76"
       fill="#2a2a32"
       id="rect2" />
    <rect
       x="3"
       y="3"
       width="74"
       height="74"
       fill="#0f0f14"
       id="rect3" />
    <rect
       x="3"
       y="3"
       width="74"
       height="1"
       fill="#4a4a5a"
       id="rect4" />
    <rect
       x="3"
       y="3"
       width="1"
       height="74"
       fill="#4a4a5a"
       id="rect5" />
    <rect
       x="3"
       y="76"
       width="74"
       height="1"
       fill="#080810"
       id="rect6" />
    <rect
       x="76"
       y="3"
       width="1"
       height="74"
       fill="#080810"
       id="rect7" />
    <!-- Cantos dourados (mantidos iguais) -->
    <rect
       x="4"
       y="4"
       width="3"
       height="3"
       fill="#c8a060"
       id="rect8" />
    <rect
       x="73"
       y="4"
       width="3"
       height="3"
       fill="#c8a060"
       id="rect9" />
    <rect
       x="4"
       y="73"
       width="3"
       height="3"
       fill="#c8a060"
       id="rect10" />
    <rect
       x="73"
       y="73"
       width="3"
       height="3"
       fill="#c8a060"
       id="rect11" />
    <rect
       x="5"
       y="5"
       width="1"
       height="1"
       fill="#ffd080"
       id="rect12" />
    <rect
       x="74"
       y="5"
       width="1"
       height="1"
       fill="#ffd080"
       id="rect13" />
    <rect
       x="5"
       y="74"
       width="1"
       height="1"
       fill="#ffd080"
       id="rect14" />
    <rect
       x="74"
       y="74"
       width="1"
       height="1"
       fill="#ffd080"
       id="rect15" />
    <!-- Conteúdo original do card 5.3 -->
    <rect
       x="4"
       y="4"
       width="72"
       height="28"
       fill="#7090a8"
       id="rect16" />
    <rect
       x="4"
       y="4"
       width="72"
       height="8"
       fill="#8aa8c0"
       id="rect17" />
    <rect
       x="24"
       y="4"
       width="10"
       height="16"
       fill="#9090a0"
       id="rect18" />
    <rect
       x="22"
       y="6"
       width="12"
       height="14"
       fill="#a0a0b0"
       id="rect19" />
    <rect
       x="20"
       y="8"
       width="10"
       height="12"
       fill="#b0b0c0"
       id="rect20" />
    <rect
       x="46"
       y="4"
       width="8"
       height="14"
       fill="#9090a0"
       id="rect21" />
    <rect
       x="44"
       y="6"
       width="10"
       height="12"
       fill="#a0a0b0"
       id="rect22" />
    <rect
       x="4"
       y="22"
       width="10"
       height="10"
       fill="#4a7a30"
       id="rect23" />
    <rect
       x="6"
       y="20"
       width="10"
       height="12"
       fill="#528a38"
       id="rect24" />
    <rect
       x="60"
       y="22"
       width="12"
       height="10"
       fill="#4a7a30"
       id="rect25" />
    <rect
       x="62"
       y="19"
       width="10"
       height="13"
       fill="#528a38"
       id="rect26" />
    <rect
       x="4"
       y="24"
       width="18"
       height="28"
       fill="#8b4a2a"
       id="rect27" />
    <rect
       x="5"
       y="25"
       width="16"
       height="27"
       fill="#9a5a38"
       id="rect28" />
    <rect
       x="6"
       y="22"
       width="14"
       height="4"
       fill="#7a3a1a"
       id="rect29" />
    <rect
       x="8"
       y="20"
       width="10"
       height="3"
       fill="#7a3a1a"
       id="rect30" />
    <rect
       x="10"
       y="18"
       width="6"
       height="2"
       fill="#6a2a10"
       id="rect31" />
    <rect
       x="11"
       y="17"
       width="4"
       height="1"
       fill="#5a1a08"
       id="rect32" />
    <rect
       x="6"
       y="44"
       width="14"
       height="6"
       fill="#ff4a00"
       id="rect33" />
    <rect
       x="7"
       y="43"
       width="12"
       height="7"
       fill="#ff6a10"
       id="rect34" />
    <rect
       x="8"
       y="44"
       width="10"
       height="5"
       fill="#ff8a20"
       id="rect35" />
    <rect
       x="9"
       y="45"
       width="8"
       height="3"
       fill="#ffa030"
       id="rect36" />
    <rect
       x="5"
       y="28"
       width="16"
       height="1"
       fill="#7a3a1a"
       id="rect37" />
    <rect
       x="5"
       y="32"
       width="16"
       height="1"
       fill="#7a3a1a"
       id="rect38" />
    <rect
       x="5"
       y="36"
       width="16"
       height="1"
       fill="#7a3a1a"
       id="rect39" />
    <rect
       x="5"
       y="40"
       width="16"
       height="1"
       fill="#7a3a1a"
       id="rect40" />
    <rect
       x="54"
       y="28"
       width="14"
       height="24"
       fill="#8b4a2a"
       id="rect41" />
    <rect
       x="55"
       y="29"
       width="12"
       height="23"
       fill="#9a5a38"
       id="rect42" />
    <rect
       x="56"
       y="26"
       width="12"
       height="4"
       fill="#7a3a1a"
       id="rect43" />
    <rect
       x="58"
       y="24"
       width="8"
       height="3"
       fill="#6a2a10"
       id="rect44" />
    <rect
       x="56"
       y="44"
       width="10"
       height="6"
       fill="#ff5a10"
       id="rect45" />
    <rect
       x="36"
       y="20"
       width="30"
       height="30"
       fill="#c8a060"
       id="rect46" />
    <rect
       x="37"
       y="21"
       width="28"
       height="28"
       fill="#d4b070"
       id="rect47" />
    <rect
       x="34"
       y="18"
       width="34"
       height="4"
       fill="#8b3a1a"
       id="rect48" />
    <rect
       x="36"
       y="16"
       width="30"
       height="4"
       fill="#9b4a28"
       id="rect49" />
    <rect
       x="38"
       y="14"
       width="26"
       height="3"
       fill="#8b3a1a"
       id="rect50" />
    <rect
       x="40"
       y="13"
       width="22"
       height="2"
       fill="#7a2a10"
       id="rect51" />
    <rect
       x="33"
       y="19"
       width="3"
       height="2"
       fill="#7a2a10"
       id="rect52" />
    <rect
       x="66"
       y="19"
       width="3"
       height="2"
       fill="#7a2a10"
       id="rect53" />
    <rect
       x="40"
       y="24"
       width="6"
       height="8"
       fill="#2a1a08"
       id="rect54" />
    <rect
       x="41"
       y="25"
       width="4"
       height="6"
       fill="#ff9020"
       id="rect55" />
    <rect
       x="52"
       y="24"
       width="6"
       height="8"
       fill="#2a1a08"
       id="rect56" />
    <rect
       x="53"
       y="25"
       width="4"
       height="6"
       fill="#ff9020"
       id="rect57" />
    <rect
       x="46"
       y="34"
       width="6"
       height="14"
       fill="#2a1a08"
       id="rect58" />
    <rect
       x="4"
       y="56"
       width="72"
       height="10"
       fill="#4a7898"
       id="rect59" />
    <rect
       x="4"
       y="56"
       width="72"
       height="2"
       fill="#5a90b0"
       id="rect60" />
    <rect
       x="10"
       y="57"
       width="8"
       height="1"
       fill="#6aaac4"
       id="rect61" />
    <rect
       x="28"
       y="58"
       width="10"
       height="1"
       fill="#5a9ab4"
       id="rect62" />
    <rect
       x="30"
       y="54"
       width="10"
       height="3"
       fill="#6a6860"
       id="rect63" />
    <rect
       x="32"
       y="46"
       width="6"
       height="8"
       fill="#e8e8e8"
       id="rect64" />
    <rect
       x="33"
       y="42"
       width="2"
       height="5"
       fill="#e8e8e8"
       id="rect65" />
    <rect
       x="32"
       y="40"
       width="4"
       height="2"
       fill="#e8e8e8"
       id="rect66" />
    <rect
       x="33"
       y="39"
       width="2"
       height="1"
       fill="#cc2222"
       id="rect67" />
    <rect
       x="32"
       y="41"
       width="2"
       height="1"
       fill="#222222"
       id="rect68" />
    <rect
       x="35"
       y="40"
       width="3"
       height="1"
       fill="#b0a050"
       id="rect69" />
    <rect
       x="31"
       y="50"
       width="2"
       height="4"
       fill="#222222"
       id="rect70" />
    <rect
       x="37"
       y="50"
       width="2"
       height="4"
       fill="#222222"
       id="rect71" />
    <rect
       x="33"
       y="54"
       width="1"
       height="2"
       fill="#cc3030"
       id="rect72" />
    <rect
       x="35"
       y="54"
       width="1"
       height="2"
       fill="#cc3030"
       id="rect73" />
    <rect
       x="50"
       y="55"
       width="12"
       height="7"
       fill="#8b3a1a"
       id="rect74" />
    <rect
       x="51"
       y="56"
       width="10"
       height="5"
       fill="#5090c8"
       id="rect75" />
    <rect
       x="51"
       y="56"
       width="10"
       height="1"
       fill="#6aaad8"
       id="rect76" />
    <rect
       x="55"
       y="57"
       width="2"
       height="1"
       fill="#d0d0d0"
       id="rect77" />
    <rect
       x="55"
       y="58"
       width="2"
       height="1"
       fill="#d0d0d0"
       id="rect78" />
    <rect
       x="55"
       y="60"
       width="2"
       height="1"
       fill="#cc3030"
       id="rect79" />
    <rect
       x="56"
       y="61"
       width="1"
       height="1"
       fill="#ee4040"
       id="rect80" />
    <rect
       x="55"
       y="59"
       width="2"
       height="1"
       fill="#c8a060"
       id="rect81" />
    <rect
       x="47"
       y="34"
       width="4"
       height="7"
       fill="#2a5a28"
       id="rect82" />
    <rect
       x="47"
       y="32"
       width="4"
       height="2"
       fill="#d4956a"
       id="rect83" />
    <rect
       x="46"
       y="30"
       width="6"
       height="2"
       fill="#2a1a08"
       id="rect84" />
    <rect
       x="18"
       y="60"
       width="5"
       height="4"
       fill="#1a1a20"
       id="rect85" />
    <rect
       x="19"
       y="59"
       width="4"
       height="5"
       fill="#282830"
       id="rect86" />
    <rect
       x="19"
       y="59"
       width="2"
       height="1"
       fill="#4040a0"
       id="rect87" />
    <rect
       x="26"
       y="61"
       width="4"
       height="3"
       fill="#1a1a20"
       id="rect88" />
    <rect
       x="24"
       y="60"
       width="1"
       height="1"
       fill="#505060"
       id="rect89" />
    <rect
       x="4"
       y="66"
       width="72"
       height="10"
       fill="#6a5a38"
       id="rect90" />
  </g>
</svg>
