<?xml version="1.0" encoding="UTF-8" standalone="no"?>
<svg viewBox="0 0 320 180" shape-rendering="crispEdges" width="640" height="360" id="c32_3" sodipodi:docname="3_2_cena3_pantano_cima.svg" inkscape:version="1.4.3 (0d15f75, 2025-12-25)" xmlns:inkscape="http://www.inkscape.org/namespaces/inkscape" xmlns:sodipodi="http://sodipodi.sourceforge.net/DTD/sodipodi-0.0.dtd" xmlns="http://www.w3.org/2000/svg"><defs/>
<rect x="0" y="0" width="320" height="180" fill="#2E2014"/>
<rect x="0" y="0" width="70" height="45" fill="#344020"/>
<rect x="2" y="2" width="66" height="41" fill="#3A4824"/>
<rect x="4" y="4" width="62" height="37" fill="#404E28"/>
<rect x="0" y="100" width="60" height="50" fill="#344020"/>
<rect x="2" y="102" width="56" height="46" fill="#3A4824"/>
<rect x="4" y="104" width="52" height="42" fill="#404E28"/>
<rect x="0" y="148" width="70" height="32" fill="#344020"/>
<rect x="2" y="150" width="66" height="28" fill="#3A4824"/>
<rect x="4" y="152" width="62" height="24" fill="#404E28"/>
<rect x="240" y="0" width="80" height="55" fill="#344020"/>
<rect x="242" y="2" width="76" height="51" fill="#3A4824"/>
<rect x="244" y="4" width="72" height="47" fill="#404E28"/>
<rect x="260" y="90" width="60" height="60" fill="#344020"/>
<rect x="262" y="92" width="56" height="56" fill="#3A4824"/>
<rect x="264" y="94" width="52" height="52" fill="#404E28"/>
<rect x="250" y="148" width="70" height="32" fill="#344020"/>
<rect x="252" y="150" width="66" height="28" fill="#3A4824"/>
<rect x="254" y="152" width="62" height="24" fill="#404E28"/>
<rect x="90" y="0" width="80" height="40" fill="#344020"/>
<rect x="92" y="2" width="76" height="36" fill="#3A4824"/>
<rect x="94" y="4" width="72" height="32" fill="#404E28"/>
<rect x="80" y="130" width="50" height="50" fill="#344020"/>
<rect x="82" y="132" width="46" height="46" fill="#3A4824"/>
<rect x="84" y="134" width="42" height="42" fill="#404E28"/>
<rect x="155" y="0" width="65" height="35" fill="#344020"/>
<rect x="157" y="2" width="61" height="31" fill="#3A4824"/>
<rect x="159" y="4" width="57" height="27" fill="#404E28"/>
<rect x="160" y="140" width="60" height="40" fill="#344020"/>
<rect x="162" y="142" width="56" height="36" fill="#3A4824"/>
<rect x="164" y="144" width="52" height="32" fill="#404E28"/>
<rect x="4" y="4" width="12" height="10" fill="#3C4A22"/>
<rect x="8" y="30" width="10" height="8" fill="#344020"/>
<rect x="4" y="48" width="12" height="10" fill="#3C4A22"/>
<rect x="8" y="74" width="10" height="8" fill="#344020"/>
<rect x="4" y="92" width="12" height="10" fill="#3C4A22"/>
<rect x="8" y="118" width="10" height="8" fill="#344020"/>
<rect x="4" y="136" width="12" height="10" fill="#3C4A22"/>
<rect x="8" y="162" width="10" height="8" fill="#344020"/>
<rect x="30" y="8" width="10" height="8" fill="#344020"/>
<rect x="26" y="26" width="12" height="10" fill="#3C4A22"/>
<rect x="30" y="52" width="10" height="8" fill="#344020"/>
<rect x="26" y="70" width="12" height="10" fill="#3C4A22"/>
<rect x="30" y="96" width="10" height="8" fill="#344020"/>
<rect x="26" y="114" width="12" height="10" fill="#3C4A22"/>
<rect x="30" y="140" width="10" height="8" fill="#344020"/>
<rect x="26" y="158" width="12" height="10" fill="#3C4A22"/>
<rect x="48" y="4" width="12" height="10" fill="#3C4A22"/>
<rect x="52" y="30" width="10" height="8" fill="#344020"/>
<rect x="48" y="48" width="12" height="10" fill="#3C4A22"/>
<rect x="52" y="74" width="10" height="8" fill="#344020"/>
<rect x="48" y="92" width="12" height="10" fill="#3C4A22"/>
<rect x="52" y="118" width="10" height="8" fill="#344020"/>
<rect x="48" y="136" width="12" height="10" fill="#3C4A22"/>
<rect x="52" y="162" width="10" height="8" fill="#344020"/>
<rect x="74" y="8" width="10" height="8" fill="#344020"/>
<rect x="70" y="26" width="12" height="10" fill="#3C4A22"/>
<rect x="74" y="52" width="10" height="8" fill="#344020"/>
<rect x="70" y="70" width="12" height="10" fill="#3C4A22"/>
<rect x="74" y="96" width="10" height="8" fill="#344020"/>
<rect x="70" y="114" width="12" height="10" fill="#3C4A22"/>
<rect x="74" y="140" width="10" height="8" fill="#344020"/>
<rect x="70" y="158" width="12" height="10" fill="#3C4A22"/>
<rect x="92" y="4" width="12" height="10" fill="#3C4A22"/>
<rect x="96" y="30" width="10" height="8" fill="#344020"/>
<rect x="92" y="48" width="12" height="10" fill="#3C4A22"/>
<rect x="96" y="74" width="10" height="8" fill="#344020"/>
<rect x="92" y="92" width="12" height="10" fill="#3C4A22"/>
<rect x="96" y="118" width="10" height="8" fill="#344020"/>
<rect x="92" y="136" width="12" height="10" fill="#3C4A22"/>
<rect x="96" y="162" width="10" height="8" fill="#344020"/>
<rect x="118" y="8" width="10" height="8" fill="#344020"/>
<rect x="114" y="26" width="12" height="10" fill="#3C4A22"/>
<rect x="118" y="52" width="10" height="8" fill="#344020"/>
<rect x="114" y="70" width="12" height="10" fill="#3C4A22"/>
<rect x="118" y="96" width="10" height="8" fill="#344020"/>
<rect x="114" y="114" width="12" height="10" fill="#3C4A22"/>
<rect x="118" y="140" width="10" height="8" fill="#344020"/>
<rect x="114" y="158" width="12" height="10" fill="#3C4A22"/>
<rect x="136" y="4" width="12" height="10" fill="#3C4A22"/>
<rect x="140" y="30" width="10" height="8" fill="#344020"/>
<rect x="136" y="48" width="12" height="10" fill="#3C4A22"/>
<rect x="140" y="74" width="10" height="8" fill="#344020"/>
<rect x="136" y="92" width="12" height="10" fill="#3C4A22"/>
<rect x="140" y="118" width="10" height="8" fill="#344020"/>
<rect x="136" y="136" width="12" height="10" fill="#3C4A22"/>
<rect x="140" y="162" width="10" height="8" fill="#344020"/>
<rect x="162" y="8" width="10" height="8" fill="#344020"/>
<rect x="158" y="26" width="12" height="10" fill="#3C4A22"/>
<rect x="162" y="52" width="10" height="8" fill="#344020"/>
<rect x="158" y="70" width="12" height="10" fill="#3C4A22"/>
<rect x="162" y="96" width="10" height="8" fill="#344020"/>
<rect x="158" y="114" width="12" height="10" fill="#3C4A22"/>
<rect x="162" y="140" width="10" height="8" fill="#344020"/>
<rect x="158" y="158" width="12" height="10" fill="#3C4A22"/>
<rect x="180" y="4" width="12" height="10" fill="#3C4A22"/>
<rect x="184" y="30" width="10" height="8" fill="#344020"/>
<rect x="180" y="48" width="12" height="10" fill="#3C4A22"/>
<rect x="184" y="74" width="10" height="8" fill="#344020"/>
<rect x="180" y="92" width="12" height="10" fill="#3C4A22"/>
<rect x="184" y="118" width="10" height="8" fill="#344020"/>
<rect x="180" y="136" width="12" height="10" fill="#3C4A22"/>
<rect x="184" y="162" width="10" height="8" fill="#344020"/>
<rect x="206" y="8" width="10" height="8" fill="#344020"/>
<rect x="202" y="26" width="12" height="10" fill="#3C4A22"/>
<rect x="206" y="52" width="10" height="8" fill="#344020"/>
<rect x="202" y="70" width="12" height="10" fill="#3C4A22"/>
<rect x="206" y="96" width="10" height="8" fill="#344020"/>
<rect x="202" y="114" width="12" height="10" fill="#3C4A22"/>
<rect x="206" y="140" width="10" height="8" fill="#344020"/>
<rect x="202" y="158" width="12" height="10" fill="#3C4A22"/>
<rect x="224" y="4" width="12" height="10" fill="#3C4A22"/>
<rect x="228" y="30" width="10" height="8" fill="#344020"/>
<rect x="224" y="48" width="12" height="10" fill="#3C4A22"/>
<rect x="228" y="74" width="10" height="8" fill="#344020"/>
<rect x="224" y="92" width="12" height="10" fill="#3C4A22"/>
<rect x="228" y="118" width="10" height="8" fill="#344020"/>
<rect x="224" y="136" width="12" height="10" fill="#3C4A22"/>
<rect x="228" y="162" width="10" height="8" fill="#344020"/>
<rect x="250" y="8" width="10" height="8" fill="#344020"/>
<rect x="246" y="26" width="12" height="10" fill="#3C4A22"/>
<rect x="250" y="52" width="10" height="8" fill="#344020"/>
<rect x="246" y="70" width="12" height="10" fill="#3C4A22"/>
<rect x="250" y="96" width="10" height="8" fill="#344020"/>
<rect x="246" y="114" width="12" height="10" fill="#3C4A22"/>
<rect x="250" y="140" width="10" height="8" fill="#344020"/>
<rect x="246" y="158" width="12" height="10" fill="#3C4A22"/>
<rect x="268" y="4" width="12" height="10" fill="#3C4A22"/>
<rect x="272" y="30" width="10" height="8" fill="#344020"/>
<rect x="268" y="48" width="12" height="10" fill="#3C4A22"/>
<rect x="272" y="74" width="10" height="8" fill="#344020"/>
<rect x="268" y="92" width="12" height="10" fill="#3C4A22"/>
<rect x="272" y="118" width="10" height="8" fill="#344020"/>
<rect x="268" y="136" width="12" height="10" fill="#3C4A22"/>
<rect x="272" y="162" width="10" height="8" fill="#344020"/>
<rect x="294" y="8" width="10" height="8" fill="#344020"/>
<rect x="290" y="26" width="12" height="10" fill="#3C4A22"/>
<rect x="294" y="52" width="10" height="8" fill="#344020"/>
<rect x="290" y="70" width="12" height="10" fill="#3C4A22"/>
<rect x="294" y="96" width="10" height="8" fill="#344020"/>
<rect x="290" y="114" width="12" height="10" fill="#3C4A22"/>
<rect x="294" y="140" width="10" height="8" fill="#344020"/>
<rect x="290" y="158" width="12" height="10" fill="#3C4A22"/>
<rect x="312" y="4" width="12" height="10" fill="#3C4A22"/>
<rect x="316" y="30" width="10" height="8" fill="#344020"/>
<rect x="312" y="48" width="12" height="10" fill="#3C4A22"/>
<rect x="316" y="74" width="10" height="8" fill="#344020"/>
<rect x="312" y="92" width="12" height="10" fill="#3C4A22"/>
<rect x="316" y="118" width="10" height="8" fill="#344020"/>
<rect x="312" y="136" width="12" height="10" fill="#3C4A22"/>
<rect x="316" y="162" width="10" height="8" fill="#344020"/>
<rect x="70" y="40" width="50" height="60" fill="#3A2810"/>
<rect x="72" y="42" width="46" height="56" fill="#402C14"/>
<rect x="78" y="46" width="10" height="8" fill="#362410"/>
<rect x="92" y="46" width="10" height="8" fill="#362410"/>
<rect x="106" y="46" width="10" height="8" fill="#362410"/>
<rect x="170" y="30" width="60" height="50" fill="#3A2810"/>
<rect x="172" y="32" width="56" height="46" fill="#402C14"/>
<rect x="178" y="36" width="10" height="8" fill="#362410"/>
<rect x="192" y="36" width="10" height="8" fill="#362410"/>
<rect x="206" y="36" width="10" height="8" fill="#362410"/>
<rect x="120" y="110" width="60" height="50" fill="#3A2810"/>
<rect x="122" y="112" width="56" height="46" fill="#402C14"/>
<rect x="128" y="116" width="10" height="8" fill="#362410"/>
<rect x="142" y="116" width="10" height="8" fill="#362410"/>
<rect x="156" y="116" width="10" height="8" fill="#362410"/>
<rect x="0" y="50" width="70" height="50" fill="#3A2810"/>
<rect x="2" y="52" width="66" height="46" fill="#402C14"/>
<rect x="8" y="56" width="10" height="8" fill="#362410"/>
<rect x="22" y="56" width="10" height="8" fill="#362410"/>
<rect x="36" y="56" width="10" height="8" fill="#362410"/>
<rect x="290" y="55" width="30" height="45" fill="#3A2810"/>
<rect x="292" y="57" width="26" height="41" fill="#402C14"/>
<rect x="298" y="61" width="10" height="8" fill="#362410"/>
<rect x="312" y="61" width="10" height="8" fill="#362410"/>
<rect x="326" y="61" width="10" height="8" fill="#362410"/>
<rect x="72" y="42" width="46" height="48" fill="#585660"/>
<rect x="74" y="44" width="42" height="44" fill="#5E5C68"/>
<rect x="76" y="46" width="38" height="40" fill="#626070"/>
<rect x="80" y="66" width="4" height="3" fill="#4A485A"/>
<rect x="81" y="65" width="2" height="1" fill="#686670"/>
<rect x="94" y="66" width="4" height="3" fill="#4A485A"/>
<rect x="95" y="65" width="2" height="1" fill="#686670"/>
<rect x="108" y="66" width="4" height="3" fill="#4A485A"/>
<rect x="109" y="65" width="2" height="1" fill="#686670"/>
<rect x="172" y="32" width="55" height="46" fill="#585660"/>
<rect x="174" y="34" width="51" height="42" fill="#5E5C68"/>
<rect x="176" y="36" width="47" height="38" fill="#626070"/>
<rect x="180" y="55" width="4" height="3" fill="#4A485A"/>
<rect x="181" y="54" width="2" height="1" fill="#686670"/>
<rect x="194" y="55" width="4" height="3" fill="#4A485A"/>
<rect x="195" y="54" width="2" height="1" fill="#686670"/>
<rect x="208" y="55" width="4" height="3" fill="#4A485A"/>
<rect x="209" y="54" width="2" height="1" fill="#686670"/>
<rect x="120" y="112" width="56" height="46" fill="#585660"/>
<rect x="122" y="114" width="52" height="42" fill="#5E5C68"/>
<rect x="124" y="116" width="48" height="38" fill="#626070"/>
<rect x="128" y="135" width="4" height="3" fill="#4A485A"/>
<rect x="129" y="134" width="2" height="1" fill="#686670"/>
<rect x="142" y="135" width="4" height="3" fill="#4A485A"/>
<rect x="143" y="134" width="2" height="1" fill="#686670"/>
<rect x="156" y="135" width="4" height="3" fill="#4A485A"/>
<rect x="157" y="134" width="2" height="1" fill="#686670"/>
<rect x="50" y="62" width="22" height="18" fill="#0C1018"/>
<rect x="52" y="64" width="18" height="14" fill="#0A0C14"/>
<rect x="54" y="66" width="14" height="10" fill="#0E1216"/>
<rect x="54" y="71" width="14" height="1" fill="#181C22"/>
<rect x="56" y="74" width="10" height="1" fill="#141820"/>
<rect x="148" y="80" width="18" height="22" fill="#0C1018"/>
<rect x="150" y="82" width="14" height="18" fill="#0A0C14"/>
<rect x="152" y="84" width="10" height="14" fill="#0E1216"/>
<rect x="152" y="91" width="10" height="1" fill="#181C22"/>
<rect x="154" y="94" width="6" height="1" fill="#141820"/>
<rect x="14" y="62" width="24" height="16" fill="#0C1018"/>
<rect x="16" y="64" width="20" height="12" fill="#0A0C14"/>
<rect x="18" y="66" width="16" height="8" fill="#0E1216"/>
<rect x="18" y="70" width="16" height="1" fill="#181C22"/>
<rect x="20" y="73" width="12" height="1" fill="#141820"/>
<rect x="270" y="62" width="24" height="18" fill="#0C1018"/>
<rect x="272" y="64" width="20" height="14" fill="#0A0C14"/>
<rect x="274" y="66" width="16" height="10" fill="#0E1216"/>
<rect x="274" y="71" width="16" height="1" fill="#181C22"/>
<rect x="276" y="74" width="12" height="1" fill="#141820"/>
<rect x="94" y="145" width="22" height="14" fill="#0C1018"/>
<rect x="96" y="147" width="18" height="10" fill="#0A0C14"/>
<rect x="98" y="149" width="14" height="6" fill="#0E1216"/>
<rect x="98" y="152" width="14" height="1" fill="#181C22"/>
<rect x="100" y="155" width="10" height="1" fill="#141820"/>
<rect x="210" y="100" width="18" height="16" fill="#0C1018"/>
<rect x="212" y="102" width="14" height="12" fill="#0A0C14"/>
<rect x="214" y="104" width="10" height="8" fill="#0E1216"/>
<rect x="214" y="108" width="10" height="1" fill="#181C22"/>
<rect x="216" y="111" width="6" height="1" fill="#141820"/>
<rect x="62" y="162" width="20" height="12" fill="#0C1018"/>
<rect x="64" y="164" width="16" height="8" fill="#0A0C14"/>
<rect x="66" y="166" width="12" height="4" fill="#0E1216"/>
<rect x="66" y="168" width="12" height="1" fill="#181C22"/>
<rect x="68" y="171" width="8" height="1" fill="#141820"/>
<rect x="188" y="160" width="22" height="12" fill="#0C1018"/>
<rect x="190" y="162" width="18" height="8" fill="#0A0C14"/>
<rect x="192" y="164" width="14" height="4" fill="#0E1216"/>
<rect x="192" y="166" width="14" height="1" fill="#181C22"/>
<rect x="194" y="169" width="10" height="1" fill="#141820"/>
<rect x="0" y="0" width="18" height="38" fill="#2A3018"/>
<rect x="4" y="4" width="2" height="3" fill="#1E2410"/>
<rect x="6" y="6" width="3" height="2" fill="#263018"/>
<rect x="8" y="8" width="2" height="3" fill="#1E2410"/>
<rect x="9" y="11" width="3" height="2" fill="#263018"/>
<rect x="12" y="12" width="2" height="3" fill="#1E2410"/>
<rect x="12" y="16" width="3" height="2" fill="#263018"/>
<rect x="16" y="16" width="2" height="3" fill="#1E2410"/>
<rect x="15" y="21" width="3" height="2" fill="#263018"/>
<rect x="2" y="2" width="1" height="34" fill="#3A4020"/>
<rect x="6" y="2" width="1" height="34" fill="#3A4020"/>
<rect x="10" y="2" width="1" height="34" fill="#3A4020"/>
<rect x="14" y="2" width="1" height="34" fill="#3A4020"/>
<rect x="295" y="0" width="25" height="40" fill="#2A3018"/>
<rect x="299" y="4" width="2" height="3" fill="#1E2410"/>
<rect x="301" y="6" width="3" height="2" fill="#263018"/>
<rect x="303" y="8" width="2" height="3" fill="#1E2410"/>
<rect x="304" y="11" width="3" height="2" fill="#263018"/>
<rect x="307" y="12" width="2" height="3" fill="#1E2410"/>
<rect x="307" y="16" width="3" height="2" fill="#263018"/>
<rect x="311" y="16" width="2" height="3" fill="#1E2410"/>
<rect x="310" y="21" width="3" height="2" fill="#263018"/>
<rect x="297" y="2" width="1" height="36" fill="#3A4020"/>
<rect x="301" y="2" width="1" height="36" fill="#3A4020"/>
<rect x="305" y="2" width="1" height="36" fill="#3A4020"/>
<rect x="309" y="2" width="1" height="36" fill="#3A4020"/>
<rect x="313" y="2" width="1" height="36" fill="#3A4020"/>
<rect x="317" y="2" width="1" height="36" fill="#3A4020"/>
<rect x="0" y="140" width="22" height="40" fill="#2A3018"/>
<rect x="4" y="144" width="2" height="3" fill="#1E2410"/>
<rect x="6" y="146" width="3" height="2" fill="#263018"/>
<rect x="8" y="148" width="2" height="3" fill="#1E2410"/>
<rect x="9" y="151" width="3" height="2" fill="#263018"/>
<rect x="12" y="152" width="2" height="3" fill="#1E2410"/>
<rect x="12" y="156" width="3" height="2" fill="#263018"/>
<rect x="16" y="156" width="2" height="3" fill="#1E2410"/>
<rect x="15" y="161" width="3" height="2" fill="#263018"/>
<rect x="2" y="142" width="1" height="36" fill="#3A4020"/>
<rect x="6" y="142" width="1" height="36" fill="#3A4020"/>
<rect x="10" y="142" width="1" height="36" fill="#3A4020"/>
<rect x="14" y="142" width="1" height="36" fill="#3A4020"/>
<rect x="18" y="142" width="1" height="36" fill="#3A4020"/>
<rect x="298" y="138" width="22" height="42" fill="#2A3018"/>
<rect x="302" y="142" width="2" height="3" fill="#1E2410"/>
<rect x="304" y="144" width="3" height="2" fill="#263018"/>
<rect x="306" y="146" width="2" height="3" fill="#1E2410"/>
<rect x="307" y="149" width="3" height="2" fill="#263018"/>
<rect x="310" y="150" width="2" height="3" fill="#1E2410"/>
<rect x="310" y="154" width="3" height="2" fill="#263018"/>
<rect x="314" y="154" width="2" height="3" fill="#1E2410"/>
<rect x="313" y="159" width="3" height="2" fill="#263018"/>
<rect x="300" y="140" width="1" height="38" fill="#3A4020"/>
<rect x="304" y="140" width="1" height="38" fill="#3A4020"/>
<rect x="308" y="140" width="1" height="38" fill="#3A4020"/>
<rect x="312" y="140" width="1" height="38" fill="#3A4020"/>
<rect x="316" y="140" width="1" height="38" fill="#3A4020"/>
<rect x="88" y="4" width="18" height="22" fill="#2A3018"/>
<rect x="92" y="8" width="2" height="3" fill="#1E2410"/>
<rect x="94" y="10" width="3" height="2" fill="#263018"/>
<rect x="96" y="12" width="2" height="3" fill="#1E2410"/>
<rect x="97" y="15" width="3" height="2" fill="#263018"/>
<rect x="100" y="16" width="2" height="3" fill="#1E2410"/>
<rect x="100" y="20" width="3" height="2" fill="#263018"/>
<rect x="104" y="20" width="2" height="3" fill="#1E2410"/>
<rect x="103" y="25" width="3" height="2" fill="#263018"/>
<rect x="90" y="6" width="1" height="18" fill="#3A4020"/>
<rect x="94" y="6" width="1" height="18" fill="#3A4020"/>
<rect x="98" y="6" width="1" height="18" fill="#3A4020"/>
<rect x="102" y="6" width="1" height="18" fill="#3A4020"/>
<rect x="102" y="155" width="20" height="25" fill="#2A3018"/>
<rect x="106" y="159" width="2" height="3" fill="#1E2410"/>
<rect x="108" y="161" width="3" height="2" fill="#263018"/>
<rect x="110" y="163" width="2" height="3" fill="#1E2410"/>
<rect x="111" y="166" width="3" height="2" fill="#263018"/>
<rect x="114" y="167" width="2" height="3" fill="#1E2410"/>
<rect x="114" y="171" width="3" height="2" fill="#263018"/>
<rect x="118" y="171" width="2" height="3" fill="#1E2410"/>
<rect x="117" y="176" width="3" height="2" fill="#263018"/>
<rect x="104" y="157" width="1" height="21" fill="#3A4020"/>
<rect x="108" y="157" width="1" height="21" fill="#3A4020"/>
<rect x="112" y="157" width="1" height="21" fill="#3A4020"/>
<rect x="116" y="157" width="1" height="21" fill="#3A4020"/>
<rect x="196" y="4" width="18" height="18" fill="#2A3018"/>
<rect x="200" y="8" width="2" height="3" fill="#1E2410"/>
<rect x="202" y="10" width="3" height="2" fill="#263018"/>
<rect x="204" y="12" width="2" height="3" fill="#1E2410"/>
<rect x="205" y="15" width="3" height="2" fill="#263018"/>
<rect x="208" y="16" width="2" height="3" fill="#1E2410"/>
<rect x="208" y="20" width="3" height="2" fill="#263018"/>
<rect x="212" y="20" width="2" height="3" fill="#1E2410"/>
<rect x="211" y="25" width="3" height="2" fill="#263018"/>
<rect x="198" y="6" width="1" height="14" fill="#3A4020"/>
<rect x="202" y="6" width="1" height="14" fill="#3A4020"/>
<rect x="206" y="6" width="1" height="14" fill="#3A4020"/>
<rect x="210" y="6" width="1" height="14" fill="#3A4020"/>
<rect x="185" y="158" width="18" height="20" fill="#2A3018"/>
<rect x="189" y="162" width="2" height="3" fill="#1E2410"/>
<rect x="191" y="164" width="3" height="2" fill="#263018"/>
<rect x="193" y="166" width="2" height="3" fill="#1E2410"/>
<rect x="194" y="169" width="3" height="2" fill="#263018"/>
<rect x="197" y="170" width="2" height="3" fill="#1E2410"/>
<rect x="197" y="174" width="3" height="2" fill="#263018"/>
<rect x="201" y="174" width="2" height="3" fill="#1E2410"/>
<rect x="200" y="179" width="3" height="2" fill="#263018"/>
<rect x="187" y="160" width="1" height="16" fill="#3A4020"/>
<rect x="191" y="160" width="1" height="16" fill="#3A4020"/>
<rect x="195" y="160" width="1" height="16" fill="#3A4020"/>
<rect x="199" y="160" width="1" height="16" fill="#3A4020"/>
<rect x="40" y="95" width="14" height="18" fill="#2A3018"/>
<rect x="44" y="99" width="2" height="3" fill="#1E2410"/>
<rect x="46" y="101" width="3" height="2" fill="#263018"/>
<rect x="48" y="103" width="2" height="3" fill="#1E2410"/>
<rect x="49" y="106" width="3" height="2" fill="#263018"/>
<rect x="52" y="107" width="2" height="3" fill="#1E2410"/>
<rect x="52" y="111" width="3" height="2" fill="#263018"/>
<rect x="56" y="111" width="2" height="3" fill="#1E2410"/>
<rect x="55" y="116" width="3" height="2" fill="#263018"/>
<rect x="42" y="97" width="1" height="14" fill="#3A4020"/>
<rect x="46" y="97" width="1" height="14" fill="#3A4020"/>
<rect x="50" y="97" width="1" height="14" fill="#3A4020"/>
<rect x="245" y="95" width="16" height="18" fill="#2A3018"/>
<rect x="249" y="99" width="2" height="3" fill="#1E2410"/>
<rect x="251" y="101" width="3" height="2" fill="#263018"/>
<rect x="253" y="103" width="2" height="3" fill="#1E2410"/>
<rect x="254" y="106" width="3" height="2" fill="#263018"/>
<rect x="257" y="107" width="2" height="3" fill="#1E2410"/>
<rect x="257" y="111" width="3" height="2" fill="#263018"/>
<rect x="261" y="111" width="2" height="3" fill="#1E2410"/>
<rect x="260" y="116" width="3" height="2" fill="#263018"/>
<rect x="247" y="97" width="1" height="14" fill="#3A4020"/>
<rect x="251" y="97" width="1" height="14" fill="#3A4020"/>
<rect x="255" y="97" width="1" height="14" fill="#3A4020"/>
<rect x="14" y="19" width="20" height="10" fill="#C0A010"/>
<rect x="16" y="21" width="16" height="6" fill="#D0B020"/>
<rect x="18" y="23" width="12" height="2" fill="#C8A818"/>
<rect x="23" y="23" width="3" height="3" fill="#D8D0C0"/>
<rect x="287" y="19.5" width="18" height="9" fill="#C0A010"/>
<rect x="289" y="21.5" width="14" height="5" fill="#D0B020"/>
<rect x="291" y="23.5" width="10" height="1" fill="#C8A818"/>
<rect x="295" y="23" width="3" height="3" fill="#D8D0C0"/>
<rect x="14" y="147" width="20" height="10" fill="#C0A010"/>
<rect x="16" y="149" width="16" height="6" fill="#D0B020"/>
<rect x="18" y="151" width="12" height="2" fill="#C8A818"/>
<rect x="23" y="151" width="3" height="3" fill="#D8D0C0"/>
<rect x="287" y="147.5" width="18" height="9" fill="#C0A010"/>
<rect x="289" y="149.5" width="14" height="5" fill="#D0B020"/>
<rect x="291" y="151.5" width="10" height="1" fill="#C8A818"/>
<rect x="295" y="151" width="3" height="3" fill="#D8D0C0"/>
<rect x="149" y="4.5" width="14" height="7" fill="#C0A010"/>
<rect x="151" y="6.5" width="10" height="3" fill="#D0B020"/>
<rect x="153" y="8.5" width="6" height="-1" fill="#C8A818"/>
<rect x="155" y="7" width="3" height="3" fill="#D8D0C0"/>
<rect x="149" y="158.5" width="14" height="7" fill="#C0A010"/>
<rect x="151" y="160.5" width="10" height="3" fill="#D0B020"/>
<rect x="153" y="162.5" width="6" height="-1" fill="#C8A818"/>
<rect x="155" y="161" width="3" height="3" fill="#D8D0C0"/>
<rect x="2" y="2" width="4" height="3" fill="#3A3820"/>
<rect x="14" y="10" width="3" height="4" fill="#343420"/>
<rect x="2" y="24" width="4" height="3" fill="#3A3820"/>
<rect x="14" y="32" width="3" height="4" fill="#343420"/>
<rect x="2" y="46" width="4" height="3" fill="#3A3820"/>
<rect x="14" y="54" width="3" height="4" fill="#343420"/>
<rect x="2" y="68" width="4" height="3" fill="#3A3820"/>
<rect x="14" y="76" width="3" height="4" fill="#343420"/>
<rect x="2" y="90" width="4" height="3" fill="#3A3820"/>
<rect x="14" y="98" width="3" height="4" fill="#343420"/>
<rect x="2" y="112" width="4" height="3" fill="#3A3820"/>
<rect x="14" y="120" width="3" height="4" fill="#343420"/>
<rect x="2" y="134" width="4" height="3" fill="#3A3820"/>
<rect x="14" y="142" width="3" height="4" fill="#343420"/>
<rect x="2" y="156" width="4" height="3" fill="#3A3820"/>
<rect x="14" y="164" width="3" height="4" fill="#343420"/>
<rect x="24" y="2" width="4" height="3" fill="#3A3820"/>
<rect x="36" y="10" width="3" height="4" fill="#343420"/>
<rect x="24" y="24" width="4" height="3" fill="#3A3820"/>
<rect x="36" y="32" width="3" height="4" fill="#343420"/>
<rect x="24" y="46" width="4" height="3" fill="#3A3820"/>
<rect x="36" y="54" width="3" height="4" fill="#343420"/>
<rect x="24" y="68" width="4" height="3" fill="#3A3820"/>
<rect x="36" y="76" width="3" height="4" fill="#343420"/>
<rect x="24" y="90" width="4" height="3" fill="#3A3820"/>
<rect x="36" y="98" width="3" height="4" fill="#343420"/>
<rect x="24" y="112" width="4" height="3" fill="#3A3820"/>
<rect x="36" y="120" width="3" height="4" fill="#343420"/>
<rect x="24" y="134" width="4" height="3" fill="#3A3820"/>
<rect x="36" y="142" width="3" height="4" fill="#343420"/>
<rect x="24" y="156" width="4" height="3" fill="#3A3820"/>
<rect x="36" y="164" width="3" height="4" fill="#343420"/>
<rect x="46" y="2" width="4" height="3" fill="#3A3820"/>
<rect x="58" y="10" width="3" height="4" fill="#343420"/>
<rect x="46" y="24" width="4" height="3" fill="#3A3820"/>
<rect x="58" y="32" width="3" height="4" fill="#343420"/>
<rect x="46" y="46" width="4" height="3" fill="#3A3820"/>
<rect x="58" y="54" width="3" height="4" fill="#343420"/>
<rect x="46" y="68" width="4" height="3" fill="#3A3820"/>
<rect x="58" y="76" width="3" height="4" fill="#343420"/>
<rect x="46" y="90" width="4" height="3" fill="#3A3820"/>
<rect x="58" y="98" width="3" height="4" fill="#343420"/>
<rect x="46" y="112" width="4" height="3" fill="#3A3820"/>
<rect x="58" y="120" width="3" height="4" fill="#343420"/>
<rect x="46" y="134" width="4" height="3" fill="#3A3820"/>
<rect x="58" y="142" width="3" height="4" fill="#343420"/>
<rect x="46" y="156" width="4" height="3" fill="#3A3820"/>
<rect x="58" y="164" width="3" height="4" fill="#343420"/>
<rect x="68" y="2" width="4" height="3" fill="#3A3820"/>
<rect x="80" y="10" width="3" height="4" fill="#343420"/>
<rect x="68" y="24" width="4" height="3" fill="#3A3820"/>
<rect x="80" y="32" width="3" height="4" fill="#343420"/>
<rect x="68" y="46" width="4" height="3" fill="#3A3820"/>
<rect x="80" y="54" width="3" height="4" fill="#343420"/>
<rect x="68" y="68" width="4" height="3" fill="#3A3820"/>
<rect x="80" y="76" width="3" height="4" fill="#343420"/>
<rect x="68" y="90" width="4" height="3" fill="#3A3820"/>
<rect x="80" y="98" width="3" height="4" fill="#343420"/>
<rect x="68" y="112" width="4" height="3" fill="#3A3820"/>
<rect x="80" y="120" width="3" height="4" fill="#343420"/>
<rect x="68" y="134" width="4" height="3" fill="#3A3820"/>
<rect x="80" y="142" width="3" height="4" fill="#343420"/>
<rect x="68" y="156" width="4" height="3" fill="#3A3820"/>
<rect x="80" y="164" width="3" height="4" fill="#343420"/>
<rect x="90" y="2" width="4" height="3" fill="#3A3820"/>
<rect x="102" y="10" width="3" height="4" fill="#343420"/>
<rect x="90" y="24" width="4" height="3" fill="#3A3820"/>
<rect x="102" y="32" width="3" height="4" fill="#343420"/>
<rect x="90" y="46" width="4" height="3" fill="#3A3820"/>
<rect x="102" y="54" width="3" height="4" fill="#343420"/>
<rect x="90" y="68" width="4" height="3" fill="#3A3820"/>
<rect x="102" y="76" width="3" height="4" fill="#343420"/>
<rect x="90" y="90" width="4" height="3" fill="#3A3820"/>
<rect x="102" y="98" width="3" height="4" fill="#343420"/>
<rect x="90" y="112" width="4" height="3" fill="#3A3820"/>
<rect x="102" y="120" width="3" height="4" fill="#343420"/>
<rect x="90" y="134" width="4" height="3" fill="#3A3820"/>
<rect x="102" y="142" width="3" height="4" fill="#343420"/>
<rect x="90" y="156" width="4" height="3" fill="#3A3820"/>
<rect x="102" y="164" width="3" height="4" fill="#343420"/>
<rect x="112" y="2" width="4" height="3" fill="#3A3820"/>
<rect x="124" y="10" width="3" height="4" fill="#343420"/>
<rect x="112" y="24" width="4" height="3" fill="#3A3820"/>
<rect x="124" y="32" width="3" height="4" fill="#343420"/>
<rect x="112" y="46" width="4" height="3" fill="#3A3820"/>
<rect x="124" y="54" width="3" height="4" fill="#343420"/>
<rect x="112" y="68" width="4" height="3" fill="#3A3820"/>
<rect x="124" y="76" width="3" height="4" fill="#343420"/>
<rect x="112" y="90" width="4" height="3" fill="#3A3820"/>
<rect x="124" y="98" width="3" height="4" fill="#343420"/>
<rect x="112" y="112" width="4" height="3" fill="#3A3820"/>
<rect x="124" y="120" width="3" height="4" fill="#343420"/>
<rect x="112" y="134" width="4" height="3" fill="#3A3820"/>
<rect x="124" y="142" width="3" height="4" fill="#343420"/>
<rect x="112" y="156" width="4" height="3" fill="#3A3820"/>
<rect x="124" y="164" width="3" height="4" fill="#343420"/>
<rect x="134" y="2" width="4" height="3" fill="#3A3820"/>
<rect x="146" y="10" width="3" height="4" fill="#343420"/>
<rect x="134" y="24" width="4" height="3" fill="#3A3820"/>
<rect x="146" y="32" width="3" height="4" fill="#343420"/>
<rect x="134" y="46" width="4" height="3" fill="#3A3820"/>
<rect x="146" y="54" width="3" height="4" fill="#343420"/>
<rect x="134" y="68" width="4" height="3" fill="#3A3820"/>
<rect x="146" y="76" width="3" height="4" fill="#343420"/>
<rect x="134" y="90" width="4" height="3" fill="#3A3820"/>
<rect x="146" y="98" width="3" height="4" fill="#343420"/>
<rect x="134" y="112" width="4" height="3" fill="#3A3820"/>
<rect x="146" y="120" width="3" height="4" fill="#343420"/>
<rect x="134" y="134" width="4" height="3" fill="#3A3820"/>
<rect x="146" y="142" width="3" height="4" fill="#343420"/>
<rect x="134" y="156" width="4" height="3" fill="#3A3820"/>
<rect x="146" y="164" width="3" height="4" fill="#343420"/>
<rect x="156" y="2" width="4" height="3" fill="#3A3820"/>
<rect x="168" y="10" width="3" height="4" fill="#343420"/>
<rect x="156" y="24" width="4" height="3" fill="#3A3820"/>
<rect x="168" y="32" width="3" height="4" fill="#343420"/>
<rect x="156" y="46" width="4" height="3" fill="#3A3820"/>
<rect x="168" y="54" width="3" height="4" fill="#343420"/>
<rect x="156" y="68" width="4" height="3" fill="#3A3820"/>
<rect x="168" y="76" width="3" height="4" fill="#343420"/>
<rect x="156" y="90" width="4" height="3" fill="#3A3820"/>
<rect x="168" y="98" width="3" height="4" fill="#343420"/>
<rect x="156" y="112" width="4" height="3" fill="#3A3820"/>
<rect x="168" y="120" width="3" height="4" fill="#343420"/>
<rect x="156" y="134" width="4" height="3" fill="#3A3820"/>
<rect x="168" y="142" width="3" height="4" fill="#343420"/>
<rect x="156" y="156" width="4" height="3" fill="#3A3820"/>
<rect x="168" y="164" width="3" height="4" fill="#343420"/>
<rect x="178" y="2" width="4" height="3" fill="#3A3820"/>
<rect x="190" y="10" width="3" height="4" fill="#343420"/>
<rect x="178" y="24" width="4" height="3" fill="#3A3820"/>
<rect x="190" y="32" width="3" height="4" fill="#343420"/>
<rect x="178" y="46" width="4" height="3" fill="#3A3820"/>
<rect x="190" y="54" width="3" height="4" fill="#343420"/>
<rect x="178" y="68" width="4" height="3" fill="#3A3820"/>
<rect x="190" y="76" width="3" height="4" fill="#343420"/>
<rect x="178" y="90" width="4" height="3" fill="#3A3820"/>
<rect x="190" y="98" width="3" height="4" fill="#343420"/>
<rect x="178" y="112" width="4" height="3" fill="#3A3820"/>
<rect x="190" y="120" width="3" height="4" fill="#343420"/>
<rect x="178" y="134" width="4" height="3" fill="#3A3820"/>
<rect x="190" y="142" width="3" height="4" fill="#343420"/>
<rect x="178" y="156" width="4" height="3" fill="#3A3820"/>
<rect x="190" y="164" width="3" height="4" fill="#343420"/>
<rect x="200" y="2" width="4" height="3" fill="#3A3820"/>
<rect x="212" y="10" width="3" height="4" fill="#343420"/>
<rect x="200" y="24" width="4" height="3" fill="#3A3820"/>
<rect x="212" y="32" width="3" height="4" fill="#343420"/>
<rect x="200" y="46" width="4" height="3" fill="#3A3820"/>
<rect x="212" y="54" width="3" height="4" fill="#343420"/>
<rect x="200" y="68" width="4" height="3" fill="#3A3820"/>
<rect x="212" y="76" width="3" height="4" fill="#343420"/>
<rect x="200" y="90" width="4" height="3" fill="#3A3820"/>
<rect x="212" y="98" width="3" height="4" fill="#343420"/>
<rect x="200" y="112" width="4" height="3" fill="#3A3820"/>
<rect x="212" y="120" width="3" height="4" fill="#343420"/>
<rect x="200" y="134" width="4" height="3" fill="#3A3820"/>
<rect x="212" y="142" width="3" height="4" fill="#343420"/>
<rect x="200" y="156" width="4" height="3" fill="#3A3820"/>
<rect x="212" y="164" width="3" height="4" fill="#343420"/>
<rect x="222" y="2" width="4" height="3" fill="#3A3820"/>
<rect x="234" y="10" width="3" height="4" fill="#343420"/>
<rect x="222" y="24" width="4" height="3" fill="#3A3820"/>
<rect x="234" y="32" width="3" height="4" fill="#343420"/>
<rect x="222" y="46" width="4" height="3" fill="#3A3820"/>
<rect x="234" y="54" width="3" height="4" fill="#343420"/>
<rect x="222" y="68" width="4" height="3" fill="#3A3820"/>
<rect x="234" y="76" width="3" height="4" fill="#343420"/>
<rect x="222" y="90" width="4" height="3" fill="#3A3820"/>
<rect x="234" y="98" width="3" height="4" fill="#343420"/>
<rect x="222" y="112" width="4" height="3" fill="#3A3820"/>
<rect x="234" y="120" width="3" height="4" fill="#343420"/>
<rect x="222" y="134" width="4" height="3" fill="#3A3820"/>
<rect x="234" y="142" width="3" height="4" fill="#343420"/>
<rect x="222" y="156" width="4" height="3" fill="#3A3820"/>
<rect x="234" y="164" width="3" height="4" fill="#343420"/>
<rect x="244" y="2" width="4" height="3" fill="#3A3820"/>
<rect x="256" y="10" width="3" height="4" fill="#343420"/>
<rect x="244" y="24" width="4" height="3" fill="#3A3820"/>
<rect x="256" y="32" width="3" height="4" fill="#343420"/>
<rect x="244" y="46" width="4" height="3" fill="#3A3820"/>
<rect x="256" y="54" width="3" height="4" fill="#343420"/>
<rect x="244" y="68" width="4" height="3" fill="#3A3820"/>
<rect x="256" y="76" width="3" height="4" fill="#343420"/>
<rect x="244" y="90" width="4" height="3" fill="#3A3820"/>
<rect x="256" y="98" width="3" height="4" fill="#343420"/>
<rect x="244" y="112" width="4" height="3" fill="#3A3820"/>
<rect x="256" y="120" width="3" height="4" fill="#343420"/>
<rect x="244" y="134" width="4" height="3" fill="#3A3820"/>
<rect x="256" y="142" width="3" height="4" fill="#343420"/>
<rect x="244" y="156" width="4" height="3" fill="#3A3820"/>
<rect x="256" y="164" width="3" height="4" fill="#343420"/>
<rect x="266" y="2" width="4" height="3" fill="#3A3820"/>
<rect x="278" y="10" width="3" height="4" fill="#343420"/>
<rect x="266" y="24" width="4" height="3" fill="#3A3820"/>
<rect x="278" y="32" width="3" height="4" fill="#343420"/>
<rect x="266" y="46" width="4" height="3" fill="#3A3820"/>
<rect x="278" y="54" width="3" height="4" fill="#343420"/>
<rect x="266" y="68" width="4" height="3" fill="#3A3820"/>
<rect x="278" y="76" width="3" height="4" fill="#343420"/>
<rect x="266" y="90" width="4" height="3" fill="#3A3820"/>
<rect x="278" y="98" width="3" height="4" fill="#343420"/>
<rect x="266" y="112" width="4" height="3" fill="#3A3820"/>
<rect x="278" y="120" width="3" height="4" fill="#343420"/>
<rect x="266" y="134" width="4" height="3" fill="#3A3820"/>
<rect x="278" y="142" width="3" height="4" fill="#343420"/>
<rect x="266" y="156" width="4" height="3" fill="#3A3820"/>
<rect x="278" y="164" width="3" height="4" fill="#343420"/>
<rect x="288" y="2" width="4" height="3" fill="#3A3820"/>
<rect x="300" y="10" width="3" height="4" fill="#343420"/>
<rect x="288" y="24" width="4" height="3" fill="#3A3820"/>
<rect x="300" y="32" width="3" height="4" fill="#343420"/>
<rect x="288" y="46" width="4" height="3" fill="#3A3820"/>
<rect x="300" y="54" width="3" height="4" fill="#343420"/>
<rect x="288" y="68" width="4" height="3" fill="#3A3820"/>
<rect x="300" y="76" width="3" height="4" fill="#343420"/>
<rect x="288" y="90" width="4" height="3" fill="#3A3820"/>
<rect x="300" y="98" width="3" height="4" fill="#343420"/>
<rect x="288" y="112" width="4" height="3" fill="#3A3820"/>
<rect x="300" y="120" width="3" height="4" fill="#343420"/>
<rect x="288" y="134" width="4" height="3" fill="#3A3820"/>
<rect x="300" y="142" width="3" height="4" fill="#343420"/>
<rect x="288" y="156" width="4" height="3" fill="#3A3820"/>
<rect x="300" y="164" width="3" height="4" fill="#343420"/>
<rect x="310" y="2" width="4" height="3" fill="#3A3820"/>
<rect x="322" y="10" width="3" height="4" fill="#343420"/>
<rect x="310" y="24" width="4" height="3" fill="#3A3820"/>
<rect x="322" y="32" width="3" height="4" fill="#343420"/>
<rect x="310" y="46" width="4" height="3" fill="#3A3820"/>
<rect x="322" y="54" width="3" height="4" fill="#343420"/>
<rect x="310" y="68" width="4" height="3" fill="#3A3820"/>
<rect x="322" y="76" width="3" height="4" fill="#343420"/>
<rect x="310" y="90" width="4" height="3" fill="#3A3820"/>
<rect x="322" y="98" width="3" height="4" fill="#343420"/>
<rect x="310" y="112" width="4" height="3" fill="#3A3820"/>
<rect x="322" y="120" width="3" height="4" fill="#343420"/>
<rect x="310" y="134" width="4" height="3" fill="#3A3820"/>
<rect x="322" y="142" width="3" height="4" fill="#343420"/>
<rect x="310" y="156" width="4" height="3" fill="#3A3820"/>
<rect x="322" y="164" width="3" height="4" fill="#343420"/>
<rect x="75" y="50" width="1" height="35" fill="#2E2008"/>
<rect x="91" y="50" width="1" height="35" fill="#2E2008"/>
<rect x="107" y="50" width="1" height="35" fill="#2E2008"/>
<rect x="73" y="44" width="44" height="1" fill="#2E2008"/>
<rect x="73" y="58" width="44" height="1" fill="#2E2008"/>
<rect x="73" y="72" width="44" height="1" fill="#2E2008"/>
<rect x="73" y="86" width="44" height="1" fill="#2E2008"/>
<rect x="0" y="92" width="25" height="8" fill="#3C3220"/>
<rect x="280" y="92" width="40" height="8" fill="#3C3220"/></svg>