<?xml version="1.0" encoding="UTF-8" standalone="no"?>
<svg
   viewBox="0 0 80 80"
   shape-rendering="crispEdges"
   width="160"
   height="160"
   version="1.1"
   id="svg41"
   sodipodi:docname="4_1_kimberley.svg"
   inkscape:version="1.4.3 (0d15f75, 2025-12-25)"
   xmlns:inkscape="http://www.inkscape.org/namespaces/inkscape"
   xmlns:sodipodi="http://sodipodi.sourceforge.net/DTD/sodipodi-0.0.dtd"
   xmlns="http://www.w3.org/2000/svg">
  <defs />
  <!-- Card frame -->
  <rect x="0" y="0" width="80" height="80" fill="#2C1810" />
  <rect x="2" y="2" width="76" height="76" fill="#3D2214" />
  <rect x="3" y="3" width="74" height="74" fill="#1a0f08" />
  <!-- Inner frame highlight -->
  <rect x="3" y="3" width="74" height="1" fill="#6B3A1F" />
  <rect x="3" y="3" width="1" height="74" fill="#6B3A1F" />
  <rect x="3" y="76" width="74" height="1" fill="#0d0804" />
  <rect x="76" y="3" width="1" height="74" fill="#0d0804" />

  <!-- Sky: Blazing African blue -->
  <rect x="4" y="4" width="72" height="30" fill="#4A90C8" />
  <rect x="4" y="4" width="72" height="8" fill="#5AA4DC" />
  <rect x="4" y="8" width="72" height="6" fill="#4E98D0" />
  <!-- Harsh African sun -->
  <rect x="58" y="5" width="8" height="8" fill="#FFE830" />
  <rect x="59" y="4" width="6" height="1" fill="#FFE830" />
  <rect x="59" y="13" width="6" height="1" fill="#FFE830" />
  <rect x="57" y="7" width="1" height="4" fill="#FFE830" />
  <rect x="66" y="7" width="1" height="4" fill="#FFE830" />
  <rect x="58" y="5" width="2" height="2" fill="#FFFB90" />
  <rect x="64" y="5" width="2" height="2" fill="#FFFB90" />
  <rect x="55" y="5" width="1" height="1" fill="#FFCC10" />
  <rect x="55" y="10" width="1" height="1" fill="#FFCC10" />
  <rect x="67" y="5" width="1" height="1" fill="#FFCC10" />
  <rect x="67" y="10" width="1" height="1" fill="#FFCC10" />
  <!-- Heat haze / dust -->
  <rect x="4" y="20" width="72" height="4" fill="#D4904040" />
  <rect x="4" y="22" width="72" height="2" fill="#C88040" />
  <!-- Acacia tree silhouette (flat-top, iconic Africa) -->
  <rect x="6" y="17" width="2" height="17" fill="#3A2410" />
  <rect x="4" y="14" width="10" height="4" fill="#1A3010" />
  <rect x="4" y="13" width="12" height="3" fill="#243818" />
  <rect x="5" y="12" width="10" height="2" fill="#1E3014" />
  <rect x="6" y="11" width="8" height="2" fill="#1A2C10" />
  <rect x="5" y="14" width="2" height="4" fill="#243818" />
  <rect x="12" y="15" width="2" height="2" fill="#1E3014" />
  <!-- Second acacia right -->
  <rect x="70" y="20" width="2" height="14" fill="#3A2410" />
  <rect x="65" y="17" width="10" height="4" fill="#1A3010" />
  <rect x="64" y="16" width="12" height="4" fill="#243818" />
  <rect x="65" y="15" width="10" height="3" fill="#1E3014" />
  <rect x="67" y="14" width="6" height="2" fill="#1A2C10" />
  <!-- Red-orange Karoo savanna ground -->
  <rect x="4" y="30" width="72" height="46" fill="#B8601C" />
  <rect x="4" y="30" width="72" height="2" fill="#CC7020" />
  <rect x="4" y="31" width="72" height="2" fill="#C46818" />
  <!-- Savanna grass -->
  <rect x="4" y="30" width="4" height="3" fill="#A85C18" />
  <rect x="12" y="29" width="3" height="4" fill="#9A5414" />
  <rect x="22" y="30" width="4" height="3" fill="#A85C18" />
  <rect x="60" y="30" width="3" height="3" fill="#A85C18" />
  <rect x="68" y="29" width="4" height="4" fill="#9A5414" />
  <rect x="72" y="30" width="3" height="3" fill="#A85C18" />
  <!-- THE BIG HOLE — massive open-pit diamond mine -->
  <!-- Rim of the hole -->
  <rect x="16" y="28" width="50" height="6" fill="#C87830" />
  <rect x="17" y="27" width="48" height="3" fill="#D88840" />
  <rect x="18" y="26" width="46" height="2" fill="#C87030" />
  <!-- The hole itself (deep, getting darker) -->
  <rect x="19" y="28" width="44" height="48" fill="#180C04" />
  <rect x="20" y="29" width="42" height="6" fill="#241408" />
  <rect x="21" y="31" width="40" height="5" fill="#1E1008" />
  <!-- Kimberlite "blue ground" layers -->
  <rect x="20" y="34" width="42" height="4" fill="#2A3450" />
  <rect x="21" y="35" width="40" height="3" fill="#303C5C" />
  <rect x="22" y="36" width="38" height="2" fill="#282E48" />
  <rect x="20" y="38" width="42" height="3" fill="#222840" />
  <rect x="21" y="39" width="40" height="3" fill="#1E2438" />
  <rect x="20" y="41" width="42" height="4" fill="#263050" />
  <rect x="21" y="42" width="40" height="4" fill="#2E3858" />
  <rect x="20" y="45" width="42" height="5" fill="#222040" />
  <rect x="21" y="46" width="40" height="5" fill="#1E1C38" />
  <rect x="20" y="50" width="42" height="5" fill="#1A1830" />
  <rect x="21" y="51" width="40" height="4" fill="#181428" />
  <rect x="20" y="55" width="42" height="4" fill="#141020" />
  <rect x="21" y="56" width="40" height="3" fill="#100C1C" />
  <rect x="20" y="59" width="42" height="5" fill="#0C0810" />
  <rect x="21" y="60" width="40" height="4" fill="#080408" />
  <rect x="20" y="64" width="42" height="10" fill="#040208" />
  <!-- Kimberlite wall texture/layers left -->
  <rect x="20" y="34" width="3" height="40" fill="#20283C" />
  <rect x="20" y="38" width="2" height="26" fill="#181E30" />
  <!-- Right wall -->
  <rect x="59" y="34" width="3" height="40" fill="#20283C" />
  <rect x="61" y="38" width="2" height="26" fill="#181E30" />
  <!-- DIAMOND crystals glinting in pit walls -->
  <rect x="24" y="36" width="2" height="2" fill="#C8E8FF" />
  <rect x="25" y="35" width="1" height="1" fill="#FFFFFF" />
  <rect x="36" y="40" width="2" height="2" fill="#D0EEFF" />
  <rect x="37" y="39" width="1" height="1" fill="#FFFFFF" />
  <rect x="50" y="37" width="2" height="2" fill="#C0DCFF" />
  <rect x="51" y="36" width="1" height="1" fill="#FFFFFF" />
  <rect x="28" y="44" width="2" height="1" fill="#C8E8FF" />
  <rect x="46" y="43" width="2" height="2" fill="#D0EEFF" />
  <rect x="33" y="50" width="2" height="2" fill="#FFFFFF" />
  <rect x="53" y="48" width="2" height="1" fill="#C8E8FF" />
  <!-- Diamond sparkle crosses -->
  <rect x="25" y="35" width="1" height="3" fill="#E0F4FF" />
  <rect x="24" y="36" width="3" height="1" fill="#E0F4FF" />
  <rect x="37" y="39" width="1" height="3" fill="#E0F4FF" />
  <rect x="36" y="40" width="3" height="1" fill="#E0F4FF" />
  <!-- Headframe structure (iconic mine tower) -->
  <rect x="36" y="20" width="2" height="12" fill="#5A3A10" />
  <rect x="42" y="20" width="2" height="12" fill="#5A3A10" />
  <rect x="34" y="19" width="6" height="2" fill="#6A4A18" />
  <rect x="40" y="19" width="6" height="2" fill="#6A4A18" />
  <rect x="36" y="18" width="8" height="2" fill="#7A5820" />
  <rect x="38" y="17" width="4" height="2" fill="#8A6828" />
  <!-- Pulley top -->
  <rect x="39" y="16" width="2" height="2" fill="#909080" />
  <rect x="39" y="15" width="2" height="1" fill="#707068" />
  <!-- Cable into hole -->
  <rect x="40" y="18" width="1" height="16" fill="#484830" />
  <!-- Mine cart on rim -->
  <rect x="30" y="27" width="8" height="4" fill="#484030" />
  <rect x="31" y="26" width="6" height="2" fill="#585040" />
  <rect x="30" y="31" width="2" height="1" fill="#303020" />
  <rect x="36" y="31" width="2" height="1" fill="#303020" />
  <!-- Corvan on rim of Big Hole -->
  <rect x="22" y="25" width="4" height="6" fill="#8B2020" />
  <rect x="22" y="23" width="4" height="2" fill="#D4956A" />
  <rect x="21" y="21" width="6" height="2" fill="#5C3A1E" />
  <rect x="22" y="20" width="4" height="1" fill="#5C3A1E" />
  <rect x="24" y="20" width="2" height="1" fill="#FFD700" />
  <rect x="22" y="31" width="2" height="2" fill="#2A1808" />
  <rect x="24" y="31" width="2" height="2" fill="#2A1808" />
  <!-- Loupe (held up) -->
  <rect x="26" y="22" width="4" height="4" fill="#C8A060" />
  <rect x="27" y="23" width="2" height="2" fill="#90C8E0" />
  <rect x="27" y="23" width="1" height="1" fill="#FFFFFF" />
  <rect x="28" y="24" width="1" height="1" fill="#B0D8F0" />
  <!-- MEERKAT on rock (standing upright, sentinel pose) -->
  <rect x="54" y="24" width="3" height="6" fill="#D4985A" />
  <rect x="53" y="25" width="5" height="4" fill="#C88848" />
  <rect x="54" y="23" width="3" height="2" fill="#D4985A" />
  <rect x="55" y="22" width="2" height="2" fill="#C88848" />
  <rect x="54" y="22" width="1" height="1" fill="#1A1010" />
  <rect x="56" y="22" width="1" height="1" fill="#1A1010" />
  <rect x="55" y="23" width="1" height="1" fill="#301808" />
  <rect x="54" y="24" width="1" height="3" fill="#B87838" />
  <rect x="56" y="28" width="1" height="2" fill="#C88848" />
  <rect x="54" y="28" width="1" height="2" fill="#C88848" />
  <!-- Dark eye markings -->
  <rect x="54" y="22" width="1" height="1" fill="#0A0808" />
  <rect x="56" y="22" width="1" height="1" fill="#0A0808" />
  <!-- Rock the meerkat stands on -->
  <rect x="52" y="29" width="8" height="3" fill="#8A5C30" />
  <rect x="53" y="28" width="6" height="2" fill="#9A6C40" />
  <!-- Scattered diamond brutes on ground -->
  <rect x="44" y="28" width="2" height="2" fill="#C8E8FF" />
  <rect x="45" y="27" width="1" height="1" fill="#FFFFFF" />
  <rect x="8" y="32" width="2" height="2" fill="#C8E8FF" />
  <rect x="68" y="33" width="2" height="2" fill="#D0EEFF" />
  <!-- Corner bolts -->
  <rect x="4" y="4" width="3" height="3" fill="#C8A060" />
  <rect x="73" y="4" width="3" height="3" fill="#C8A060" />
  <rect x="4" y="73" width="3" height="3" fill="#C8A060" />
  <rect x="73" y="73" width="3" height="3" fill="#C8A060" />
  <rect x="5" y="5" width="1" height="1" fill="#FFD080" />
  <rect x="74" y="5" width="1" height="1" fill="#FFD080" />
  <rect x="5" y="74" width="1" height="1" fill="#FFD080" />
  <rect x="74" y="74" width="1" height="1" fill="#FFD080" />
</svg>